M48
; DRILL file {KiCad (5.1.10)-1} date 03/04/22 22:43:27
; FORMAT={-:-/ absolute / metric / decimal}
; #@! TF.CreationDate,2022-03-04T22:43:27+01:00
; #@! TF.GenerationSoftware,Kicad,Pcbnew,(5.1.10)-1
; #@! TF.FileFunction,Plated,1,2,PTH
FMAT,2
METRIC
T1C0.400
T2C0.600
T3C1.040
T4C1.470
%
G90
G05
T1
X45.466Y-28.956
X46.736Y-47.752
X50.292Y-61.087
X51.562Y-9.271
X52.197Y-14.097
X52.197Y-17.399
X52.451Y-30.353
X52.705Y-18.161
X52.705Y-19.177
X53.541Y-9.525
X54.483Y-66.294
X54.483Y-118.11
X55.245Y-19.177
X55.499Y-81.28
X55.499Y-93.218
X56.134Y-19.177
X56.134Y-13.335
X56.261Y-9.779
X58.518Y-13.364
X59.055Y-66.675
X59.055Y-69.85
X59.69Y-26.162
X59.69Y-45.847
X60.198Y-17.018
X61.47Y-9.955
X63.373Y-18.161
X63.373Y-19.304
X64.516Y-31.115
X64.516Y-107.061
X65.532Y-47.244
X69.977Y-66.167
X69.977Y-67.437
X70.485Y-64.897
X71.628Y-69.977
X71.755Y-79.502
X71.755Y-80.391
X71.755Y-81.915
X71.755Y-94.996
X72.644Y-66.167
X74.549Y-88.9
X74.549Y-100.33
X76.327Y-84.328
X76.327Y-115.951
X78.74Y-72.644
X80.645Y-64.643
X80.645Y-80.137
X81.661Y-69.977
X81.788Y-41.783
X81.788Y-51.562
X81.788Y-88.519
X83.566Y-86.36
X83.566Y-106.172
X89.154Y-67.31
X90.043Y-105.537
X91.694Y-18.034
X92.075Y-101.346
X92.837Y-32.766
X92.837Y-66.167
X92.837Y-90.589
X93.726Y-83.185
X93.98Y-99.822
X94.996Y-43.053
X95.25Y-70.866
X96.393Y-24.003
X96.393Y-28.321
X98.298Y-20.447
X98.298Y-38.735
X99.949Y-85.471
X102.616Y-29.337
T3
X46.355Y-20.955
X46.355Y-44.767
X46.355Y-63.817
X46.355Y-82.867
X46.355Y-101.917
X46.355Y-120.968
X48.895Y-20.955
X48.895Y-44.767
X48.895Y-63.817
X48.895Y-82.867
X48.895Y-101.917
X48.895Y-120.968
X55.88Y-120.968
X58.42Y-120.968
X65.405Y-20.955
X65.405Y-44.767
X65.405Y-63.817
X65.405Y-82.867
X65.405Y-101.917
X65.405Y-120.968
X67.945Y-20.955
X67.945Y-44.767
X67.945Y-63.817
X67.945Y-82.867
X67.945Y-101.917
X67.945Y-120.968
X84.455Y-20.955
X84.455Y-44.767
X84.455Y-63.817
X84.455Y-82.867
X84.455Y-101.917
X84.455Y-120.968
X86.995Y-20.955
X86.995Y-44.767
X86.995Y-63.817
X86.995Y-82.867
X86.995Y-101.917
X86.995Y-120.968
X103.505Y-20.955
X103.505Y-44.767
X103.505Y-63.817
X103.505Y-82.867
X103.505Y-101.917
X103.505Y-120.968
X106.045Y-20.955
X106.045Y-44.767
X106.045Y-63.817
X106.045Y-82.867
X106.045Y-101.917
X106.045Y-120.968
X109.855Y-66.992
X109.855Y-69.532
X109.855Y-105.093
X109.855Y-107.632
T4
X43.815Y-13.335
X43.815Y-37.148
X43.815Y-56.197
X43.815Y-75.248
X43.815Y-94.297
X43.815Y-113.347
X45.125Y-11.875
X45.125Y-35.688
X45.125Y-54.737
X45.125Y-73.787
X45.125Y-92.837
X45.125Y-111.887
X50.125Y-11.375
X50.125Y-35.188
X50.125Y-54.237
X50.125Y-73.287
X50.125Y-92.337
X50.125Y-111.387
X50.165Y-10.795
X50.165Y-34.608
X50.165Y-53.657
X50.165Y-72.707
X50.165Y-91.757
X50.165Y-110.807
X53.34Y-113.347
X54.65Y-111.887
X59.65Y-111.387
X59.69Y-110.807
X62.865Y-13.335
X62.865Y-37.148
X62.865Y-56.197
X62.865Y-75.248
X62.865Y-94.297
X62.865Y-113.347
X64.175Y-11.875
X64.175Y-35.688
X64.175Y-54.737
X64.175Y-73.787
X64.175Y-92.837
X64.175Y-111.887
X69.175Y-11.375
X69.175Y-35.188
X69.175Y-54.237
X69.175Y-73.287
X69.175Y-92.337
X69.175Y-111.387
X69.215Y-10.795
X69.215Y-34.608
X69.215Y-53.657
X69.215Y-72.707
X69.215Y-91.757
X69.215Y-110.807
X81.915Y-13.335
X81.915Y-37.148
X81.915Y-56.197
X81.915Y-75.248
X81.915Y-94.297
X81.915Y-113.347
X83.225Y-11.875
X83.225Y-35.688
X83.225Y-54.737
X83.225Y-73.787
X83.225Y-92.837
X83.225Y-111.887
X88.225Y-11.375
X88.225Y-35.188
X88.225Y-54.237
X88.225Y-73.287
X88.225Y-92.337
X88.225Y-111.387
X88.265Y-10.795
X88.265Y-34.608
X88.265Y-53.657
X88.265Y-72.707
X88.265Y-91.757
X88.265Y-110.807
X99.695Y-65.722
X99.695Y-103.822
X100.275Y-65.763
X100.275Y-103.862
X100.775Y-70.763
X100.775Y-108.862
X100.965Y-13.335
X100.965Y-37.148
X100.965Y-56.197
X100.965Y-75.248
X100.965Y-94.297
X100.965Y-113.347
X102.235Y-72.072
X102.235Y-110.172
X102.275Y-11.875
X102.275Y-35.688
X102.275Y-54.737
X102.275Y-73.787
X102.275Y-92.837
X102.275Y-111.887
X107.275Y-11.375
X107.275Y-35.188
X107.275Y-54.237
X107.275Y-73.287
X107.275Y-92.337
X107.275Y-111.387
X107.315Y-10.795
X107.315Y-34.608
X107.315Y-53.657
X107.315Y-72.707
X107.315Y-91.757
X107.315Y-110.807
T2
G00X50.48Y-2.275
M15
G01X50.48Y-2.875
M16
G05
G00X50.48Y-6.205
M15
G01X50.48Y-7.305
M16
G05
G00X59.12Y-2.275
M15
G01X59.12Y-2.875
M16
G05
G00X59.12Y-6.205
M15
G01X59.12Y-7.305
M16
G05
T0
M30
