G04 #@! TF.GenerationSoftware,KiCad,Pcbnew,(5.1.10)-1*
G04 #@! TF.CreationDate,2022-03-04T22:43:15+01:00*
G04 #@! TF.ProjectId,Voyager20,566f7961-6765-4723-9230-2e6b69636164,rev?*
G04 #@! TF.SameCoordinates,Original*
G04 #@! TF.FileFunction,Copper,L2,Bot*
G04 #@! TF.FilePolarity,Positive*
%FSLAX46Y46*%
G04 Gerber Fmt 4.6, Leading zero omitted, Abs format (unit mm)*
G04 Created by KiCad (PCBNEW (5.1.10)-1) date 2022-03-04 22:43:15*
%MOMM*%
%LPD*%
G01*
G04 APERTURE LIST*
G04 #@! TA.AperFunction,SMDPad,CuDef*
%ADD10R,1.400000X1.200000*%
G04 #@! TD*
G04 #@! TA.AperFunction,SMDPad,CuDef*
%ADD11R,3.650000X3.650000*%
G04 #@! TD*
G04 #@! TA.AperFunction,SMDPad,CuDef*
%ADD12R,0.900000X0.800000*%
G04 #@! TD*
G04 #@! TA.AperFunction,SMDPad,CuDef*
%ADD13R,1.200000X0.900000*%
G04 #@! TD*
G04 #@! TA.AperFunction,SMDPad,CuDef*
%ADD14R,1.000000X1.500000*%
G04 #@! TD*
G04 #@! TA.AperFunction,ComponentPad*
%ADD15R,1.905000X1.905000*%
G04 #@! TD*
G04 #@! TA.AperFunction,ComponentPad*
%ADD16C,1.905000*%
G04 #@! TD*
G04 #@! TA.AperFunction,ComponentPad*
%ADD17C,2.250000*%
G04 #@! TD*
G04 #@! TA.AperFunction,SMDPad,CuDef*
%ADD18R,1.800000X1.100000*%
G04 #@! TD*
G04 #@! TA.AperFunction,SMDPad,CuDef*
%ADD19R,0.700000X0.600000*%
G04 #@! TD*
G04 #@! TA.AperFunction,SMDPad,CuDef*
%ADD20R,0.700000X1.000000*%
G04 #@! TD*
G04 #@! TA.AperFunction,ComponentPad*
%ADD21O,1.000000X1.600000*%
G04 #@! TD*
G04 #@! TA.AperFunction,ComponentPad*
%ADD22O,1.000000X2.100000*%
G04 #@! TD*
G04 #@! TA.AperFunction,SMDPad,CuDef*
%ADD23R,0.300000X1.450000*%
G04 #@! TD*
G04 #@! TA.AperFunction,SMDPad,CuDef*
%ADD24R,0.600000X1.450000*%
G04 #@! TD*
G04 #@! TA.AperFunction,ViaPad*
%ADD25C,0.600000*%
G04 #@! TD*
G04 #@! TA.AperFunction,Conductor*
%ADD26C,0.254000*%
G04 #@! TD*
G04 #@! TA.AperFunction,Conductor*
%ADD27C,0.381000*%
G04 #@! TD*
G04 #@! TA.AperFunction,Conductor*
%ADD28C,0.203200*%
G04 #@! TD*
G04 #@! TA.AperFunction,Conductor*
%ADD29C,0.100000*%
G04 #@! TD*
G04 APERTURE END LIST*
G04 #@! TA.AperFunction,SMDPad,CuDef*
G36*
G01*
X53012500Y-27006250D02*
X51762500Y-27006250D01*
G75*
G02*
X51512500Y-26756250I0J250000D01*
G01*
X51512500Y-26006250D01*
G75*
G02*
X51762500Y-25756250I250000J0D01*
G01*
X53012500Y-25756250D01*
G75*
G02*
X53262500Y-26006250I0J-250000D01*
G01*
X53262500Y-26756250D01*
G75*
G02*
X53012500Y-27006250I-250000J0D01*
G01*
G37*
G04 #@! TD.AperFunction*
G04 #@! TA.AperFunction,SMDPad,CuDef*
G36*
G01*
X53012500Y-29806250D02*
X51762500Y-29806250D01*
G75*
G02*
X51512500Y-29556250I0J250000D01*
G01*
X51512500Y-28806250D01*
G75*
G02*
X51762500Y-28556250I250000J0D01*
G01*
X53012500Y-28556250D01*
G75*
G02*
X53262500Y-28806250I0J-250000D01*
G01*
X53262500Y-29556250D01*
G75*
G02*
X53012500Y-29806250I-250000J0D01*
G01*
G37*
G04 #@! TD.AperFunction*
D10*
X75100000Y-61968750D03*
X77300000Y-61968750D03*
X77300000Y-60268750D03*
X75100000Y-60268750D03*
D11*
X77787500Y-69056250D03*
G04 #@! TA.AperFunction,SMDPad,CuDef*
G36*
G01*
X75000000Y-67181250D02*
X75625000Y-67181250D01*
G75*
G02*
X75687500Y-67243750I0J-62500D01*
G01*
X75687500Y-67368750D01*
G75*
G02*
X75625000Y-67431250I-62500J0D01*
G01*
X75000000Y-67431250D01*
G75*
G02*
X74937500Y-67368750I0J62500D01*
G01*
X74937500Y-67243750D01*
G75*
G02*
X75000000Y-67181250I62500J0D01*
G01*
G37*
G04 #@! TD.AperFunction*
G04 #@! TA.AperFunction,SMDPad,CuDef*
G36*
G01*
X75000000Y-67681250D02*
X75625000Y-67681250D01*
G75*
G02*
X75687500Y-67743750I0J-62500D01*
G01*
X75687500Y-67868750D01*
G75*
G02*
X75625000Y-67931250I-62500J0D01*
G01*
X75000000Y-67931250D01*
G75*
G02*
X74937500Y-67868750I0J62500D01*
G01*
X74937500Y-67743750D01*
G75*
G02*
X75000000Y-67681250I62500J0D01*
G01*
G37*
G04 #@! TD.AperFunction*
G04 #@! TA.AperFunction,SMDPad,CuDef*
G36*
G01*
X75000000Y-68181250D02*
X75625000Y-68181250D01*
G75*
G02*
X75687500Y-68243750I0J-62500D01*
G01*
X75687500Y-68368750D01*
G75*
G02*
X75625000Y-68431250I-62500J0D01*
G01*
X75000000Y-68431250D01*
G75*
G02*
X74937500Y-68368750I0J62500D01*
G01*
X74937500Y-68243750D01*
G75*
G02*
X75000000Y-68181250I62500J0D01*
G01*
G37*
G04 #@! TD.AperFunction*
G04 #@! TA.AperFunction,SMDPad,CuDef*
G36*
G01*
X75000000Y-68681250D02*
X75625000Y-68681250D01*
G75*
G02*
X75687500Y-68743750I0J-62500D01*
G01*
X75687500Y-68868750D01*
G75*
G02*
X75625000Y-68931250I-62500J0D01*
G01*
X75000000Y-68931250D01*
G75*
G02*
X74937500Y-68868750I0J62500D01*
G01*
X74937500Y-68743750D01*
G75*
G02*
X75000000Y-68681250I62500J0D01*
G01*
G37*
G04 #@! TD.AperFunction*
G04 #@! TA.AperFunction,SMDPad,CuDef*
G36*
G01*
X75000000Y-69181250D02*
X75625000Y-69181250D01*
G75*
G02*
X75687500Y-69243750I0J-62500D01*
G01*
X75687500Y-69368750D01*
G75*
G02*
X75625000Y-69431250I-62500J0D01*
G01*
X75000000Y-69431250D01*
G75*
G02*
X74937500Y-69368750I0J62500D01*
G01*
X74937500Y-69243750D01*
G75*
G02*
X75000000Y-69181250I62500J0D01*
G01*
G37*
G04 #@! TD.AperFunction*
G04 #@! TA.AperFunction,SMDPad,CuDef*
G36*
G01*
X75000000Y-69681250D02*
X75625000Y-69681250D01*
G75*
G02*
X75687500Y-69743750I0J-62500D01*
G01*
X75687500Y-69868750D01*
G75*
G02*
X75625000Y-69931250I-62500J0D01*
G01*
X75000000Y-69931250D01*
G75*
G02*
X74937500Y-69868750I0J62500D01*
G01*
X74937500Y-69743750D01*
G75*
G02*
X75000000Y-69681250I62500J0D01*
G01*
G37*
G04 #@! TD.AperFunction*
G04 #@! TA.AperFunction,SMDPad,CuDef*
G36*
G01*
X75000000Y-70181250D02*
X75625000Y-70181250D01*
G75*
G02*
X75687500Y-70243750I0J-62500D01*
G01*
X75687500Y-70368750D01*
G75*
G02*
X75625000Y-70431250I-62500J0D01*
G01*
X75000000Y-70431250D01*
G75*
G02*
X74937500Y-70368750I0J62500D01*
G01*
X74937500Y-70243750D01*
G75*
G02*
X75000000Y-70181250I62500J0D01*
G01*
G37*
G04 #@! TD.AperFunction*
G04 #@! TA.AperFunction,SMDPad,CuDef*
G36*
G01*
X75000000Y-70681250D02*
X75625000Y-70681250D01*
G75*
G02*
X75687500Y-70743750I0J-62500D01*
G01*
X75687500Y-70868750D01*
G75*
G02*
X75625000Y-70931250I-62500J0D01*
G01*
X75000000Y-70931250D01*
G75*
G02*
X74937500Y-70868750I0J62500D01*
G01*
X74937500Y-70743750D01*
G75*
G02*
X75000000Y-70681250I62500J0D01*
G01*
G37*
G04 #@! TD.AperFunction*
G04 #@! TA.AperFunction,SMDPad,CuDef*
G36*
G01*
X75975000Y-71156250D02*
X76100000Y-71156250D01*
G75*
G02*
X76162500Y-71218750I0J-62500D01*
G01*
X76162500Y-71843750D01*
G75*
G02*
X76100000Y-71906250I-62500J0D01*
G01*
X75975000Y-71906250D01*
G75*
G02*
X75912500Y-71843750I0J62500D01*
G01*
X75912500Y-71218750D01*
G75*
G02*
X75975000Y-71156250I62500J0D01*
G01*
G37*
G04 #@! TD.AperFunction*
G04 #@! TA.AperFunction,SMDPad,CuDef*
G36*
G01*
X76475000Y-71156250D02*
X76600000Y-71156250D01*
G75*
G02*
X76662500Y-71218750I0J-62500D01*
G01*
X76662500Y-71843750D01*
G75*
G02*
X76600000Y-71906250I-62500J0D01*
G01*
X76475000Y-71906250D01*
G75*
G02*
X76412500Y-71843750I0J62500D01*
G01*
X76412500Y-71218750D01*
G75*
G02*
X76475000Y-71156250I62500J0D01*
G01*
G37*
G04 #@! TD.AperFunction*
G04 #@! TA.AperFunction,SMDPad,CuDef*
G36*
G01*
X76975000Y-71156250D02*
X77100000Y-71156250D01*
G75*
G02*
X77162500Y-71218750I0J-62500D01*
G01*
X77162500Y-71843750D01*
G75*
G02*
X77100000Y-71906250I-62500J0D01*
G01*
X76975000Y-71906250D01*
G75*
G02*
X76912500Y-71843750I0J62500D01*
G01*
X76912500Y-71218750D01*
G75*
G02*
X76975000Y-71156250I62500J0D01*
G01*
G37*
G04 #@! TD.AperFunction*
G04 #@! TA.AperFunction,SMDPad,CuDef*
G36*
G01*
X77475000Y-71156250D02*
X77600000Y-71156250D01*
G75*
G02*
X77662500Y-71218750I0J-62500D01*
G01*
X77662500Y-71843750D01*
G75*
G02*
X77600000Y-71906250I-62500J0D01*
G01*
X77475000Y-71906250D01*
G75*
G02*
X77412500Y-71843750I0J62500D01*
G01*
X77412500Y-71218750D01*
G75*
G02*
X77475000Y-71156250I62500J0D01*
G01*
G37*
G04 #@! TD.AperFunction*
G04 #@! TA.AperFunction,SMDPad,CuDef*
G36*
G01*
X77975000Y-71156250D02*
X78100000Y-71156250D01*
G75*
G02*
X78162500Y-71218750I0J-62500D01*
G01*
X78162500Y-71843750D01*
G75*
G02*
X78100000Y-71906250I-62500J0D01*
G01*
X77975000Y-71906250D01*
G75*
G02*
X77912500Y-71843750I0J62500D01*
G01*
X77912500Y-71218750D01*
G75*
G02*
X77975000Y-71156250I62500J0D01*
G01*
G37*
G04 #@! TD.AperFunction*
G04 #@! TA.AperFunction,SMDPad,CuDef*
G36*
G01*
X78475000Y-71156250D02*
X78600000Y-71156250D01*
G75*
G02*
X78662500Y-71218750I0J-62500D01*
G01*
X78662500Y-71843750D01*
G75*
G02*
X78600000Y-71906250I-62500J0D01*
G01*
X78475000Y-71906250D01*
G75*
G02*
X78412500Y-71843750I0J62500D01*
G01*
X78412500Y-71218750D01*
G75*
G02*
X78475000Y-71156250I62500J0D01*
G01*
G37*
G04 #@! TD.AperFunction*
G04 #@! TA.AperFunction,SMDPad,CuDef*
G36*
G01*
X78975000Y-71156250D02*
X79100000Y-71156250D01*
G75*
G02*
X79162500Y-71218750I0J-62500D01*
G01*
X79162500Y-71843750D01*
G75*
G02*
X79100000Y-71906250I-62500J0D01*
G01*
X78975000Y-71906250D01*
G75*
G02*
X78912500Y-71843750I0J62500D01*
G01*
X78912500Y-71218750D01*
G75*
G02*
X78975000Y-71156250I62500J0D01*
G01*
G37*
G04 #@! TD.AperFunction*
G04 #@! TA.AperFunction,SMDPad,CuDef*
G36*
G01*
X79475000Y-71156250D02*
X79600000Y-71156250D01*
G75*
G02*
X79662500Y-71218750I0J-62500D01*
G01*
X79662500Y-71843750D01*
G75*
G02*
X79600000Y-71906250I-62500J0D01*
G01*
X79475000Y-71906250D01*
G75*
G02*
X79412500Y-71843750I0J62500D01*
G01*
X79412500Y-71218750D01*
G75*
G02*
X79475000Y-71156250I62500J0D01*
G01*
G37*
G04 #@! TD.AperFunction*
G04 #@! TA.AperFunction,SMDPad,CuDef*
G36*
G01*
X79950000Y-70681250D02*
X80575000Y-70681250D01*
G75*
G02*
X80637500Y-70743750I0J-62500D01*
G01*
X80637500Y-70868750D01*
G75*
G02*
X80575000Y-70931250I-62500J0D01*
G01*
X79950000Y-70931250D01*
G75*
G02*
X79887500Y-70868750I0J62500D01*
G01*
X79887500Y-70743750D01*
G75*
G02*
X79950000Y-70681250I62500J0D01*
G01*
G37*
G04 #@! TD.AperFunction*
G04 #@! TA.AperFunction,SMDPad,CuDef*
G36*
G01*
X79950000Y-70181250D02*
X80575000Y-70181250D01*
G75*
G02*
X80637500Y-70243750I0J-62500D01*
G01*
X80637500Y-70368750D01*
G75*
G02*
X80575000Y-70431250I-62500J0D01*
G01*
X79950000Y-70431250D01*
G75*
G02*
X79887500Y-70368750I0J62500D01*
G01*
X79887500Y-70243750D01*
G75*
G02*
X79950000Y-70181250I62500J0D01*
G01*
G37*
G04 #@! TD.AperFunction*
G04 #@! TA.AperFunction,SMDPad,CuDef*
G36*
G01*
X79950000Y-69681250D02*
X80575000Y-69681250D01*
G75*
G02*
X80637500Y-69743750I0J-62500D01*
G01*
X80637500Y-69868750D01*
G75*
G02*
X80575000Y-69931250I-62500J0D01*
G01*
X79950000Y-69931250D01*
G75*
G02*
X79887500Y-69868750I0J62500D01*
G01*
X79887500Y-69743750D01*
G75*
G02*
X79950000Y-69681250I62500J0D01*
G01*
G37*
G04 #@! TD.AperFunction*
G04 #@! TA.AperFunction,SMDPad,CuDef*
G36*
G01*
X79950000Y-69181250D02*
X80575000Y-69181250D01*
G75*
G02*
X80637500Y-69243750I0J-62500D01*
G01*
X80637500Y-69368750D01*
G75*
G02*
X80575000Y-69431250I-62500J0D01*
G01*
X79950000Y-69431250D01*
G75*
G02*
X79887500Y-69368750I0J62500D01*
G01*
X79887500Y-69243750D01*
G75*
G02*
X79950000Y-69181250I62500J0D01*
G01*
G37*
G04 #@! TD.AperFunction*
G04 #@! TA.AperFunction,SMDPad,CuDef*
G36*
G01*
X79950000Y-68681250D02*
X80575000Y-68681250D01*
G75*
G02*
X80637500Y-68743750I0J-62500D01*
G01*
X80637500Y-68868750D01*
G75*
G02*
X80575000Y-68931250I-62500J0D01*
G01*
X79950000Y-68931250D01*
G75*
G02*
X79887500Y-68868750I0J62500D01*
G01*
X79887500Y-68743750D01*
G75*
G02*
X79950000Y-68681250I62500J0D01*
G01*
G37*
G04 #@! TD.AperFunction*
G04 #@! TA.AperFunction,SMDPad,CuDef*
G36*
G01*
X79950000Y-68181250D02*
X80575000Y-68181250D01*
G75*
G02*
X80637500Y-68243750I0J-62500D01*
G01*
X80637500Y-68368750D01*
G75*
G02*
X80575000Y-68431250I-62500J0D01*
G01*
X79950000Y-68431250D01*
G75*
G02*
X79887500Y-68368750I0J62500D01*
G01*
X79887500Y-68243750D01*
G75*
G02*
X79950000Y-68181250I62500J0D01*
G01*
G37*
G04 #@! TD.AperFunction*
G04 #@! TA.AperFunction,SMDPad,CuDef*
G36*
G01*
X79950000Y-67681250D02*
X80575000Y-67681250D01*
G75*
G02*
X80637500Y-67743750I0J-62500D01*
G01*
X80637500Y-67868750D01*
G75*
G02*
X80575000Y-67931250I-62500J0D01*
G01*
X79950000Y-67931250D01*
G75*
G02*
X79887500Y-67868750I0J62500D01*
G01*
X79887500Y-67743750D01*
G75*
G02*
X79950000Y-67681250I62500J0D01*
G01*
G37*
G04 #@! TD.AperFunction*
G04 #@! TA.AperFunction,SMDPad,CuDef*
G36*
G01*
X79950000Y-67181250D02*
X80575000Y-67181250D01*
G75*
G02*
X80637500Y-67243750I0J-62500D01*
G01*
X80637500Y-67368750D01*
G75*
G02*
X80575000Y-67431250I-62500J0D01*
G01*
X79950000Y-67431250D01*
G75*
G02*
X79887500Y-67368750I0J62500D01*
G01*
X79887500Y-67243750D01*
G75*
G02*
X79950000Y-67181250I62500J0D01*
G01*
G37*
G04 #@! TD.AperFunction*
G04 #@! TA.AperFunction,SMDPad,CuDef*
G36*
G01*
X79475000Y-66206250D02*
X79600000Y-66206250D01*
G75*
G02*
X79662500Y-66268750I0J-62500D01*
G01*
X79662500Y-66893750D01*
G75*
G02*
X79600000Y-66956250I-62500J0D01*
G01*
X79475000Y-66956250D01*
G75*
G02*
X79412500Y-66893750I0J62500D01*
G01*
X79412500Y-66268750D01*
G75*
G02*
X79475000Y-66206250I62500J0D01*
G01*
G37*
G04 #@! TD.AperFunction*
G04 #@! TA.AperFunction,SMDPad,CuDef*
G36*
G01*
X78975000Y-66206250D02*
X79100000Y-66206250D01*
G75*
G02*
X79162500Y-66268750I0J-62500D01*
G01*
X79162500Y-66893750D01*
G75*
G02*
X79100000Y-66956250I-62500J0D01*
G01*
X78975000Y-66956250D01*
G75*
G02*
X78912500Y-66893750I0J62500D01*
G01*
X78912500Y-66268750D01*
G75*
G02*
X78975000Y-66206250I62500J0D01*
G01*
G37*
G04 #@! TD.AperFunction*
G04 #@! TA.AperFunction,SMDPad,CuDef*
G36*
G01*
X78475000Y-66206250D02*
X78600000Y-66206250D01*
G75*
G02*
X78662500Y-66268750I0J-62500D01*
G01*
X78662500Y-66893750D01*
G75*
G02*
X78600000Y-66956250I-62500J0D01*
G01*
X78475000Y-66956250D01*
G75*
G02*
X78412500Y-66893750I0J62500D01*
G01*
X78412500Y-66268750D01*
G75*
G02*
X78475000Y-66206250I62500J0D01*
G01*
G37*
G04 #@! TD.AperFunction*
G04 #@! TA.AperFunction,SMDPad,CuDef*
G36*
G01*
X77975000Y-66206250D02*
X78100000Y-66206250D01*
G75*
G02*
X78162500Y-66268750I0J-62500D01*
G01*
X78162500Y-66893750D01*
G75*
G02*
X78100000Y-66956250I-62500J0D01*
G01*
X77975000Y-66956250D01*
G75*
G02*
X77912500Y-66893750I0J62500D01*
G01*
X77912500Y-66268750D01*
G75*
G02*
X77975000Y-66206250I62500J0D01*
G01*
G37*
G04 #@! TD.AperFunction*
G04 #@! TA.AperFunction,SMDPad,CuDef*
G36*
G01*
X77475000Y-66206250D02*
X77600000Y-66206250D01*
G75*
G02*
X77662500Y-66268750I0J-62500D01*
G01*
X77662500Y-66893750D01*
G75*
G02*
X77600000Y-66956250I-62500J0D01*
G01*
X77475000Y-66956250D01*
G75*
G02*
X77412500Y-66893750I0J62500D01*
G01*
X77412500Y-66268750D01*
G75*
G02*
X77475000Y-66206250I62500J0D01*
G01*
G37*
G04 #@! TD.AperFunction*
G04 #@! TA.AperFunction,SMDPad,CuDef*
G36*
G01*
X76975000Y-66206250D02*
X77100000Y-66206250D01*
G75*
G02*
X77162500Y-66268750I0J-62500D01*
G01*
X77162500Y-66893750D01*
G75*
G02*
X77100000Y-66956250I-62500J0D01*
G01*
X76975000Y-66956250D01*
G75*
G02*
X76912500Y-66893750I0J62500D01*
G01*
X76912500Y-66268750D01*
G75*
G02*
X76975000Y-66206250I62500J0D01*
G01*
G37*
G04 #@! TD.AperFunction*
G04 #@! TA.AperFunction,SMDPad,CuDef*
G36*
G01*
X76475000Y-66206250D02*
X76600000Y-66206250D01*
G75*
G02*
X76662500Y-66268750I0J-62500D01*
G01*
X76662500Y-66893750D01*
G75*
G02*
X76600000Y-66956250I-62500J0D01*
G01*
X76475000Y-66956250D01*
G75*
G02*
X76412500Y-66893750I0J62500D01*
G01*
X76412500Y-66268750D01*
G75*
G02*
X76475000Y-66206250I62500J0D01*
G01*
G37*
G04 #@! TD.AperFunction*
G04 #@! TA.AperFunction,SMDPad,CuDef*
G36*
G01*
X75975000Y-66206250D02*
X76100000Y-66206250D01*
G75*
G02*
X76162500Y-66268750I0J-62500D01*
G01*
X76162500Y-66893750D01*
G75*
G02*
X76100000Y-66956250I-62500J0D01*
G01*
X75975000Y-66956250D01*
G75*
G02*
X75912500Y-66893750I0J62500D01*
G01*
X75912500Y-66268750D01*
G75*
G02*
X75975000Y-66206250I62500J0D01*
G01*
G37*
G04 #@! TD.AperFunction*
G04 #@! TA.AperFunction,SMDPad,CuDef*
G36*
G01*
X97287501Y-21031250D02*
X96387499Y-21031250D01*
G75*
G02*
X96137500Y-20781251I0J249999D01*
G01*
X96137500Y-20256249D01*
G75*
G02*
X96387499Y-20006250I249999J0D01*
G01*
X97287501Y-20006250D01*
G75*
G02*
X97537500Y-20256249I0J-249999D01*
G01*
X97537500Y-20781251D01*
G75*
G02*
X97287501Y-21031250I-249999J0D01*
G01*
G37*
G04 #@! TD.AperFunction*
G04 #@! TA.AperFunction,SMDPad,CuDef*
G36*
G01*
X97287501Y-22856250D02*
X96387499Y-22856250D01*
G75*
G02*
X96137500Y-22606251I0J249999D01*
G01*
X96137500Y-22081249D01*
G75*
G02*
X96387499Y-21831250I249999J0D01*
G01*
X97287501Y-21831250D01*
G75*
G02*
X97537500Y-22081249I0J-249999D01*
G01*
X97537500Y-22606251D01*
G75*
G02*
X97287501Y-22856250I-249999J0D01*
G01*
G37*
G04 #@! TD.AperFunction*
G04 #@! TA.AperFunction,SMDPad,CuDef*
G36*
G01*
X94112501Y-21031250D02*
X93212499Y-21031250D01*
G75*
G02*
X92962500Y-20781251I0J249999D01*
G01*
X92962500Y-20256249D01*
G75*
G02*
X93212499Y-20006250I249999J0D01*
G01*
X94112501Y-20006250D01*
G75*
G02*
X94362500Y-20256249I0J-249999D01*
G01*
X94362500Y-20781251D01*
G75*
G02*
X94112501Y-21031250I-249999J0D01*
G01*
G37*
G04 #@! TD.AperFunction*
G04 #@! TA.AperFunction,SMDPad,CuDef*
G36*
G01*
X94112501Y-22856250D02*
X93212499Y-22856250D01*
G75*
G02*
X92962500Y-22606251I0J249999D01*
G01*
X92962500Y-22081249D01*
G75*
G02*
X93212499Y-21831250I249999J0D01*
G01*
X94112501Y-21831250D01*
G75*
G02*
X94362500Y-22081249I0J-249999D01*
G01*
X94362500Y-22606251D01*
G75*
G02*
X94112501Y-22856250I-249999J0D01*
G01*
G37*
G04 #@! TD.AperFunction*
G04 #@! TA.AperFunction,SMDPad,CuDef*
G36*
G01*
X75062501Y-21031250D02*
X74162499Y-21031250D01*
G75*
G02*
X73912500Y-20781251I0J249999D01*
G01*
X73912500Y-20256249D01*
G75*
G02*
X74162499Y-20006250I249999J0D01*
G01*
X75062501Y-20006250D01*
G75*
G02*
X75312500Y-20256249I0J-249999D01*
G01*
X75312500Y-20781251D01*
G75*
G02*
X75062501Y-21031250I-249999J0D01*
G01*
G37*
G04 #@! TD.AperFunction*
G04 #@! TA.AperFunction,SMDPad,CuDef*
G36*
G01*
X75062501Y-22856250D02*
X74162499Y-22856250D01*
G75*
G02*
X73912500Y-22606251I0J249999D01*
G01*
X73912500Y-22081249D01*
G75*
G02*
X74162499Y-21831250I249999J0D01*
G01*
X75062501Y-21831250D01*
G75*
G02*
X75312500Y-22081249I0J-249999D01*
G01*
X75312500Y-22606251D01*
G75*
G02*
X75062501Y-22856250I-249999J0D01*
G01*
G37*
G04 #@! TD.AperFunction*
G04 #@! TA.AperFunction,SMDPad,CuDef*
G36*
G01*
X42518751Y-25000000D02*
X41618749Y-25000000D01*
G75*
G02*
X41368750Y-24750001I0J249999D01*
G01*
X41368750Y-24224999D01*
G75*
G02*
X41618749Y-23975000I249999J0D01*
G01*
X42518751Y-23975000D01*
G75*
G02*
X42768750Y-24224999I0J-249999D01*
G01*
X42768750Y-24750001D01*
G75*
G02*
X42518751Y-25000000I-249999J0D01*
G01*
G37*
G04 #@! TD.AperFunction*
G04 #@! TA.AperFunction,SMDPad,CuDef*
G36*
G01*
X42518751Y-26825000D02*
X41618749Y-26825000D01*
G75*
G02*
X41368750Y-26575001I0J249999D01*
G01*
X41368750Y-26049999D01*
G75*
G02*
X41618749Y-25800000I249999J0D01*
G01*
X42518751Y-25800000D01*
G75*
G02*
X42768750Y-26049999I0J-249999D01*
G01*
X42768750Y-26575001D01*
G75*
G02*
X42518751Y-26825000I-249999J0D01*
G01*
G37*
G04 #@! TD.AperFunction*
G04 #@! TA.AperFunction,SMDPad,CuDef*
G36*
G01*
X74212500Y-82099999D02*
X74212500Y-83000001D01*
G75*
G02*
X73962501Y-83250000I-249999J0D01*
G01*
X73437499Y-83250000D01*
G75*
G02*
X73187500Y-83000001I0J249999D01*
G01*
X73187500Y-82099999D01*
G75*
G02*
X73437499Y-81850000I249999J0D01*
G01*
X73962501Y-81850000D01*
G75*
G02*
X74212500Y-82099999I0J-249999D01*
G01*
G37*
G04 #@! TD.AperFunction*
G04 #@! TA.AperFunction,SMDPad,CuDef*
G36*
G01*
X76037500Y-82099999D02*
X76037500Y-83000001D01*
G75*
G02*
X75787501Y-83250000I-249999J0D01*
G01*
X75262499Y-83250000D01*
G75*
G02*
X75012500Y-83000001I0J249999D01*
G01*
X75012500Y-82099999D01*
G75*
G02*
X75262499Y-81850000I249999J0D01*
G01*
X75787501Y-81850000D01*
G75*
G02*
X76037500Y-82099999I0J-249999D01*
G01*
G37*
G04 #@! TD.AperFunction*
G04 #@! TA.AperFunction,SMDPad,CuDef*
G36*
G01*
X91731251Y-119456250D02*
X90831249Y-119456250D01*
G75*
G02*
X90581250Y-119206251I0J249999D01*
G01*
X90581250Y-118681249D01*
G75*
G02*
X90831249Y-118431250I249999J0D01*
G01*
X91731251Y-118431250D01*
G75*
G02*
X91981250Y-118681249I0J-249999D01*
G01*
X91981250Y-119206251D01*
G75*
G02*
X91731251Y-119456250I-249999J0D01*
G01*
G37*
G04 #@! TD.AperFunction*
G04 #@! TA.AperFunction,SMDPad,CuDef*
G36*
G01*
X91731251Y-121281250D02*
X90831249Y-121281250D01*
G75*
G02*
X90581250Y-121031251I0J249999D01*
G01*
X90581250Y-120506249D01*
G75*
G02*
X90831249Y-120256250I249999J0D01*
G01*
X91731251Y-120256250D01*
G75*
G02*
X91981250Y-120506249I0J-249999D01*
G01*
X91981250Y-121031251D01*
G75*
G02*
X91731251Y-121281250I-249999J0D01*
G01*
G37*
G04 #@! TD.AperFunction*
G04 #@! TA.AperFunction,SMDPad,CuDef*
G36*
G01*
X78237501Y-119456250D02*
X77337499Y-119456250D01*
G75*
G02*
X77087500Y-119206251I0J249999D01*
G01*
X77087500Y-118681249D01*
G75*
G02*
X77337499Y-118431250I249999J0D01*
G01*
X78237501Y-118431250D01*
G75*
G02*
X78487500Y-118681249I0J-249999D01*
G01*
X78487500Y-119206251D01*
G75*
G02*
X78237501Y-119456250I-249999J0D01*
G01*
G37*
G04 #@! TD.AperFunction*
G04 #@! TA.AperFunction,SMDPad,CuDef*
G36*
G01*
X78237501Y-121281250D02*
X77337499Y-121281250D01*
G75*
G02*
X77087500Y-121031251I0J249999D01*
G01*
X77087500Y-120506249D01*
G75*
G02*
X77337499Y-120256250I249999J0D01*
G01*
X78237501Y-120256250D01*
G75*
G02*
X78487500Y-120506249I0J-249999D01*
G01*
X78487500Y-121031251D01*
G75*
G02*
X78237501Y-121281250I-249999J0D01*
G01*
G37*
G04 #@! TD.AperFunction*
G04 #@! TA.AperFunction,SMDPad,CuDef*
G36*
G01*
X62362501Y-118662500D02*
X61462499Y-118662500D01*
G75*
G02*
X61212500Y-118412501I0J249999D01*
G01*
X61212500Y-117887499D01*
G75*
G02*
X61462499Y-117637500I249999J0D01*
G01*
X62362501Y-117637500D01*
G75*
G02*
X62612500Y-117887499I0J-249999D01*
G01*
X62612500Y-118412501D01*
G75*
G02*
X62362501Y-118662500I-249999J0D01*
G01*
G37*
G04 #@! TD.AperFunction*
G04 #@! TA.AperFunction,SMDPad,CuDef*
G36*
G01*
X62362501Y-120487500D02*
X61462499Y-120487500D01*
G75*
G02*
X61212500Y-120237501I0J249999D01*
G01*
X61212500Y-119712499D01*
G75*
G02*
X61462499Y-119462500I249999J0D01*
G01*
X62362501Y-119462500D01*
G75*
G02*
X62612500Y-119712499I0J-249999D01*
G01*
X62612500Y-120237501D01*
G75*
G02*
X62362501Y-120487500I-249999J0D01*
G01*
G37*
G04 #@! TD.AperFunction*
G04 #@! TA.AperFunction,SMDPad,CuDef*
G36*
G01*
X52837501Y-118662500D02*
X51937499Y-118662500D01*
G75*
G02*
X51687500Y-118412501I0J249999D01*
G01*
X51687500Y-117887499D01*
G75*
G02*
X51937499Y-117637500I249999J0D01*
G01*
X52837501Y-117637500D01*
G75*
G02*
X53087500Y-117887499I0J-249999D01*
G01*
X53087500Y-118412501D01*
G75*
G02*
X52837501Y-118662500I-249999J0D01*
G01*
G37*
G04 #@! TD.AperFunction*
G04 #@! TA.AperFunction,SMDPad,CuDef*
G36*
G01*
X52837501Y-120487500D02*
X51937499Y-120487500D01*
G75*
G02*
X51687500Y-120237501I0J249999D01*
G01*
X51687500Y-119712499D01*
G75*
G02*
X51937499Y-119462500I249999J0D01*
G01*
X52837501Y-119462500D01*
G75*
G02*
X53087500Y-119712499I0J-249999D01*
G01*
X53087500Y-120237501D01*
G75*
G02*
X52837501Y-120487500I-249999J0D01*
G01*
G37*
G04 #@! TD.AperFunction*
G04 #@! TA.AperFunction,SMDPad,CuDef*
G36*
G01*
X75062501Y-101993750D02*
X74162499Y-101993750D01*
G75*
G02*
X73912500Y-101743751I0J249999D01*
G01*
X73912500Y-101218749D01*
G75*
G02*
X74162499Y-100968750I249999J0D01*
G01*
X75062501Y-100968750D01*
G75*
G02*
X75312500Y-101218749I0J-249999D01*
G01*
X75312500Y-101743751D01*
G75*
G02*
X75062501Y-101993750I-249999J0D01*
G01*
G37*
G04 #@! TD.AperFunction*
G04 #@! TA.AperFunction,SMDPad,CuDef*
G36*
G01*
X75062501Y-103818750D02*
X74162499Y-103818750D01*
G75*
G02*
X73912500Y-103568751I0J249999D01*
G01*
X73912500Y-103043749D01*
G75*
G02*
X74162499Y-102793750I249999J0D01*
G01*
X75062501Y-102793750D01*
G75*
G02*
X75312500Y-103043749I0J-249999D01*
G01*
X75312500Y-103568751D01*
G75*
G02*
X75062501Y-103818750I-249999J0D01*
G01*
G37*
G04 #@! TD.AperFunction*
G04 #@! TA.AperFunction,SMDPad,CuDef*
G36*
G01*
X78237501Y-101993750D02*
X77337499Y-101993750D01*
G75*
G02*
X77087500Y-101743751I0J249999D01*
G01*
X77087500Y-101218749D01*
G75*
G02*
X77337499Y-100968750I249999J0D01*
G01*
X78237501Y-100968750D01*
G75*
G02*
X78487500Y-101218749I0J-249999D01*
G01*
X78487500Y-101743751D01*
G75*
G02*
X78237501Y-101993750I-249999J0D01*
G01*
G37*
G04 #@! TD.AperFunction*
G04 #@! TA.AperFunction,SMDPad,CuDef*
G36*
G01*
X78237501Y-103818750D02*
X77337499Y-103818750D01*
G75*
G02*
X77087500Y-103568751I0J249999D01*
G01*
X77087500Y-103043749D01*
G75*
G02*
X77337499Y-102793750I249999J0D01*
G01*
X78237501Y-102793750D01*
G75*
G02*
X78487500Y-103043749I0J-249999D01*
G01*
X78487500Y-103568751D01*
G75*
G02*
X78237501Y-103818750I-249999J0D01*
G01*
G37*
G04 #@! TD.AperFunction*
G04 #@! TA.AperFunction,SMDPad,CuDef*
G36*
G01*
X59187501Y-94850000D02*
X58287499Y-94850000D01*
G75*
G02*
X58037500Y-94600001I0J249999D01*
G01*
X58037500Y-94074999D01*
G75*
G02*
X58287499Y-93825000I249999J0D01*
G01*
X59187501Y-93825000D01*
G75*
G02*
X59437500Y-94074999I0J-249999D01*
G01*
X59437500Y-94600001D01*
G75*
G02*
X59187501Y-94850000I-249999J0D01*
G01*
G37*
G04 #@! TD.AperFunction*
G04 #@! TA.AperFunction,SMDPad,CuDef*
G36*
G01*
X59187501Y-96675000D02*
X58287499Y-96675000D01*
G75*
G02*
X58037500Y-96425001I0J249999D01*
G01*
X58037500Y-95899999D01*
G75*
G02*
X58287499Y-95650000I249999J0D01*
G01*
X59187501Y-95650000D01*
G75*
G02*
X59437500Y-95899999I0J-249999D01*
G01*
X59437500Y-96425001D01*
G75*
G02*
X59187501Y-96675000I-249999J0D01*
G01*
G37*
G04 #@! TD.AperFunction*
G04 #@! TA.AperFunction,SMDPad,CuDef*
G36*
G01*
X56012501Y-94850000D02*
X55112499Y-94850000D01*
G75*
G02*
X54862500Y-94600001I0J249999D01*
G01*
X54862500Y-94074999D01*
G75*
G02*
X55112499Y-93825000I249999J0D01*
G01*
X56012501Y-93825000D01*
G75*
G02*
X56262500Y-94074999I0J-249999D01*
G01*
X56262500Y-94600001D01*
G75*
G02*
X56012501Y-94850000I-249999J0D01*
G01*
G37*
G04 #@! TD.AperFunction*
G04 #@! TA.AperFunction,SMDPad,CuDef*
G36*
G01*
X56012501Y-96675000D02*
X55112499Y-96675000D01*
G75*
G02*
X54862500Y-96425001I0J249999D01*
G01*
X54862500Y-95899999D01*
G75*
G02*
X55112499Y-95650000I249999J0D01*
G01*
X56012501Y-95650000D01*
G75*
G02*
X56262500Y-95899999I0J-249999D01*
G01*
X56262500Y-96425001D01*
G75*
G02*
X56012501Y-96675000I-249999J0D01*
G01*
G37*
G04 #@! TD.AperFunction*
G04 #@! TA.AperFunction,SMDPad,CuDef*
G36*
G01*
X104375000Y-86862499D02*
X104375000Y-87762501D01*
G75*
G02*
X104125001Y-88012500I-249999J0D01*
G01*
X103599999Y-88012500D01*
G75*
G02*
X103350000Y-87762501I0J249999D01*
G01*
X103350000Y-86862499D01*
G75*
G02*
X103599999Y-86612500I249999J0D01*
G01*
X104125001Y-86612500D01*
G75*
G02*
X104375000Y-86862499I0J-249999D01*
G01*
G37*
G04 #@! TD.AperFunction*
G04 #@! TA.AperFunction,SMDPad,CuDef*
G36*
G01*
X106200000Y-86862499D02*
X106200000Y-87762501D01*
G75*
G02*
X105950001Y-88012500I-249999J0D01*
G01*
X105424999Y-88012500D01*
G75*
G02*
X105175000Y-87762501I0J249999D01*
G01*
X105175000Y-86862499D01*
G75*
G02*
X105424999Y-86612500I249999J0D01*
G01*
X105950001Y-86612500D01*
G75*
G02*
X106200000Y-86862499I0J-249999D01*
G01*
G37*
G04 #@! TD.AperFunction*
G04 #@! TA.AperFunction,SMDPad,CuDef*
G36*
G01*
X80618751Y-82943750D02*
X79718749Y-82943750D01*
G75*
G02*
X79468750Y-82693751I0J249999D01*
G01*
X79468750Y-82168749D01*
G75*
G02*
X79718749Y-81918750I249999J0D01*
G01*
X80618751Y-81918750D01*
G75*
G02*
X80868750Y-82168749I0J-249999D01*
G01*
X80868750Y-82693751D01*
G75*
G02*
X80618751Y-82943750I-249999J0D01*
G01*
G37*
G04 #@! TD.AperFunction*
G04 #@! TA.AperFunction,SMDPad,CuDef*
G36*
G01*
X80618751Y-84768750D02*
X79718749Y-84768750D01*
G75*
G02*
X79468750Y-84518751I0J249999D01*
G01*
X79468750Y-83993749D01*
G75*
G02*
X79718749Y-83743750I249999J0D01*
G01*
X80618751Y-83743750D01*
G75*
G02*
X80868750Y-83993749I0J-249999D01*
G01*
X80868750Y-84518751D01*
G75*
G02*
X80618751Y-84768750I-249999J0D01*
G01*
G37*
G04 #@! TD.AperFunction*
G04 #@! TA.AperFunction,SMDPad,CuDef*
G36*
G01*
X59187501Y-82943750D02*
X58287499Y-82943750D01*
G75*
G02*
X58037500Y-82693751I0J249999D01*
G01*
X58037500Y-82168749D01*
G75*
G02*
X58287499Y-81918750I249999J0D01*
G01*
X59187501Y-81918750D01*
G75*
G02*
X59437500Y-82168749I0J-249999D01*
G01*
X59437500Y-82693751D01*
G75*
G02*
X59187501Y-82943750I-249999J0D01*
G01*
G37*
G04 #@! TD.AperFunction*
G04 #@! TA.AperFunction,SMDPad,CuDef*
G36*
G01*
X59187501Y-84768750D02*
X58287499Y-84768750D01*
G75*
G02*
X58037500Y-84518751I0J249999D01*
G01*
X58037500Y-83993749D01*
G75*
G02*
X58287499Y-83743750I249999J0D01*
G01*
X59187501Y-83743750D01*
G75*
G02*
X59437500Y-83993749I0J-249999D01*
G01*
X59437500Y-84518751D01*
G75*
G02*
X59187501Y-84768750I-249999J0D01*
G01*
G37*
G04 #@! TD.AperFunction*
G04 #@! TA.AperFunction,SMDPad,CuDef*
G36*
G01*
X56012501Y-82943750D02*
X55112499Y-82943750D01*
G75*
G02*
X54862500Y-82693751I0J249999D01*
G01*
X54862500Y-82168749D01*
G75*
G02*
X55112499Y-81918750I249999J0D01*
G01*
X56012501Y-81918750D01*
G75*
G02*
X56262500Y-82168749I0J-249999D01*
G01*
X56262500Y-82693751D01*
G75*
G02*
X56012501Y-82943750I-249999J0D01*
G01*
G37*
G04 #@! TD.AperFunction*
G04 #@! TA.AperFunction,SMDPad,CuDef*
G36*
G01*
X56012501Y-84768750D02*
X55112499Y-84768750D01*
G75*
G02*
X54862500Y-84518751I0J249999D01*
G01*
X54862500Y-83993749D01*
G75*
G02*
X55112499Y-83743750I249999J0D01*
G01*
X56012501Y-83743750D01*
G75*
G02*
X56262500Y-83993749I0J-249999D01*
G01*
X56262500Y-84518751D01*
G75*
G02*
X56012501Y-84768750I-249999J0D01*
G01*
G37*
G04 #@! TD.AperFunction*
G04 #@! TA.AperFunction,SMDPad,CuDef*
G36*
G01*
X96493751Y-67862500D02*
X95593749Y-67862500D01*
G75*
G02*
X95343750Y-67612501I0J249999D01*
G01*
X95343750Y-67087499D01*
G75*
G02*
X95593749Y-66837500I249999J0D01*
G01*
X96493751Y-66837500D01*
G75*
G02*
X96743750Y-67087499I0J-249999D01*
G01*
X96743750Y-67612501D01*
G75*
G02*
X96493751Y-67862500I-249999J0D01*
G01*
G37*
G04 #@! TD.AperFunction*
G04 #@! TA.AperFunction,SMDPad,CuDef*
G36*
G01*
X96493751Y-69687500D02*
X95593749Y-69687500D01*
G75*
G02*
X95343750Y-69437501I0J249999D01*
G01*
X95343750Y-68912499D01*
G75*
G02*
X95593749Y-68662500I249999J0D01*
G01*
X96493751Y-68662500D01*
G75*
G02*
X96743750Y-68912499I0J-249999D01*
G01*
X96743750Y-69437501D01*
G75*
G02*
X96493751Y-69687500I-249999J0D01*
G01*
G37*
G04 #@! TD.AperFunction*
G04 #@! TA.AperFunction,SMDPad,CuDef*
G36*
G01*
X93318751Y-67862500D02*
X92418749Y-67862500D01*
G75*
G02*
X92168750Y-67612501I0J249999D01*
G01*
X92168750Y-67087499D01*
G75*
G02*
X92418749Y-66837500I249999J0D01*
G01*
X93318751Y-66837500D01*
G75*
G02*
X93568750Y-67087499I0J-249999D01*
G01*
X93568750Y-67612501D01*
G75*
G02*
X93318751Y-67862500I-249999J0D01*
G01*
G37*
G04 #@! TD.AperFunction*
G04 #@! TA.AperFunction,SMDPad,CuDef*
G36*
G01*
X93318751Y-69687500D02*
X92418749Y-69687500D01*
G75*
G02*
X92168750Y-69437501I0J249999D01*
G01*
X92168750Y-68912499D01*
G75*
G02*
X92418749Y-68662500I249999J0D01*
G01*
X93318751Y-68662500D01*
G75*
G02*
X93568750Y-68912499I0J-249999D01*
G01*
X93568750Y-69437501D01*
G75*
G02*
X93318751Y-69687500I-249999J0D01*
G01*
G37*
G04 #@! TD.AperFunction*
G04 #@! TA.AperFunction,SMDPad,CuDef*
G36*
G01*
X70300001Y-58337500D02*
X69399999Y-58337500D01*
G75*
G02*
X69150000Y-58087501I0J249999D01*
G01*
X69150000Y-57562499D01*
G75*
G02*
X69399999Y-57312500I249999J0D01*
G01*
X70300001Y-57312500D01*
G75*
G02*
X70550000Y-57562499I0J-249999D01*
G01*
X70550000Y-58087501D01*
G75*
G02*
X70300001Y-58337500I-249999J0D01*
G01*
G37*
G04 #@! TD.AperFunction*
G04 #@! TA.AperFunction,SMDPad,CuDef*
G36*
G01*
X70300001Y-60162500D02*
X69399999Y-60162500D01*
G75*
G02*
X69150000Y-59912501I0J249999D01*
G01*
X69150000Y-59387499D01*
G75*
G02*
X69399999Y-59137500I249999J0D01*
G01*
X70300001Y-59137500D01*
G75*
G02*
X70550000Y-59387499I0J-249999D01*
G01*
X70550000Y-59912501D01*
G75*
G02*
X70300001Y-60162500I-249999J0D01*
G01*
G37*
G04 #@! TD.AperFunction*
G04 #@! TA.AperFunction,SMDPad,CuDef*
G36*
G01*
X53631251Y-63893750D02*
X52731249Y-63893750D01*
G75*
G02*
X52481250Y-63643751I0J249999D01*
G01*
X52481250Y-63118749D01*
G75*
G02*
X52731249Y-62868750I249999J0D01*
G01*
X53631251Y-62868750D01*
G75*
G02*
X53881250Y-63118749I0J-249999D01*
G01*
X53881250Y-63643751D01*
G75*
G02*
X53631251Y-63893750I-249999J0D01*
G01*
G37*
G04 #@! TD.AperFunction*
G04 #@! TA.AperFunction,SMDPad,CuDef*
G36*
G01*
X53631251Y-65718750D02*
X52731249Y-65718750D01*
G75*
G02*
X52481250Y-65468751I0J249999D01*
G01*
X52481250Y-64943749D01*
G75*
G02*
X52731249Y-64693750I249999J0D01*
G01*
X53631251Y-64693750D01*
G75*
G02*
X53881250Y-64943749I0J-249999D01*
G01*
X53881250Y-65468751D01*
G75*
G02*
X53631251Y-65718750I-249999J0D01*
G01*
G37*
G04 #@! TD.AperFunction*
G04 #@! TA.AperFunction,SMDPad,CuDef*
G36*
G01*
X97287501Y-39287500D02*
X96387499Y-39287500D01*
G75*
G02*
X96137500Y-39037501I0J249999D01*
G01*
X96137500Y-38512499D01*
G75*
G02*
X96387499Y-38262500I249999J0D01*
G01*
X97287501Y-38262500D01*
G75*
G02*
X97537500Y-38512499I0J-249999D01*
G01*
X97537500Y-39037501D01*
G75*
G02*
X97287501Y-39287500I-249999J0D01*
G01*
G37*
G04 #@! TD.AperFunction*
G04 #@! TA.AperFunction,SMDPad,CuDef*
G36*
G01*
X97287501Y-41112500D02*
X96387499Y-41112500D01*
G75*
G02*
X96137500Y-40862501I0J249999D01*
G01*
X96137500Y-40337499D01*
G75*
G02*
X96387499Y-40087500I249999J0D01*
G01*
X97287501Y-40087500D01*
G75*
G02*
X97537500Y-40337499I0J-249999D01*
G01*
X97537500Y-40862501D01*
G75*
G02*
X97287501Y-41112500I-249999J0D01*
G01*
G37*
G04 #@! TD.AperFunction*
G04 #@! TA.AperFunction,SMDPad,CuDef*
G36*
G01*
X78237501Y-44843750D02*
X77337499Y-44843750D01*
G75*
G02*
X77087500Y-44593751I0J249999D01*
G01*
X77087500Y-44068749D01*
G75*
G02*
X77337499Y-43818750I249999J0D01*
G01*
X78237501Y-43818750D01*
G75*
G02*
X78487500Y-44068749I0J-249999D01*
G01*
X78487500Y-44593751D01*
G75*
G02*
X78237501Y-44843750I-249999J0D01*
G01*
G37*
G04 #@! TD.AperFunction*
G04 #@! TA.AperFunction,SMDPad,CuDef*
G36*
G01*
X78237501Y-46668750D02*
X77337499Y-46668750D01*
G75*
G02*
X77087500Y-46418751I0J249999D01*
G01*
X77087500Y-45893749D01*
G75*
G02*
X77337499Y-45643750I249999J0D01*
G01*
X78237501Y-45643750D01*
G75*
G02*
X78487500Y-45893749I0J-249999D01*
G01*
X78487500Y-46418751D01*
G75*
G02*
X78237501Y-46668750I-249999J0D01*
G01*
G37*
G04 #@! TD.AperFunction*
G04 #@! TA.AperFunction,SMDPad,CuDef*
G36*
G01*
X75062501Y-44843750D02*
X74162499Y-44843750D01*
G75*
G02*
X73912500Y-44593751I0J249999D01*
G01*
X73912500Y-44068749D01*
G75*
G02*
X74162499Y-43818750I249999J0D01*
G01*
X75062501Y-43818750D01*
G75*
G02*
X75312500Y-44068749I0J-249999D01*
G01*
X75312500Y-44593751D01*
G75*
G02*
X75062501Y-44843750I-249999J0D01*
G01*
G37*
G04 #@! TD.AperFunction*
G04 #@! TA.AperFunction,SMDPad,CuDef*
G36*
G01*
X75062501Y-46668750D02*
X74162499Y-46668750D01*
G75*
G02*
X73912500Y-46418751I0J249999D01*
G01*
X73912500Y-45893749D01*
G75*
G02*
X74162499Y-45643750I249999J0D01*
G01*
X75062501Y-45643750D01*
G75*
G02*
X75312500Y-45893749I0J-249999D01*
G01*
X75312500Y-46418751D01*
G75*
G02*
X75062501Y-46668750I-249999J0D01*
G01*
G37*
G04 #@! TD.AperFunction*
G04 #@! TA.AperFunction,SMDPad,CuDef*
G36*
G01*
X47225000Y-48762499D02*
X47225000Y-49662501D01*
G75*
G02*
X46975001Y-49912500I-249999J0D01*
G01*
X46449999Y-49912500D01*
G75*
G02*
X46200000Y-49662501I0J249999D01*
G01*
X46200000Y-48762499D01*
G75*
G02*
X46449999Y-48512500I249999J0D01*
G01*
X46975001Y-48512500D01*
G75*
G02*
X47225000Y-48762499I0J-249999D01*
G01*
G37*
G04 #@! TD.AperFunction*
G04 #@! TA.AperFunction,SMDPad,CuDef*
G36*
G01*
X49050000Y-48762499D02*
X49050000Y-49662501D01*
G75*
G02*
X48800001Y-49912500I-249999J0D01*
G01*
X48274999Y-49912500D01*
G75*
G02*
X48025000Y-49662501I0J249999D01*
G01*
X48025000Y-48762499D01*
G75*
G02*
X48274999Y-48512500I249999J0D01*
G01*
X48800001Y-48512500D01*
G75*
G02*
X49050000Y-48762499I0J-249999D01*
G01*
G37*
G04 #@! TD.AperFunction*
G04 #@! TA.AperFunction,SMDPad,CuDef*
G36*
G01*
X50349999Y-16275000D02*
X51250001Y-16275000D01*
G75*
G02*
X51500000Y-16524999I0J-249999D01*
G01*
X51500000Y-17050001D01*
G75*
G02*
X51250001Y-17300000I-249999J0D01*
G01*
X50349999Y-17300000D01*
G75*
G02*
X50100000Y-17050001I0J249999D01*
G01*
X50100000Y-16524999D01*
G75*
G02*
X50349999Y-16275000I249999J0D01*
G01*
G37*
G04 #@! TD.AperFunction*
G04 #@! TA.AperFunction,SMDPad,CuDef*
G36*
G01*
X50349999Y-14450000D02*
X51250001Y-14450000D01*
G75*
G02*
X51500000Y-14699999I0J-249999D01*
G01*
X51500000Y-15225001D01*
G75*
G02*
X51250001Y-15475000I-249999J0D01*
G01*
X50349999Y-15475000D01*
G75*
G02*
X50100000Y-15225001I0J249999D01*
G01*
X50100000Y-14699999D01*
G75*
G02*
X50349999Y-14450000I249999J0D01*
G01*
G37*
G04 #@! TD.AperFunction*
G04 #@! TA.AperFunction,SMDPad,CuDef*
G36*
G01*
X85071000Y-68002999D02*
X85071000Y-68903001D01*
G75*
G02*
X84821001Y-69153000I-249999J0D01*
G01*
X84295999Y-69153000D01*
G75*
G02*
X84046000Y-68903001I0J249999D01*
G01*
X84046000Y-68002999D01*
G75*
G02*
X84295999Y-67753000I249999J0D01*
G01*
X84821001Y-67753000D01*
G75*
G02*
X85071000Y-68002999I0J-249999D01*
G01*
G37*
G04 #@! TD.AperFunction*
G04 #@! TA.AperFunction,SMDPad,CuDef*
G36*
G01*
X86896000Y-68002999D02*
X86896000Y-68903001D01*
G75*
G02*
X86646001Y-69153000I-249999J0D01*
G01*
X86120999Y-69153000D01*
G75*
G02*
X85871000Y-68903001I0J249999D01*
G01*
X85871000Y-68002999D01*
G75*
G02*
X86120999Y-67753000I249999J0D01*
G01*
X86646001Y-67753000D01*
G75*
G02*
X86896000Y-68002999I0J-249999D01*
G01*
G37*
G04 #@! TD.AperFunction*
G04 #@! TA.AperFunction,SMDPad,CuDef*
G36*
G01*
X60668749Y-19450000D02*
X61568751Y-19450000D01*
G75*
G02*
X61818750Y-19699999I0J-249999D01*
G01*
X61818750Y-20225001D01*
G75*
G02*
X61568751Y-20475000I-249999J0D01*
G01*
X60668749Y-20475000D01*
G75*
G02*
X60418750Y-20225001I0J249999D01*
G01*
X60418750Y-19699999D01*
G75*
G02*
X60668749Y-19450000I249999J0D01*
G01*
G37*
G04 #@! TD.AperFunction*
G04 #@! TA.AperFunction,SMDPad,CuDef*
G36*
G01*
X60668749Y-17625000D02*
X61568751Y-17625000D01*
G75*
G02*
X61818750Y-17874999I0J-249999D01*
G01*
X61818750Y-18400001D01*
G75*
G02*
X61568751Y-18650000I-249999J0D01*
G01*
X60668749Y-18650000D01*
G75*
G02*
X60418750Y-18400001I0J249999D01*
G01*
X60418750Y-17874999D01*
G75*
G02*
X60668749Y-17625000I249999J0D01*
G01*
G37*
G04 #@! TD.AperFunction*
G04 #@! TA.AperFunction,SMDPad,CuDef*
G36*
G01*
X61518750Y-70300001D02*
X61518750Y-69399999D01*
G75*
G02*
X61768749Y-69150000I249999J0D01*
G01*
X62293751Y-69150000D01*
G75*
G02*
X62543750Y-69399999I0J-249999D01*
G01*
X62543750Y-70300001D01*
G75*
G02*
X62293751Y-70550000I-249999J0D01*
G01*
X61768749Y-70550000D01*
G75*
G02*
X61518750Y-70300001I0J249999D01*
G01*
G37*
G04 #@! TD.AperFunction*
G04 #@! TA.AperFunction,SMDPad,CuDef*
G36*
G01*
X59693750Y-70300001D02*
X59693750Y-69399999D01*
G75*
G02*
X59943749Y-69150000I249999J0D01*
G01*
X60468751Y-69150000D01*
G75*
G02*
X60718750Y-69399999I0J-249999D01*
G01*
X60718750Y-70300001D01*
G75*
G02*
X60468751Y-70550000I-249999J0D01*
G01*
X59943749Y-70550000D01*
G75*
G02*
X59693750Y-70300001I0J249999D01*
G01*
G37*
G04 #@! TD.AperFunction*
G04 #@! TA.AperFunction,SMDPad,CuDef*
G36*
G01*
X60718750Y-66224999D02*
X60718750Y-67125001D01*
G75*
G02*
X60468751Y-67375000I-249999J0D01*
G01*
X59943749Y-67375000D01*
G75*
G02*
X59693750Y-67125001I0J249999D01*
G01*
X59693750Y-66224999D01*
G75*
G02*
X59943749Y-65975000I249999J0D01*
G01*
X60468751Y-65975000D01*
G75*
G02*
X60718750Y-66224999I0J-249999D01*
G01*
G37*
G04 #@! TD.AperFunction*
G04 #@! TA.AperFunction,SMDPad,CuDef*
G36*
G01*
X62543750Y-66224999D02*
X62543750Y-67125001D01*
G75*
G02*
X62293751Y-67375000I-249999J0D01*
G01*
X61768749Y-67375000D01*
G75*
G02*
X61518750Y-67125001I0J249999D01*
G01*
X61518750Y-66224999D01*
G75*
G02*
X61768749Y-65975000I249999J0D01*
G01*
X62293751Y-65975000D01*
G75*
G02*
X62543750Y-66224999I0J-249999D01*
G01*
G37*
G04 #@! TD.AperFunction*
G04 #@! TA.AperFunction,SMDPad,CuDef*
G36*
G01*
X88449999Y-87712500D02*
X89350001Y-87712500D01*
G75*
G02*
X89600000Y-87962499I0J-249999D01*
G01*
X89600000Y-88487501D01*
G75*
G02*
X89350001Y-88737500I-249999J0D01*
G01*
X88449999Y-88737500D01*
G75*
G02*
X88200000Y-88487501I0J249999D01*
G01*
X88200000Y-87962499D01*
G75*
G02*
X88449999Y-87712500I249999J0D01*
G01*
G37*
G04 #@! TD.AperFunction*
G04 #@! TA.AperFunction,SMDPad,CuDef*
G36*
G01*
X88449999Y-85887500D02*
X89350001Y-85887500D01*
G75*
G02*
X89600000Y-86137499I0J-249999D01*
G01*
X89600000Y-86662501D01*
G75*
G02*
X89350001Y-86912500I-249999J0D01*
G01*
X88449999Y-86912500D01*
G75*
G02*
X88200000Y-86662501I0J249999D01*
G01*
X88200000Y-86137499D01*
G75*
G02*
X88449999Y-85887500I249999J0D01*
G01*
G37*
G04 #@! TD.AperFunction*
D12*
X73612500Y-86518750D03*
X75612500Y-87468750D03*
X75612500Y-85568750D03*
D13*
X96837500Y-14225000D03*
X96837500Y-17525000D03*
X93662500Y-14225000D03*
X93662500Y-17525000D03*
X74612500Y-14225000D03*
X74612500Y-17525000D03*
X42068750Y-18193750D03*
X42068750Y-21493750D03*
D14*
X60337500Y-104843750D03*
X57137500Y-104843750D03*
X60337500Y-99943750D03*
X57137500Y-99943750D03*
X95262500Y-104843750D03*
X92062500Y-104843750D03*
X95262500Y-99943750D03*
X92062500Y-99943750D03*
D13*
X94456250Y-109475000D03*
X94456250Y-112775000D03*
X77787500Y-112650000D03*
X77787500Y-115950000D03*
X74612500Y-112650000D03*
X74612500Y-115950000D03*
X53975000Y-102331250D03*
X53975000Y-105631250D03*
D14*
X96056250Y-31025000D03*
X92856250Y-31025000D03*
X96056250Y-26125000D03*
X92856250Y-26125000D03*
D13*
X74612500Y-95187500D03*
X74612500Y-98487500D03*
X77787500Y-95187500D03*
X77787500Y-98487500D03*
X58737500Y-88043750D03*
X58737500Y-91343750D03*
X55562500Y-88043750D03*
X55562500Y-91343750D03*
X96043750Y-72168750D03*
X96043750Y-75468750D03*
X92868750Y-72168750D03*
X92868750Y-75468750D03*
X58737500Y-76137500D03*
X58737500Y-79437500D03*
X55562500Y-76137500D03*
X55562500Y-79437500D03*
D14*
X61131250Y-31025000D03*
X57931250Y-31025000D03*
X61131250Y-26125000D03*
X57931250Y-26125000D03*
D13*
X96043750Y-61056250D03*
X96043750Y-64356250D03*
X92868750Y-61056250D03*
X92868750Y-64356250D03*
X58737500Y-57087500D03*
X58737500Y-60387500D03*
X42068750Y-61056250D03*
X42068750Y-64356250D03*
X93662500Y-38037500D03*
X93662500Y-41337500D03*
X77787500Y-38037500D03*
X77787500Y-41337500D03*
X74612500Y-38037500D03*
X74612500Y-41337500D03*
X42068750Y-42006250D03*
X42068750Y-45306250D03*
G04 #@! TA.AperFunction,SMDPad,CuDef*
G36*
G01*
X75180000Y-56571000D02*
X74680000Y-56571000D01*
G75*
G02*
X74455000Y-56346000I0J225000D01*
G01*
X74455000Y-55896000D01*
G75*
G02*
X74680000Y-55671000I225000J0D01*
G01*
X75180000Y-55671000D01*
G75*
G02*
X75405000Y-55896000I0J-225000D01*
G01*
X75405000Y-56346000D01*
G75*
G02*
X75180000Y-56571000I-225000J0D01*
G01*
G37*
G04 #@! TD.AperFunction*
G04 #@! TA.AperFunction,SMDPad,CuDef*
G36*
G01*
X75180000Y-58121000D02*
X74680000Y-58121000D01*
G75*
G02*
X74455000Y-57896000I0J225000D01*
G01*
X74455000Y-57446000D01*
G75*
G02*
X74680000Y-57221000I225000J0D01*
G01*
X75180000Y-57221000D01*
G75*
G02*
X75405000Y-57446000I0J-225000D01*
G01*
X75405000Y-57896000D01*
G75*
G02*
X75180000Y-58121000I-225000J0D01*
G01*
G37*
G04 #@! TD.AperFunction*
G04 #@! TA.AperFunction,SMDPad,CuDef*
G36*
G01*
X77720000Y-56571000D02*
X77220000Y-56571000D01*
G75*
G02*
X76995000Y-56346000I0J225000D01*
G01*
X76995000Y-55896000D01*
G75*
G02*
X77220000Y-55671000I225000J0D01*
G01*
X77720000Y-55671000D01*
G75*
G02*
X77945000Y-55896000I0J-225000D01*
G01*
X77945000Y-56346000D01*
G75*
G02*
X77720000Y-56571000I-225000J0D01*
G01*
G37*
G04 #@! TD.AperFunction*
G04 #@! TA.AperFunction,SMDPad,CuDef*
G36*
G01*
X77720000Y-58121000D02*
X77220000Y-58121000D01*
G75*
G02*
X76995000Y-57896000I0J225000D01*
G01*
X76995000Y-57446000D01*
G75*
G02*
X77220000Y-57221000I225000J0D01*
G01*
X77720000Y-57221000D01*
G75*
G02*
X77945000Y-57446000I0J-225000D01*
G01*
X77945000Y-57896000D01*
G75*
G02*
X77720000Y-58121000I-225000J0D01*
G01*
G37*
G04 #@! TD.AperFunction*
G04 #@! TA.AperFunction,SMDPad,CuDef*
G36*
G01*
X73021000Y-70414000D02*
X72521000Y-70414000D01*
G75*
G02*
X72296000Y-70189000I0J225000D01*
G01*
X72296000Y-69739000D01*
G75*
G02*
X72521000Y-69514000I225000J0D01*
G01*
X73021000Y-69514000D01*
G75*
G02*
X73246000Y-69739000I0J-225000D01*
G01*
X73246000Y-70189000D01*
G75*
G02*
X73021000Y-70414000I-225000J0D01*
G01*
G37*
G04 #@! TD.AperFunction*
G04 #@! TA.AperFunction,SMDPad,CuDef*
G36*
G01*
X73021000Y-71964000D02*
X72521000Y-71964000D01*
G75*
G02*
X72296000Y-71739000I0J225000D01*
G01*
X72296000Y-71289000D01*
G75*
G02*
X72521000Y-71064000I225000J0D01*
G01*
X73021000Y-71064000D01*
G75*
G02*
X73246000Y-71289000I0J-225000D01*
G01*
X73246000Y-71739000D01*
G75*
G02*
X73021000Y-71964000I-225000J0D01*
G01*
G37*
G04 #@! TD.AperFunction*
G04 #@! TA.AperFunction,SMDPad,CuDef*
G36*
G01*
X80895000Y-62413000D02*
X80395000Y-62413000D01*
G75*
G02*
X80170000Y-62188000I0J225000D01*
G01*
X80170000Y-61738000D01*
G75*
G02*
X80395000Y-61513000I225000J0D01*
G01*
X80895000Y-61513000D01*
G75*
G02*
X81120000Y-61738000I0J-225000D01*
G01*
X81120000Y-62188000D01*
G75*
G02*
X80895000Y-62413000I-225000J0D01*
G01*
G37*
G04 #@! TD.AperFunction*
G04 #@! TA.AperFunction,SMDPad,CuDef*
G36*
G01*
X80895000Y-63963000D02*
X80395000Y-63963000D01*
G75*
G02*
X80170000Y-63738000I0J225000D01*
G01*
X80170000Y-63288000D01*
G75*
G02*
X80395000Y-63063000I225000J0D01*
G01*
X80895000Y-63063000D01*
G75*
G02*
X81120000Y-63288000I0J-225000D01*
G01*
X81120000Y-63738000D01*
G75*
G02*
X80895000Y-63963000I-225000J0D01*
G01*
G37*
G04 #@! TD.AperFunction*
G04 #@! TA.AperFunction,SMDPad,CuDef*
G36*
G01*
X71557000Y-67187000D02*
X71557000Y-67687000D01*
G75*
G02*
X71332000Y-67912000I-225000J0D01*
G01*
X70882000Y-67912000D01*
G75*
G02*
X70657000Y-67687000I0J225000D01*
G01*
X70657000Y-67187000D01*
G75*
G02*
X70882000Y-66962000I225000J0D01*
G01*
X71332000Y-66962000D01*
G75*
G02*
X71557000Y-67187000I0J-225000D01*
G01*
G37*
G04 #@! TD.AperFunction*
G04 #@! TA.AperFunction,SMDPad,CuDef*
G36*
G01*
X73107000Y-67187000D02*
X73107000Y-67687000D01*
G75*
G02*
X72882000Y-67912000I-225000J0D01*
G01*
X72432000Y-67912000D01*
G75*
G02*
X72207000Y-67687000I0J225000D01*
G01*
X72207000Y-67187000D01*
G75*
G02*
X72432000Y-66962000I225000J0D01*
G01*
X72882000Y-66962000D01*
G75*
G02*
X73107000Y-67187000I0J-225000D01*
G01*
G37*
G04 #@! TD.AperFunction*
G04 #@! TA.AperFunction,SMDPad,CuDef*
G36*
G01*
X72132000Y-63937000D02*
X71632000Y-63937000D01*
G75*
G02*
X71407000Y-63712000I0J225000D01*
G01*
X71407000Y-63262000D01*
G75*
G02*
X71632000Y-63037000I225000J0D01*
G01*
X72132000Y-63037000D01*
G75*
G02*
X72357000Y-63262000I0J-225000D01*
G01*
X72357000Y-63712000D01*
G75*
G02*
X72132000Y-63937000I-225000J0D01*
G01*
G37*
G04 #@! TD.AperFunction*
G04 #@! TA.AperFunction,SMDPad,CuDef*
G36*
G01*
X72132000Y-65487000D02*
X71632000Y-65487000D01*
G75*
G02*
X71407000Y-65262000I0J225000D01*
G01*
X71407000Y-64812000D01*
G75*
G02*
X71632000Y-64587000I225000J0D01*
G01*
X72132000Y-64587000D01*
G75*
G02*
X72357000Y-64812000I0J-225000D01*
G01*
X72357000Y-65262000D01*
G75*
G02*
X72132000Y-65487000I-225000J0D01*
G01*
G37*
G04 #@! TD.AperFunction*
G04 #@! TA.AperFunction,SMDPad,CuDef*
G36*
G01*
X59206250Y-33881250D02*
X59206250Y-34381250D01*
G75*
G02*
X58981250Y-34606250I-225000J0D01*
G01*
X58531250Y-34606250D01*
G75*
G02*
X58306250Y-34381250I0J225000D01*
G01*
X58306250Y-33881250D01*
G75*
G02*
X58531250Y-33656250I225000J0D01*
G01*
X58981250Y-33656250D01*
G75*
G02*
X59206250Y-33881250I0J-225000D01*
G01*
G37*
G04 #@! TD.AperFunction*
G04 #@! TA.AperFunction,SMDPad,CuDef*
G36*
G01*
X60756250Y-33881250D02*
X60756250Y-34381250D01*
G75*
G02*
X60531250Y-34606250I-225000J0D01*
G01*
X60081250Y-34606250D01*
G75*
G02*
X59856250Y-34381250I0J225000D01*
G01*
X59856250Y-33881250D01*
G75*
G02*
X60081250Y-33656250I225000J0D01*
G01*
X60531250Y-33656250D01*
G75*
G02*
X60756250Y-33881250I0J-225000D01*
G01*
G37*
G04 #@! TD.AperFunction*
G04 #@! TA.AperFunction,SMDPad,CuDef*
G36*
G01*
X99468750Y-28250000D02*
X98968750Y-28250000D01*
G75*
G02*
X98743750Y-28025000I0J225000D01*
G01*
X98743750Y-27575000D01*
G75*
G02*
X98968750Y-27350000I225000J0D01*
G01*
X99468750Y-27350000D01*
G75*
G02*
X99693750Y-27575000I0J-225000D01*
G01*
X99693750Y-28025000D01*
G75*
G02*
X99468750Y-28250000I-225000J0D01*
G01*
G37*
G04 #@! TD.AperFunction*
G04 #@! TA.AperFunction,SMDPad,CuDef*
G36*
G01*
X99468750Y-29800000D02*
X98968750Y-29800000D01*
G75*
G02*
X98743750Y-29575000I0J225000D01*
G01*
X98743750Y-29125000D01*
G75*
G02*
X98968750Y-28900000I225000J0D01*
G01*
X99468750Y-28900000D01*
G75*
G02*
X99693750Y-29125000I0J-225000D01*
G01*
X99693750Y-29575000D01*
G75*
G02*
X99468750Y-29800000I-225000J0D01*
G01*
G37*
G04 #@! TD.AperFunction*
G04 #@! TA.AperFunction,SMDPad,CuDef*
G36*
G01*
X63750000Y-106037500D02*
X63250000Y-106037500D01*
G75*
G02*
X63025000Y-105812500I0J225000D01*
G01*
X63025000Y-105362500D01*
G75*
G02*
X63250000Y-105137500I225000J0D01*
G01*
X63750000Y-105137500D01*
G75*
G02*
X63975000Y-105362500I0J-225000D01*
G01*
X63975000Y-105812500D01*
G75*
G02*
X63750000Y-106037500I-225000J0D01*
G01*
G37*
G04 #@! TD.AperFunction*
G04 #@! TA.AperFunction,SMDPad,CuDef*
G36*
G01*
X63750000Y-107587500D02*
X63250000Y-107587500D01*
G75*
G02*
X63025000Y-107362500I0J225000D01*
G01*
X63025000Y-106912500D01*
G75*
G02*
X63250000Y-106687500I225000J0D01*
G01*
X63750000Y-106687500D01*
G75*
G02*
X63975000Y-106912500I0J-225000D01*
G01*
X63975000Y-107362500D01*
G75*
G02*
X63750000Y-107587500I-225000J0D01*
G01*
G37*
G04 #@! TD.AperFunction*
G04 #@! TA.AperFunction,SMDPad,CuDef*
G36*
G01*
X89150000Y-106037500D02*
X88650000Y-106037500D01*
G75*
G02*
X88425000Y-105812500I0J225000D01*
G01*
X88425000Y-105362500D01*
G75*
G02*
X88650000Y-105137500I225000J0D01*
G01*
X89150000Y-105137500D01*
G75*
G02*
X89375000Y-105362500I0J-225000D01*
G01*
X89375000Y-105812500D01*
G75*
G02*
X89150000Y-106037500I-225000J0D01*
G01*
G37*
G04 #@! TD.AperFunction*
G04 #@! TA.AperFunction,SMDPad,CuDef*
G36*
G01*
X89150000Y-107587500D02*
X88650000Y-107587500D01*
G75*
G02*
X88425000Y-107362500I0J225000D01*
G01*
X88425000Y-106912500D01*
G75*
G02*
X88650000Y-106687500I225000J0D01*
G01*
X89150000Y-106687500D01*
G75*
G02*
X89375000Y-106912500I0J-225000D01*
G01*
X89375000Y-107362500D01*
G75*
G02*
X89150000Y-107587500I-225000J0D01*
G01*
G37*
G04 #@! TD.AperFunction*
D15*
X48895000Y-44767500D03*
D16*
X46355000Y-44767500D03*
D17*
X45125000Y-35687500D03*
G04 #@! TA.AperFunction,ComponentPad*
G36*
G01*
X43063688Y-37984850D02*
X43063683Y-37984845D01*
G75*
G02*
X42977655Y-36396183I751317J837345D01*
G01*
X44287657Y-34936183D01*
G75*
G02*
X45876319Y-34850155I837345J-751317D01*
G01*
X45876319Y-34850155D01*
G75*
G02*
X45962347Y-36438817I-751317J-837345D01*
G01*
X44652345Y-37898817D01*
G75*
G02*
X43063683Y-37984845I-837345J751317D01*
G01*
G37*
G04 #@! TD.AperFunction*
X50165000Y-34607500D03*
G04 #@! TA.AperFunction,ComponentPad*
G36*
G01*
X50048483Y-36309895D02*
X50047597Y-36309834D01*
G75*
G02*
X49002666Y-35110097I77403J1122334D01*
G01*
X49042666Y-34530097D01*
G75*
G02*
X50242403Y-33485166I1122334J-77403D01*
G01*
X50242403Y-33485166D01*
G75*
G02*
X51287334Y-34684903I-77403J-1122334D01*
G01*
X51247334Y-35264903D01*
G75*
G02*
X50047597Y-36309834I-1122334J77403D01*
G01*
G37*
G04 #@! TD.AperFunction*
D15*
X67945000Y-44767500D03*
D16*
X65405000Y-44767500D03*
D17*
X64175000Y-35687500D03*
G04 #@! TA.AperFunction,ComponentPad*
G36*
G01*
X62113688Y-37984850D02*
X62113683Y-37984845D01*
G75*
G02*
X62027655Y-36396183I751317J837345D01*
G01*
X63337657Y-34936183D01*
G75*
G02*
X64926319Y-34850155I837345J-751317D01*
G01*
X64926319Y-34850155D01*
G75*
G02*
X65012347Y-36438817I-751317J-837345D01*
G01*
X63702345Y-37898817D01*
G75*
G02*
X62113683Y-37984845I-837345J751317D01*
G01*
G37*
G04 #@! TD.AperFunction*
X69215000Y-34607500D03*
G04 #@! TA.AperFunction,ComponentPad*
G36*
G01*
X69098483Y-36309895D02*
X69097597Y-36309834D01*
G75*
G02*
X68052666Y-35110097I77403J1122334D01*
G01*
X68092666Y-34530097D01*
G75*
G02*
X69292403Y-33485166I1122334J-77403D01*
G01*
X69292403Y-33485166D01*
G75*
G02*
X70337334Y-34684903I-77403J-1122334D01*
G01*
X70297334Y-35264903D01*
G75*
G02*
X69097597Y-36309834I-1122334J77403D01*
G01*
G37*
G04 #@! TD.AperFunction*
G04 #@! TA.AperFunction,ComponentPad*
G36*
G01*
X88148483Y-36309895D02*
X88147597Y-36309834D01*
G75*
G02*
X87102666Y-35110097I77403J1122334D01*
G01*
X87142666Y-34530097D01*
G75*
G02*
X88342403Y-33485166I1122334J-77403D01*
G01*
X88342403Y-33485166D01*
G75*
G02*
X89387334Y-34684903I-77403J-1122334D01*
G01*
X89347334Y-35264903D01*
G75*
G02*
X88147597Y-36309834I-1122334J77403D01*
G01*
G37*
G04 #@! TD.AperFunction*
X88265000Y-34607500D03*
G04 #@! TA.AperFunction,ComponentPad*
G36*
G01*
X81163688Y-37984850D02*
X81163683Y-37984845D01*
G75*
G02*
X81077655Y-36396183I751317J837345D01*
G01*
X82387657Y-34936183D01*
G75*
G02*
X83976319Y-34850155I837345J-751317D01*
G01*
X83976319Y-34850155D01*
G75*
G02*
X84062347Y-36438817I-751317J-837345D01*
G01*
X82752345Y-37898817D01*
G75*
G02*
X81163683Y-37984845I-837345J751317D01*
G01*
G37*
G04 #@! TD.AperFunction*
X83225000Y-35687500D03*
D16*
X84455000Y-44767500D03*
D15*
X86995000Y-44767500D03*
G04 #@! TA.AperFunction,ComponentPad*
G36*
G01*
X107198483Y-36309895D02*
X107197597Y-36309834D01*
G75*
G02*
X106152666Y-35110097I77403J1122334D01*
G01*
X106192666Y-34530097D01*
G75*
G02*
X107392403Y-33485166I1122334J-77403D01*
G01*
X107392403Y-33485166D01*
G75*
G02*
X108437334Y-34684903I-77403J-1122334D01*
G01*
X108397334Y-35264903D01*
G75*
G02*
X107197597Y-36309834I-1122334J77403D01*
G01*
G37*
G04 #@! TD.AperFunction*
D17*
X107315000Y-34607500D03*
G04 #@! TA.AperFunction,ComponentPad*
G36*
G01*
X100213688Y-37984850D02*
X100213683Y-37984845D01*
G75*
G02*
X100127655Y-36396183I751317J837345D01*
G01*
X101437657Y-34936183D01*
G75*
G02*
X103026319Y-34850155I837345J-751317D01*
G01*
X103026319Y-34850155D01*
G75*
G02*
X103112347Y-36438817I-751317J-837345D01*
G01*
X101802345Y-37898817D01*
G75*
G02*
X100213683Y-37984845I-837345J751317D01*
G01*
G37*
G04 #@! TD.AperFunction*
X102275000Y-35687500D03*
D16*
X103505000Y-44767500D03*
D15*
X106045000Y-44767500D03*
X48895000Y-63817500D03*
D16*
X46355000Y-63817500D03*
D17*
X45125000Y-54737500D03*
G04 #@! TA.AperFunction,ComponentPad*
G36*
G01*
X43063688Y-57034850D02*
X43063683Y-57034845D01*
G75*
G02*
X42977655Y-55446183I751317J837345D01*
G01*
X44287657Y-53986183D01*
G75*
G02*
X45876319Y-53900155I837345J-751317D01*
G01*
X45876319Y-53900155D01*
G75*
G02*
X45962347Y-55488817I-751317J-837345D01*
G01*
X44652345Y-56948817D01*
G75*
G02*
X43063683Y-57034845I-837345J751317D01*
G01*
G37*
G04 #@! TD.AperFunction*
X50165000Y-53657500D03*
G04 #@! TA.AperFunction,ComponentPad*
G36*
G01*
X50048483Y-55359895D02*
X50047597Y-55359834D01*
G75*
G02*
X49002666Y-54160097I77403J1122334D01*
G01*
X49042666Y-53580097D01*
G75*
G02*
X50242403Y-52535166I1122334J-77403D01*
G01*
X50242403Y-52535166D01*
G75*
G02*
X51287334Y-53734903I-77403J-1122334D01*
G01*
X51247334Y-54314903D01*
G75*
G02*
X50047597Y-55359834I-1122334J77403D01*
G01*
G37*
G04 #@! TD.AperFunction*
G04 #@! TA.AperFunction,ComponentPad*
G36*
G01*
X69098483Y-55359895D02*
X69097597Y-55359834D01*
G75*
G02*
X68052666Y-54160097I77403J1122334D01*
G01*
X68092666Y-53580097D01*
G75*
G02*
X69292403Y-52535166I1122334J-77403D01*
G01*
X69292403Y-52535166D01*
G75*
G02*
X70337334Y-53734903I-77403J-1122334D01*
G01*
X70297334Y-54314903D01*
G75*
G02*
X69097597Y-55359834I-1122334J77403D01*
G01*
G37*
G04 #@! TD.AperFunction*
X69215000Y-53657500D03*
G04 #@! TA.AperFunction,ComponentPad*
G36*
G01*
X62113688Y-57034850D02*
X62113683Y-57034845D01*
G75*
G02*
X62027655Y-55446183I751317J837345D01*
G01*
X63337657Y-53986183D01*
G75*
G02*
X64926319Y-53900155I837345J-751317D01*
G01*
X64926319Y-53900155D01*
G75*
G02*
X65012347Y-55488817I-751317J-837345D01*
G01*
X63702345Y-56948817D01*
G75*
G02*
X62113683Y-57034845I-837345J751317D01*
G01*
G37*
G04 #@! TD.AperFunction*
X64175000Y-54737500D03*
D16*
X65405000Y-63817500D03*
D15*
X67945000Y-63817500D03*
G04 #@! TA.AperFunction,ComponentPad*
G36*
G01*
X88148483Y-55359895D02*
X88147597Y-55359834D01*
G75*
G02*
X87102666Y-54160097I77403J1122334D01*
G01*
X87142666Y-53580097D01*
G75*
G02*
X88342403Y-52535166I1122334J-77403D01*
G01*
X88342403Y-52535166D01*
G75*
G02*
X89387334Y-53734903I-77403J-1122334D01*
G01*
X89347334Y-54314903D01*
G75*
G02*
X88147597Y-55359834I-1122334J77403D01*
G01*
G37*
G04 #@! TD.AperFunction*
D17*
X88265000Y-53657500D03*
G04 #@! TA.AperFunction,ComponentPad*
G36*
G01*
X81163688Y-57034850D02*
X81163683Y-57034845D01*
G75*
G02*
X81077655Y-55446183I751317J837345D01*
G01*
X82387657Y-53986183D01*
G75*
G02*
X83976319Y-53900155I837345J-751317D01*
G01*
X83976319Y-53900155D01*
G75*
G02*
X84062347Y-55488817I-751317J-837345D01*
G01*
X82752345Y-56948817D01*
G75*
G02*
X81163683Y-57034845I-837345J751317D01*
G01*
G37*
G04 #@! TD.AperFunction*
X83225000Y-54737500D03*
D16*
X84455000Y-63817500D03*
D15*
X86995000Y-63817500D03*
G04 #@! TA.AperFunction,ComponentPad*
G36*
G01*
X107198483Y-55359895D02*
X107197597Y-55359834D01*
G75*
G02*
X106152666Y-54160097I77403J1122334D01*
G01*
X106192666Y-53580097D01*
G75*
G02*
X107392403Y-52535166I1122334J-77403D01*
G01*
X107392403Y-52535166D01*
G75*
G02*
X108437334Y-53734903I-77403J-1122334D01*
G01*
X108397334Y-54314903D01*
G75*
G02*
X107197597Y-55359834I-1122334J77403D01*
G01*
G37*
G04 #@! TD.AperFunction*
D17*
X107315000Y-53657500D03*
G04 #@! TA.AperFunction,ComponentPad*
G36*
G01*
X100213688Y-57034850D02*
X100213683Y-57034845D01*
G75*
G02*
X100127655Y-55446183I751317J837345D01*
G01*
X101437657Y-53986183D01*
G75*
G02*
X103026319Y-53900155I837345J-751317D01*
G01*
X103026319Y-53900155D01*
G75*
G02*
X103112347Y-55488817I-751317J-837345D01*
G01*
X101802345Y-56948817D01*
G75*
G02*
X100213683Y-57034845I-837345J751317D01*
G01*
G37*
G04 #@! TD.AperFunction*
X102275000Y-54737500D03*
D16*
X103505000Y-63817500D03*
D15*
X106045000Y-63817500D03*
X48895000Y-82867500D03*
D16*
X46355000Y-82867500D03*
D17*
X45125000Y-73787500D03*
G04 #@! TA.AperFunction,ComponentPad*
G36*
G01*
X43063688Y-76084850D02*
X43063683Y-76084845D01*
G75*
G02*
X42977655Y-74496183I751317J837345D01*
G01*
X44287657Y-73036183D01*
G75*
G02*
X45876319Y-72950155I837345J-751317D01*
G01*
X45876319Y-72950155D01*
G75*
G02*
X45962347Y-74538817I-751317J-837345D01*
G01*
X44652345Y-75998817D01*
G75*
G02*
X43063683Y-76084845I-837345J751317D01*
G01*
G37*
G04 #@! TD.AperFunction*
X50165000Y-72707500D03*
G04 #@! TA.AperFunction,ComponentPad*
G36*
G01*
X50048483Y-74409895D02*
X50047597Y-74409834D01*
G75*
G02*
X49002666Y-73210097I77403J1122334D01*
G01*
X49042666Y-72630097D01*
G75*
G02*
X50242403Y-71585166I1122334J-77403D01*
G01*
X50242403Y-71585166D01*
G75*
G02*
X51287334Y-72784903I-77403J-1122334D01*
G01*
X51247334Y-73364903D01*
G75*
G02*
X50047597Y-74409834I-1122334J77403D01*
G01*
G37*
G04 #@! TD.AperFunction*
G04 #@! TA.AperFunction,ComponentPad*
G36*
G01*
X69098483Y-74409895D02*
X69097597Y-74409834D01*
G75*
G02*
X68052666Y-73210097I77403J1122334D01*
G01*
X68092666Y-72630097D01*
G75*
G02*
X69292403Y-71585166I1122334J-77403D01*
G01*
X69292403Y-71585166D01*
G75*
G02*
X70337334Y-72784903I-77403J-1122334D01*
G01*
X70297334Y-73364903D01*
G75*
G02*
X69097597Y-74409834I-1122334J77403D01*
G01*
G37*
G04 #@! TD.AperFunction*
X69215000Y-72707500D03*
G04 #@! TA.AperFunction,ComponentPad*
G36*
G01*
X62113688Y-76084850D02*
X62113683Y-76084845D01*
G75*
G02*
X62027655Y-74496183I751317J837345D01*
G01*
X63337657Y-73036183D01*
G75*
G02*
X64926319Y-72950155I837345J-751317D01*
G01*
X64926319Y-72950155D01*
G75*
G02*
X65012347Y-74538817I-751317J-837345D01*
G01*
X63702345Y-75998817D01*
G75*
G02*
X62113683Y-76084845I-837345J751317D01*
G01*
G37*
G04 #@! TD.AperFunction*
X64175000Y-73787500D03*
D16*
X65405000Y-82867500D03*
D15*
X67945000Y-82867500D03*
X86995000Y-82867500D03*
D16*
X84455000Y-82867500D03*
D17*
X83225000Y-73787500D03*
G04 #@! TA.AperFunction,ComponentPad*
G36*
G01*
X81163688Y-76084850D02*
X81163683Y-76084845D01*
G75*
G02*
X81077655Y-74496183I751317J837345D01*
G01*
X82387657Y-73036183D01*
G75*
G02*
X83976319Y-72950155I837345J-751317D01*
G01*
X83976319Y-72950155D01*
G75*
G02*
X84062347Y-74538817I-751317J-837345D01*
G01*
X82752345Y-75998817D01*
G75*
G02*
X81163683Y-76084845I-837345J751317D01*
G01*
G37*
G04 #@! TD.AperFunction*
X88265000Y-72707500D03*
G04 #@! TA.AperFunction,ComponentPad*
G36*
G01*
X88148483Y-74409895D02*
X88147597Y-74409834D01*
G75*
G02*
X87102666Y-73210097I77403J1122334D01*
G01*
X87142666Y-72630097D01*
G75*
G02*
X88342403Y-71585166I1122334J-77403D01*
G01*
X88342403Y-71585166D01*
G75*
G02*
X89387334Y-72784903I-77403J-1122334D01*
G01*
X89347334Y-73364903D01*
G75*
G02*
X88147597Y-74409834I-1122334J77403D01*
G01*
G37*
G04 #@! TD.AperFunction*
D15*
X106045000Y-82867500D03*
D16*
X103505000Y-82867500D03*
D17*
X102275000Y-73787500D03*
G04 #@! TA.AperFunction,ComponentPad*
G36*
G01*
X100213688Y-76084850D02*
X100213683Y-76084845D01*
G75*
G02*
X100127655Y-74496183I751317J837345D01*
G01*
X101437657Y-73036183D01*
G75*
G02*
X103026319Y-72950155I837345J-751317D01*
G01*
X103026319Y-72950155D01*
G75*
G02*
X103112347Y-74538817I-751317J-837345D01*
G01*
X101802345Y-75998817D01*
G75*
G02*
X100213683Y-76084845I-837345J751317D01*
G01*
G37*
G04 #@! TD.AperFunction*
X107315000Y-72707500D03*
G04 #@! TA.AperFunction,ComponentPad*
G36*
G01*
X107198483Y-74409895D02*
X107197597Y-74409834D01*
G75*
G02*
X106152666Y-73210097I77403J1122334D01*
G01*
X106192666Y-72630097D01*
G75*
G02*
X107392403Y-71585166I1122334J-77403D01*
G01*
X107392403Y-71585166D01*
G75*
G02*
X108437334Y-72784903I-77403J-1122334D01*
G01*
X108397334Y-73364903D01*
G75*
G02*
X107197597Y-74409834I-1122334J77403D01*
G01*
G37*
G04 #@! TD.AperFunction*
D15*
X48895000Y-101917500D03*
D16*
X46355000Y-101917500D03*
D17*
X45125000Y-92837500D03*
G04 #@! TA.AperFunction,ComponentPad*
G36*
G01*
X43063688Y-95134850D02*
X43063683Y-95134845D01*
G75*
G02*
X42977655Y-93546183I751317J837345D01*
G01*
X44287657Y-92086183D01*
G75*
G02*
X45876319Y-92000155I837345J-751317D01*
G01*
X45876319Y-92000155D01*
G75*
G02*
X45962347Y-93588817I-751317J-837345D01*
G01*
X44652345Y-95048817D01*
G75*
G02*
X43063683Y-95134845I-837345J751317D01*
G01*
G37*
G04 #@! TD.AperFunction*
X50165000Y-91757500D03*
G04 #@! TA.AperFunction,ComponentPad*
G36*
G01*
X50048483Y-93459895D02*
X50047597Y-93459834D01*
G75*
G02*
X49002666Y-92260097I77403J1122334D01*
G01*
X49042666Y-91680097D01*
G75*
G02*
X50242403Y-90635166I1122334J-77403D01*
G01*
X50242403Y-90635166D01*
G75*
G02*
X51287334Y-91834903I-77403J-1122334D01*
G01*
X51247334Y-92414903D01*
G75*
G02*
X50047597Y-93459834I-1122334J77403D01*
G01*
G37*
G04 #@! TD.AperFunction*
G04 #@! TA.AperFunction,ComponentPad*
G36*
G01*
X69098483Y-93459895D02*
X69097597Y-93459834D01*
G75*
G02*
X68052666Y-92260097I77403J1122334D01*
G01*
X68092666Y-91680097D01*
G75*
G02*
X69292403Y-90635166I1122334J-77403D01*
G01*
X69292403Y-90635166D01*
G75*
G02*
X70337334Y-91834903I-77403J-1122334D01*
G01*
X70297334Y-92414903D01*
G75*
G02*
X69097597Y-93459834I-1122334J77403D01*
G01*
G37*
G04 #@! TD.AperFunction*
X69215000Y-91757500D03*
G04 #@! TA.AperFunction,ComponentPad*
G36*
G01*
X62113688Y-95134850D02*
X62113683Y-95134845D01*
G75*
G02*
X62027655Y-93546183I751317J837345D01*
G01*
X63337657Y-92086183D01*
G75*
G02*
X64926319Y-92000155I837345J-751317D01*
G01*
X64926319Y-92000155D01*
G75*
G02*
X65012347Y-93588817I-751317J-837345D01*
G01*
X63702345Y-95048817D01*
G75*
G02*
X62113683Y-95134845I-837345J751317D01*
G01*
G37*
G04 #@! TD.AperFunction*
X64175000Y-92837500D03*
D16*
X65405000Y-101917500D03*
D15*
X67945000Y-101917500D03*
X86995000Y-101917500D03*
D16*
X84455000Y-101917500D03*
D17*
X83225000Y-92837500D03*
G04 #@! TA.AperFunction,ComponentPad*
G36*
G01*
X81163688Y-95134850D02*
X81163683Y-95134845D01*
G75*
G02*
X81077655Y-93546183I751317J837345D01*
G01*
X82387657Y-92086183D01*
G75*
G02*
X83976319Y-92000155I837345J-751317D01*
G01*
X83976319Y-92000155D01*
G75*
G02*
X84062347Y-93588817I-751317J-837345D01*
G01*
X82752345Y-95048817D01*
G75*
G02*
X81163683Y-95134845I-837345J751317D01*
G01*
G37*
G04 #@! TD.AperFunction*
X88265000Y-91757500D03*
G04 #@! TA.AperFunction,ComponentPad*
G36*
G01*
X88148483Y-93459895D02*
X88147597Y-93459834D01*
G75*
G02*
X87102666Y-92260097I77403J1122334D01*
G01*
X87142666Y-91680097D01*
G75*
G02*
X88342403Y-90635166I1122334J-77403D01*
G01*
X88342403Y-90635166D01*
G75*
G02*
X89387334Y-91834903I-77403J-1122334D01*
G01*
X89347334Y-92414903D01*
G75*
G02*
X88147597Y-93459834I-1122334J77403D01*
G01*
G37*
G04 #@! TD.AperFunction*
G04 #@! TA.AperFunction,ComponentPad*
G36*
G01*
X107198483Y-93459895D02*
X107197597Y-93459834D01*
G75*
G02*
X106152666Y-92260097I77403J1122334D01*
G01*
X106192666Y-91680097D01*
G75*
G02*
X107392403Y-90635166I1122334J-77403D01*
G01*
X107392403Y-90635166D01*
G75*
G02*
X108437334Y-91834903I-77403J-1122334D01*
G01*
X108397334Y-92414903D01*
G75*
G02*
X107197597Y-93459834I-1122334J77403D01*
G01*
G37*
G04 #@! TD.AperFunction*
X107315000Y-91757500D03*
G04 #@! TA.AperFunction,ComponentPad*
G36*
G01*
X100213688Y-95134850D02*
X100213683Y-95134845D01*
G75*
G02*
X100127655Y-93546183I751317J837345D01*
G01*
X101437657Y-92086183D01*
G75*
G02*
X103026319Y-92000155I837345J-751317D01*
G01*
X103026319Y-92000155D01*
G75*
G02*
X103112347Y-93588817I-751317J-837345D01*
G01*
X101802345Y-95048817D01*
G75*
G02*
X100213683Y-95134845I-837345J751317D01*
G01*
G37*
G04 #@! TD.AperFunction*
X102275000Y-92837500D03*
D16*
X103505000Y-101917500D03*
D15*
X106045000Y-101917500D03*
G04 #@! TA.AperFunction,ComponentPad*
G36*
G01*
X50048483Y-112509895D02*
X50047597Y-112509834D01*
G75*
G02*
X49002666Y-111310097I77403J1122334D01*
G01*
X49042666Y-110730097D01*
G75*
G02*
X50242403Y-109685166I1122334J-77403D01*
G01*
X50242403Y-109685166D01*
G75*
G02*
X51287334Y-110884903I-77403J-1122334D01*
G01*
X51247334Y-111464903D01*
G75*
G02*
X50047597Y-112509834I-1122334J77403D01*
G01*
G37*
G04 #@! TD.AperFunction*
D17*
X50165000Y-110807500D03*
G04 #@! TA.AperFunction,ComponentPad*
G36*
G01*
X43063688Y-114184850D02*
X43063683Y-114184845D01*
G75*
G02*
X42977655Y-112596183I751317J837345D01*
G01*
X44287657Y-111136183D01*
G75*
G02*
X45876319Y-111050155I837345J-751317D01*
G01*
X45876319Y-111050155D01*
G75*
G02*
X45962347Y-112638817I-751317J-837345D01*
G01*
X44652345Y-114098817D01*
G75*
G02*
X43063683Y-114184845I-837345J751317D01*
G01*
G37*
G04 #@! TD.AperFunction*
X45125000Y-111887500D03*
D16*
X46355000Y-120967500D03*
D15*
X48895000Y-120967500D03*
X67945000Y-120967500D03*
D16*
X65405000Y-120967500D03*
D17*
X64175000Y-111887500D03*
G04 #@! TA.AperFunction,ComponentPad*
G36*
G01*
X62113688Y-114184850D02*
X62113683Y-114184845D01*
G75*
G02*
X62027655Y-112596183I751317J837345D01*
G01*
X63337657Y-111136183D01*
G75*
G02*
X64926319Y-111050155I837345J-751317D01*
G01*
X64926319Y-111050155D01*
G75*
G02*
X65012347Y-112638817I-751317J-837345D01*
G01*
X63702345Y-114098817D01*
G75*
G02*
X62113683Y-114184845I-837345J751317D01*
G01*
G37*
G04 #@! TD.AperFunction*
X69215000Y-110807500D03*
G04 #@! TA.AperFunction,ComponentPad*
G36*
G01*
X69098483Y-112509895D02*
X69097597Y-112509834D01*
G75*
G02*
X68052666Y-111310097I77403J1122334D01*
G01*
X68092666Y-110730097D01*
G75*
G02*
X69292403Y-109685166I1122334J-77403D01*
G01*
X69292403Y-109685166D01*
G75*
G02*
X70337334Y-110884903I-77403J-1122334D01*
G01*
X70297334Y-111464903D01*
G75*
G02*
X69097597Y-112509834I-1122334J77403D01*
G01*
G37*
G04 #@! TD.AperFunction*
G04 #@! TA.AperFunction,ComponentPad*
G36*
G01*
X88148483Y-112509895D02*
X88147597Y-112509834D01*
G75*
G02*
X87102666Y-111310097I77403J1122334D01*
G01*
X87142666Y-110730097D01*
G75*
G02*
X88342403Y-109685166I1122334J-77403D01*
G01*
X88342403Y-109685166D01*
G75*
G02*
X89387334Y-110884903I-77403J-1122334D01*
G01*
X89347334Y-111464903D01*
G75*
G02*
X88147597Y-112509834I-1122334J77403D01*
G01*
G37*
G04 #@! TD.AperFunction*
X88265000Y-110807500D03*
G04 #@! TA.AperFunction,ComponentPad*
G36*
G01*
X81163688Y-114184850D02*
X81163683Y-114184845D01*
G75*
G02*
X81077655Y-112596183I751317J837345D01*
G01*
X82387657Y-111136183D01*
G75*
G02*
X83976319Y-111050155I837345J-751317D01*
G01*
X83976319Y-111050155D01*
G75*
G02*
X84062347Y-112638817I-751317J-837345D01*
G01*
X82752345Y-114098817D01*
G75*
G02*
X81163683Y-114184845I-837345J751317D01*
G01*
G37*
G04 #@! TD.AperFunction*
X83225000Y-111887500D03*
D16*
X84455000Y-120967500D03*
D15*
X86995000Y-120967500D03*
X106045000Y-120967500D03*
D16*
X103505000Y-120967500D03*
D17*
X102275000Y-111887500D03*
G04 #@! TA.AperFunction,ComponentPad*
G36*
G01*
X100213688Y-114184850D02*
X100213683Y-114184845D01*
G75*
G02*
X100127655Y-112596183I751317J837345D01*
G01*
X101437657Y-111136183D01*
G75*
G02*
X103026319Y-111050155I837345J-751317D01*
G01*
X103026319Y-111050155D01*
G75*
G02*
X103112347Y-112638817I-751317J-837345D01*
G01*
X101802345Y-114098817D01*
G75*
G02*
X100213683Y-114184845I-837345J751317D01*
G01*
G37*
G04 #@! TD.AperFunction*
X107315000Y-110807500D03*
G04 #@! TA.AperFunction,ComponentPad*
G36*
G01*
X107198483Y-112509895D02*
X107197597Y-112509834D01*
G75*
G02*
X106152666Y-111310097I77403J1122334D01*
G01*
X106192666Y-110730097D01*
G75*
G02*
X107392403Y-109685166I1122334J-77403D01*
G01*
X107392403Y-109685166D01*
G75*
G02*
X108437334Y-110884903I-77403J-1122334D01*
G01*
X108397334Y-111464903D01*
G75*
G02*
X107197597Y-112509834I-1122334J77403D01*
G01*
G37*
G04 #@! TD.AperFunction*
D18*
X98350000Y-85462500D03*
X92150000Y-89162500D03*
X98350000Y-89162500D03*
X92150000Y-85462500D03*
D19*
X56150000Y-16825000D03*
X58150000Y-16825000D03*
X56150000Y-14925000D03*
D20*
X58150000Y-15125000D03*
D21*
X59120000Y-2575000D03*
X50480000Y-2575000D03*
D22*
X59120000Y-6755000D03*
X50480000Y-6755000D03*
D23*
X54550000Y-7670000D03*
X55050000Y-7670000D03*
X55550000Y-7670000D03*
X54050000Y-7670000D03*
X56050000Y-7670000D03*
X53550000Y-7670000D03*
X56550000Y-7670000D03*
X53050000Y-7670000D03*
D24*
X52350000Y-7670000D03*
X57250000Y-7670000D03*
X51575000Y-7670000D03*
X58025000Y-7670000D03*
G04 #@! TA.AperFunction,ComponentPad*
G36*
G01*
X101397395Y-65839017D02*
X101397334Y-65839903D01*
G75*
G02*
X100197597Y-66884834I-1122334J77403D01*
G01*
X99617597Y-66844834D01*
G75*
G02*
X98572666Y-65645097I77403J1122334D01*
G01*
X98572666Y-65645097D01*
G75*
G02*
X99772403Y-64600166I1122334J-77403D01*
G01*
X100352403Y-64640166D01*
G75*
G02*
X101397334Y-65839903I-77403J-1122334D01*
G01*
G37*
G04 #@! TD.AperFunction*
D17*
X99695000Y-65722500D03*
G04 #@! TA.AperFunction,ComponentPad*
G36*
G01*
X103072350Y-72823812D02*
X103072345Y-72823817D01*
G75*
G02*
X101483683Y-72909845I-837345J751317D01*
G01*
X100023683Y-71599843D01*
G75*
G02*
X99937655Y-70011181I751317J837345D01*
G01*
X99937655Y-70011181D01*
G75*
G02*
X101526317Y-69925153I837345J-751317D01*
G01*
X102986317Y-71235155D01*
G75*
G02*
X103072345Y-72823817I-751317J-837345D01*
G01*
G37*
G04 #@! TD.AperFunction*
X100775000Y-70762500D03*
D16*
X109855000Y-69532500D03*
D15*
X109855000Y-66992500D03*
X109855000Y-105092500D03*
D16*
X109855000Y-107632500D03*
D17*
X100775000Y-108862500D03*
G04 #@! TA.AperFunction,ComponentPad*
G36*
G01*
X103072350Y-110923812D02*
X103072345Y-110923817D01*
G75*
G02*
X101483683Y-111009845I-837345J751317D01*
G01*
X100023683Y-109699843D01*
G75*
G02*
X99937655Y-108111181I751317J837345D01*
G01*
X99937655Y-108111181D01*
G75*
G02*
X101526317Y-108025153I837345J-751317D01*
G01*
X102986317Y-109335155D01*
G75*
G02*
X103072345Y-110923817I-751317J-837345D01*
G01*
G37*
G04 #@! TD.AperFunction*
X99695000Y-103822500D03*
G04 #@! TA.AperFunction,ComponentPad*
G36*
G01*
X101397395Y-103939017D02*
X101397334Y-103939903D01*
G75*
G02*
X100197597Y-104984834I-1122334J77403D01*
G01*
X99617597Y-104944834D01*
G75*
G02*
X98572666Y-103745097I77403J1122334D01*
G01*
X98572666Y-103745097D01*
G75*
G02*
X99772403Y-102700166I1122334J-77403D01*
G01*
X100352403Y-102740166D01*
G75*
G02*
X101397334Y-103939903I-77403J-1122334D01*
G01*
G37*
G04 #@! TD.AperFunction*
G04 #@! TA.AperFunction,ComponentPad*
G36*
G01*
X59573483Y-112509895D02*
X59572597Y-112509834D01*
G75*
G02*
X58527666Y-111310097I77403J1122334D01*
G01*
X58567666Y-110730097D01*
G75*
G02*
X59767403Y-109685166I1122334J-77403D01*
G01*
X59767403Y-109685166D01*
G75*
G02*
X60812334Y-110884903I-77403J-1122334D01*
G01*
X60772334Y-111464903D01*
G75*
G02*
X59572597Y-112509834I-1122334J77403D01*
G01*
G37*
G04 #@! TD.AperFunction*
X59690000Y-110807500D03*
G04 #@! TA.AperFunction,ComponentPad*
G36*
G01*
X52588688Y-114184850D02*
X52588683Y-114184845D01*
G75*
G02*
X52502655Y-112596183I751317J837345D01*
G01*
X53812657Y-111136183D01*
G75*
G02*
X55401319Y-111050155I837345J-751317D01*
G01*
X55401319Y-111050155D01*
G75*
G02*
X55487347Y-112638817I-751317J-837345D01*
G01*
X54177345Y-114098817D01*
G75*
G02*
X52588683Y-114184845I-837345J751317D01*
G01*
G37*
G04 #@! TD.AperFunction*
X54650000Y-111887500D03*
D16*
X55880000Y-120967500D03*
D15*
X58420000Y-120967500D03*
G04 #@! TA.AperFunction,ComponentPad*
G36*
G01*
X50048483Y-12497395D02*
X50047597Y-12497334D01*
G75*
G02*
X49002666Y-11297597I77403J1122334D01*
G01*
X49042666Y-10717597D01*
G75*
G02*
X50242403Y-9672666I1122334J-77403D01*
G01*
X50242403Y-9672666D01*
G75*
G02*
X51287334Y-10872403I-77403J-1122334D01*
G01*
X51247334Y-11452403D01*
G75*
G02*
X50047597Y-12497334I-1122334J77403D01*
G01*
G37*
G04 #@! TD.AperFunction*
D17*
X50165000Y-10795000D03*
G04 #@! TA.AperFunction,ComponentPad*
G36*
G01*
X43063688Y-14172350D02*
X43063683Y-14172345D01*
G75*
G02*
X42977655Y-12583683I751317J837345D01*
G01*
X44287657Y-11123683D01*
G75*
G02*
X45876319Y-11037655I837345J-751317D01*
G01*
X45876319Y-11037655D01*
G75*
G02*
X45962347Y-12626317I-751317J-837345D01*
G01*
X44652345Y-14086317D01*
G75*
G02*
X43063683Y-14172345I-837345J751317D01*
G01*
G37*
G04 #@! TD.AperFunction*
X45125000Y-11875000D03*
D16*
X46355000Y-20955000D03*
D15*
X48895000Y-20955000D03*
X67945000Y-20955000D03*
D16*
X65405000Y-20955000D03*
D17*
X64175000Y-11875000D03*
G04 #@! TA.AperFunction,ComponentPad*
G36*
G01*
X62113688Y-14172350D02*
X62113683Y-14172345D01*
G75*
G02*
X62027655Y-12583683I751317J837345D01*
G01*
X63337657Y-11123683D01*
G75*
G02*
X64926319Y-11037655I837345J-751317D01*
G01*
X64926319Y-11037655D01*
G75*
G02*
X65012347Y-12626317I-751317J-837345D01*
G01*
X63702345Y-14086317D01*
G75*
G02*
X62113683Y-14172345I-837345J751317D01*
G01*
G37*
G04 #@! TD.AperFunction*
X69215000Y-10795000D03*
G04 #@! TA.AperFunction,ComponentPad*
G36*
G01*
X69098483Y-12497395D02*
X69097597Y-12497334D01*
G75*
G02*
X68052666Y-11297597I77403J1122334D01*
G01*
X68092666Y-10717597D01*
G75*
G02*
X69292403Y-9672666I1122334J-77403D01*
G01*
X69292403Y-9672666D01*
G75*
G02*
X70337334Y-10872403I-77403J-1122334D01*
G01*
X70297334Y-11452403D01*
G75*
G02*
X69097597Y-12497334I-1122334J77403D01*
G01*
G37*
G04 #@! TD.AperFunction*
G04 #@! TA.AperFunction,ComponentPad*
G36*
G01*
X88148483Y-12497395D02*
X88147597Y-12497334D01*
G75*
G02*
X87102666Y-11297597I77403J1122334D01*
G01*
X87142666Y-10717597D01*
G75*
G02*
X88342403Y-9672666I1122334J-77403D01*
G01*
X88342403Y-9672666D01*
G75*
G02*
X89387334Y-10872403I-77403J-1122334D01*
G01*
X89347334Y-11452403D01*
G75*
G02*
X88147597Y-12497334I-1122334J77403D01*
G01*
G37*
G04 #@! TD.AperFunction*
X88265000Y-10795000D03*
G04 #@! TA.AperFunction,ComponentPad*
G36*
G01*
X81163688Y-14172350D02*
X81163683Y-14172345D01*
G75*
G02*
X81077655Y-12583683I751317J837345D01*
G01*
X82387657Y-11123683D01*
G75*
G02*
X83976319Y-11037655I837345J-751317D01*
G01*
X83976319Y-11037655D01*
G75*
G02*
X84062347Y-12626317I-751317J-837345D01*
G01*
X82752345Y-14086317D01*
G75*
G02*
X81163683Y-14172345I-837345J751317D01*
G01*
G37*
G04 #@! TD.AperFunction*
X83225000Y-11875000D03*
D16*
X84455000Y-20955000D03*
D15*
X86995000Y-20955000D03*
X106045000Y-20955000D03*
D16*
X103505000Y-20955000D03*
D17*
X102275000Y-11875000D03*
G04 #@! TA.AperFunction,ComponentPad*
G36*
G01*
X100213688Y-14172350D02*
X100213683Y-14172345D01*
G75*
G02*
X100127655Y-12583683I751317J837345D01*
G01*
X101437657Y-11123683D01*
G75*
G02*
X103026319Y-11037655I837345J-751317D01*
G01*
X103026319Y-11037655D01*
G75*
G02*
X103112347Y-12626317I-751317J-837345D01*
G01*
X101802345Y-14086317D01*
G75*
G02*
X100213683Y-14172345I-837345J751317D01*
G01*
G37*
G04 #@! TD.AperFunction*
X107315000Y-10795000D03*
G04 #@! TA.AperFunction,ComponentPad*
G36*
G01*
X107198483Y-12497395D02*
X107197597Y-12497334D01*
G75*
G02*
X106152666Y-11297597I77403J1122334D01*
G01*
X106192666Y-10717597D01*
G75*
G02*
X107392403Y-9672666I1122334J-77403D01*
G01*
X107392403Y-9672666D01*
G75*
G02*
X108437334Y-10872403I-77403J-1122334D01*
G01*
X108397334Y-11452403D01*
G75*
G02*
X107197597Y-12497334I-1122334J77403D01*
G01*
G37*
G04 #@! TD.AperFunction*
D25*
X69977000Y-67437000D03*
X71628000Y-69977000D03*
X90043000Y-105537000D03*
X92075000Y-101346000D03*
X99949000Y-85471000D03*
X70485000Y-64897000D03*
X81661000Y-69977000D03*
X93726000Y-83185000D03*
X52197000Y-17399000D03*
X96393000Y-28321000D03*
X96393000Y-24003000D03*
X61470000Y-9955000D03*
X51562000Y-9271000D03*
X72644000Y-66167000D03*
X54483000Y-66294000D03*
X64516000Y-107061000D03*
X83566000Y-106172000D03*
X83566000Y-86360000D03*
X80645000Y-64643000D03*
X69977000Y-66167000D03*
X64516000Y-31115000D03*
X102616000Y-29337000D03*
X45466000Y-28956000D03*
X52451000Y-30353000D03*
X81788000Y-51562000D03*
X81788000Y-41783000D03*
X71755000Y-80391000D03*
X80645000Y-80137000D03*
X71755000Y-81915000D03*
X71755000Y-94996000D03*
X58518295Y-13363705D03*
X56134002Y-13334986D03*
X95250000Y-70866000D03*
X81788000Y-88519000D03*
X71755000Y-79502000D03*
X78740000Y-72644000D03*
X65532000Y-47244000D03*
X59690000Y-45847000D03*
X59690000Y-26162000D03*
X93980000Y-99822000D03*
X92837000Y-32766000D03*
X55245000Y-19177000D03*
X59055000Y-66675000D03*
X56134000Y-19177000D03*
X59055000Y-69850000D03*
X60198000Y-17018000D03*
X56261000Y-9779000D03*
X52197000Y-14097000D03*
X53540609Y-9525000D03*
X76327000Y-84328000D03*
X76327000Y-115951000D03*
X55499000Y-81280000D03*
X50292000Y-61087000D03*
X55499000Y-93218000D03*
X54483000Y-118110000D03*
X74549000Y-100330000D03*
X74549000Y-88900000D03*
X92837000Y-66167000D03*
X46736000Y-47752000D03*
X92837000Y-90589090D03*
X94996000Y-43053000D03*
X52705000Y-19177000D03*
X63373000Y-19304000D03*
X98298000Y-20447000D03*
X98298000Y-38735000D03*
X52705000Y-18161000D03*
X63373000Y-18161000D03*
X89154000Y-67310000D03*
X91694000Y-18034000D03*
D26*
X76037500Y-66656250D02*
X76037500Y-65115500D01*
X76037500Y-65115500D02*
X73787000Y-62865000D01*
X73787000Y-62865000D02*
X73787000Y-60960000D01*
X74478250Y-60268750D02*
X75100000Y-60268750D01*
X73787000Y-60960000D02*
X74478250Y-60268750D01*
X74930000Y-60098750D02*
X75100000Y-60268750D01*
X74930000Y-57646000D02*
X74930000Y-60098750D01*
D27*
X77470000Y-56146000D02*
X74930000Y-56146000D01*
X78244000Y-56146000D02*
X77470000Y-56146000D01*
D26*
X77037500Y-66656250D02*
X77037500Y-64694500D01*
D27*
X78740000Y-61849000D02*
X79121000Y-61468000D01*
X79121000Y-61468000D02*
X79121000Y-57023000D01*
X79121000Y-57023000D02*
X78244000Y-56146000D01*
D26*
X75387500Y-69306250D02*
X74203750Y-69306250D01*
X73521000Y-69989000D02*
X72771000Y-69989000D01*
X74203750Y-69306250D02*
X73521000Y-69989000D01*
X75387500Y-69306250D02*
X76235750Y-69306250D01*
X77037500Y-68504500D02*
X77037500Y-66656250D01*
X76235750Y-69306250D02*
X77037500Y-68504500D01*
D27*
X80645000Y-61988000D02*
X79744000Y-61988000D01*
D26*
X77037500Y-64694500D02*
X77037500Y-64567500D01*
D27*
X79617000Y-61988000D02*
X78613000Y-62992000D01*
X79744000Y-61988000D02*
X79617000Y-61988000D01*
X78740000Y-62865000D02*
X78613000Y-62992000D01*
X78740000Y-61849000D02*
X78740000Y-62865000D01*
X78740000Y-62865000D02*
X77089000Y-64516000D01*
D26*
X77089000Y-64516000D02*
X77037500Y-64567500D01*
D27*
X75100000Y-61968750D02*
X75343650Y-61968750D01*
X77043650Y-60268750D02*
X77300000Y-60268750D01*
D28*
X75343650Y-61968750D02*
X77043650Y-60268750D01*
D27*
X71132000Y-66687000D02*
X71132000Y-67437000D01*
X70866000Y-66421000D02*
X71132000Y-66687000D01*
X71882000Y-63512000D02*
X71108000Y-63512000D01*
X71108000Y-63512000D02*
X70866000Y-63754000D01*
X63500000Y-105612500D02*
X63500000Y-104902000D01*
X63500000Y-104902000D02*
X59944000Y-101346000D01*
X59944000Y-101346000D02*
X58293000Y-101346000D01*
X57137500Y-100190500D02*
X57137500Y-99893750D01*
X58293000Y-101346000D02*
X57137500Y-100190500D01*
X71132000Y-67437000D02*
X69977000Y-67437000D01*
X71640000Y-69989000D02*
X72771000Y-69989000D01*
X71628000Y-69977000D02*
X71640000Y-69989000D01*
X98035500Y-85462500D02*
X96139000Y-83566000D01*
X98350000Y-85462500D02*
X98035500Y-85462500D01*
X88900000Y-105612500D02*
X89967500Y-105612500D01*
X89967500Y-105612500D02*
X90043000Y-105537000D01*
X92062500Y-101333500D02*
X92062500Y-99893750D01*
X92075000Y-101346000D02*
X92062500Y-101333500D01*
X88900000Y-105612500D02*
X88138000Y-105612500D01*
X64186500Y-105612500D02*
X63500000Y-105612500D01*
X88138000Y-105612500D02*
X87935500Y-105410000D01*
X87935500Y-105410000D02*
X75362500Y-105410000D01*
X75362500Y-105410000D02*
X74854500Y-104902000D01*
X74854500Y-104902000D02*
X64897000Y-104902000D01*
X64897000Y-104902000D02*
X64186500Y-105612500D01*
X98350000Y-85462500D02*
X99940500Y-85462500D01*
X99940500Y-85462500D02*
X99949000Y-85471000D01*
X70866000Y-64897000D02*
X70485000Y-64897000D01*
X70866000Y-64897000D02*
X70866000Y-66421000D01*
X70866000Y-63754000D02*
X70866000Y-64897000D01*
X86421000Y-68453000D02*
X86421000Y-69408000D01*
X85852000Y-69977000D02*
X81661000Y-69977000D01*
X86421000Y-69408000D02*
X85852000Y-69977000D01*
X93726000Y-83185000D02*
X93726000Y-83566000D01*
X93726000Y-83566000D02*
X96139000Y-83566000D01*
X61290000Y-9955000D02*
X60375000Y-10870000D01*
X61470000Y-9955000D02*
X61290000Y-9955000D01*
X60375000Y-10870000D02*
X60375000Y-12777000D01*
X58150000Y-15002000D02*
X58150000Y-15125000D01*
X60375000Y-12777000D02*
X58150000Y-15002000D01*
X50800000Y-16825000D02*
X51115000Y-16825000D01*
X51115000Y-16825000D02*
X51689000Y-17399000D01*
X51689000Y-17399000D02*
X52197000Y-17399000D01*
X94606250Y-27825000D02*
X92856250Y-26075000D01*
X56769000Y-27237250D02*
X57931250Y-26075000D01*
X58642250Y-34131250D02*
X56769000Y-32258000D01*
X58781250Y-34131250D02*
X58642250Y-34131250D01*
X56769000Y-32258000D02*
X56769000Y-27237250D01*
X96393000Y-28321000D02*
X96393000Y-27825000D01*
X99218750Y-27825000D02*
X96393000Y-27825000D01*
X96393000Y-27825000D02*
X94606250Y-27825000D01*
X57931250Y-26075000D02*
X57931250Y-26308250D01*
X57931250Y-26308250D02*
X60706000Y-29083000D01*
X60706000Y-29083000D02*
X86614000Y-29083000D01*
X86614000Y-29083000D02*
X91694000Y-24003000D01*
X91694000Y-24003000D02*
X96393000Y-24003000D01*
X60132000Y-20000000D02*
X61118750Y-20000000D01*
X59281000Y-19149000D02*
X60132000Y-20000000D01*
X59281000Y-16256000D02*
X59281000Y-19149000D01*
X58150000Y-15125000D02*
X59281000Y-16256000D01*
X61118750Y-22887500D02*
X57931250Y-26075000D01*
X61118750Y-20000000D02*
X61118750Y-22887500D01*
X92837000Y-83566000D02*
X90297000Y-81026000D01*
X93726000Y-83566000D02*
X92837000Y-83566000D01*
X90297000Y-81026000D02*
X79375000Y-81026000D01*
X79375000Y-81026000D02*
X77089000Y-83312000D01*
X76488250Y-87468750D02*
X75612500Y-87468750D01*
X77089000Y-83312000D02*
X77089000Y-86868000D01*
X77089000Y-86868000D02*
X76488250Y-87468750D01*
X50480000Y-2575000D02*
X55464000Y-2575000D01*
X59120000Y-2575000D02*
X59120000Y-6755000D01*
X50480000Y-2575000D02*
X50480000Y-6755000D01*
X50660000Y-6755000D02*
X51575000Y-7670000D01*
X50480000Y-6755000D02*
X50660000Y-6755000D01*
X58940000Y-6755000D02*
X58025000Y-7670000D01*
X59120000Y-6755000D02*
X58940000Y-6755000D01*
X61390000Y-9955000D02*
X61470000Y-9955000D01*
X59120000Y-7685000D02*
X61390000Y-9955000D01*
X59120000Y-6755000D02*
X59120000Y-7685000D01*
X51562000Y-7683000D02*
X51575000Y-7670000D01*
X51562000Y-9271000D02*
X51562000Y-7683000D01*
X55464000Y-2575000D02*
X59120000Y-2575000D01*
D26*
X77300000Y-62864500D02*
X76537500Y-63627000D01*
X77300000Y-61968750D02*
X77300000Y-62864500D01*
X76537500Y-66656250D02*
X76537500Y-63627000D01*
X77300000Y-61968750D02*
X77731250Y-61968750D01*
X77731250Y-61968750D02*
X78486000Y-61214000D01*
X78486000Y-61214000D02*
X78486000Y-59309000D01*
X77470000Y-58293000D02*
X77470000Y-57646000D01*
X78486000Y-59309000D02*
X77470000Y-58293000D01*
X75387500Y-69806250D02*
X74465750Y-69806250D01*
X72783000Y-71489000D02*
X74465750Y-69806250D01*
X72771000Y-71489000D02*
X72783000Y-71489000D01*
X73001250Y-67806250D02*
X72632000Y-67437000D01*
X75387500Y-67806250D02*
X73001250Y-67806250D01*
X75387500Y-67306250D02*
X74799250Y-67306250D01*
X72505000Y-65012000D02*
X71882000Y-65012000D01*
X74799250Y-67306250D02*
X72505000Y-65012000D01*
X77537500Y-65210500D02*
X77537500Y-65278000D01*
X77537500Y-65278000D02*
X77537500Y-66656250D01*
X77537500Y-65083500D02*
X77537500Y-65278000D01*
X77597000Y-65024000D02*
X77537500Y-65083500D01*
D27*
X72632000Y-66179000D02*
X72632000Y-67437000D01*
X72644000Y-66167000D02*
X72632000Y-66179000D01*
X71882000Y-65012000D02*
X71882000Y-65659000D01*
X72390000Y-66167000D02*
X72644000Y-66167000D01*
X71882000Y-65659000D02*
X72390000Y-66167000D01*
X80645000Y-63488000D02*
X80633000Y-63488000D01*
X80530000Y-63373000D02*
X80645000Y-63488000D01*
X77597000Y-65024000D02*
X79248000Y-63373000D01*
X79248000Y-63373000D02*
X80530000Y-63373000D01*
X93043750Y-107112500D02*
X95262500Y-104893750D01*
X88900000Y-107112500D02*
X93043750Y-107112500D01*
X60337500Y-104893750D02*
X60337500Y-105041500D01*
X62408500Y-107112500D02*
X62992000Y-107112500D01*
X60337500Y-105041500D02*
X62408500Y-107112500D01*
X63500000Y-107112500D02*
X62992000Y-107112500D01*
X69342000Y-66167000D02*
X63754000Y-66167000D01*
X63754000Y-66167000D02*
X62865000Y-65278000D01*
X62865000Y-65278000D02*
X55626000Y-65278000D01*
X55626000Y-65278000D02*
X55499000Y-65278000D01*
X55499000Y-65278000D02*
X54483000Y-66294000D01*
X65405000Y-44767500D02*
X65405000Y-45974000D01*
X65405000Y-45974000D02*
X66802000Y-47371000D01*
X66802000Y-47371000D02*
X83185000Y-47371000D01*
X84455000Y-46101000D02*
X84455000Y-44767500D01*
X83185000Y-47371000D02*
X84455000Y-46101000D01*
X63500000Y-107112500D02*
X64464500Y-107112500D01*
X64464500Y-107112500D02*
X64516000Y-107061000D01*
X88900000Y-107112500D02*
X88189500Y-107112500D01*
X88189500Y-107112500D02*
X87122000Y-106045000D01*
X87122000Y-106045000D02*
X83693000Y-106045000D01*
X83693000Y-106045000D02*
X83566000Y-106172000D01*
X102552500Y-43815000D02*
X103505000Y-44767500D01*
X90932000Y-43815000D02*
X102552500Y-43815000D01*
X88900000Y-86362500D02*
X83568500Y-86362500D01*
X83568500Y-86362500D02*
X83566000Y-86360000D01*
X80645000Y-63488000D02*
X80645000Y-64643000D01*
X69342000Y-66167000D02*
X69977000Y-66167000D01*
X97806250Y-29325000D02*
X96056250Y-31075000D01*
X99218750Y-29325000D02*
X97806250Y-29325000D01*
X60281250Y-31925000D02*
X61131250Y-31075000D01*
X60281250Y-34131250D02*
X60281250Y-31925000D01*
X61131250Y-31075000D02*
X64476000Y-31075000D01*
X64476000Y-31075000D02*
X64516000Y-31115000D01*
X99218750Y-29325000D02*
X102604000Y-29325000D01*
X102604000Y-29325000D02*
X102616000Y-29337000D01*
X52387500Y-28981250D02*
X45491250Y-28981250D01*
X45491250Y-28981250D02*
X45466000Y-28956000D01*
X52451000Y-29044750D02*
X52387500Y-28981250D01*
X52451000Y-30353000D02*
X52451000Y-29044750D01*
X84836000Y-46482000D02*
X84455000Y-46101000D01*
X88265000Y-46482000D02*
X84836000Y-46482000D01*
X88265000Y-46482000D02*
X90932000Y-43815000D01*
D26*
X77787500Y-41337500D02*
X74612500Y-41337500D01*
X92774500Y-41337500D02*
X93662500Y-41337500D01*
X91948000Y-42164000D02*
X92774500Y-41337500D01*
X78675500Y-41337500D02*
X79502000Y-42164000D01*
X77787500Y-41337500D02*
X78675500Y-41337500D01*
X81915000Y-41910000D02*
X81915000Y-42164000D01*
X81788000Y-41783000D02*
X81915000Y-41910000D01*
X79502000Y-42164000D02*
X81915000Y-42164000D01*
X81915000Y-42164000D02*
X91948000Y-42164000D01*
X79248000Y-65786000D02*
X79037500Y-65996500D01*
X81534000Y-65786000D02*
X79248000Y-65786000D01*
X82550000Y-64770000D02*
X81534000Y-65786000D01*
X82550000Y-62865000D02*
X82550000Y-64770000D01*
X81788000Y-51562000D02*
X82423000Y-51562000D01*
X82423000Y-51562000D02*
X88265000Y-57404000D01*
X88265000Y-57404000D02*
X88265000Y-60833000D01*
X88265000Y-60833000D02*
X87249000Y-61849000D01*
X87249000Y-61849000D02*
X83566000Y-61849000D01*
X79037500Y-65996500D02*
X79037500Y-66656250D01*
X83566000Y-61849000D02*
X82550000Y-62865000D01*
X74612500Y-41337500D02*
X73724500Y-41337500D01*
X73724500Y-41337500D02*
X72771000Y-42291000D01*
X45084000Y-42291000D02*
X42068750Y-45306250D01*
X72771000Y-42291000D02*
X45084000Y-42291000D01*
X96043750Y-64356250D02*
X92868750Y-64356250D01*
X49721500Y-60387500D02*
X48768000Y-61341000D01*
X45084000Y-61341000D02*
X42068750Y-64356250D01*
X48768000Y-61341000D02*
X45084000Y-61341000D01*
X92042250Y-64356250D02*
X88773000Y-61087000D01*
X92868750Y-64356250D02*
X92042250Y-64356250D01*
X57404000Y-59879500D02*
X57912000Y-60387500D01*
X58737500Y-60387500D02*
X57912000Y-60387500D01*
X56896000Y-60387500D02*
X57404000Y-59879500D01*
X56134000Y-60387500D02*
X56896000Y-60387500D01*
X56134000Y-60387500D02*
X49721500Y-60387500D01*
X87503000Y-62357000D02*
X88773000Y-61087000D01*
X83820000Y-62357000D02*
X87503000Y-62357000D01*
X83058000Y-63119000D02*
X83820000Y-62357000D01*
X83058000Y-65024000D02*
X83058000Y-63119000D01*
X57404000Y-56261000D02*
X57404000Y-59879500D01*
X88773000Y-57150000D02*
X82423000Y-50800000D01*
X88773000Y-61087000D02*
X88773000Y-57150000D01*
X82423000Y-50800000D02*
X64897000Y-50800000D01*
X64897000Y-50800000D02*
X59944000Y-55753000D01*
X59944000Y-55753000D02*
X57912000Y-55753000D01*
X57912000Y-55753000D02*
X57404000Y-56261000D01*
X79899750Y-66294000D02*
X79537500Y-66656250D01*
X81788000Y-66294000D02*
X79899750Y-66294000D01*
X81788000Y-66294000D02*
X83058000Y-65024000D01*
X58737500Y-79437500D02*
X55562500Y-79437500D01*
X92868750Y-75468750D02*
X96043750Y-75468750D01*
X92868750Y-75468750D02*
X92868750Y-77819250D01*
X92868750Y-77819250D02*
X90297000Y-80391000D01*
X59625500Y-79437500D02*
X58737500Y-79437500D01*
X71755000Y-80391000D02*
X60579000Y-80391000D01*
X60579000Y-80391000D02*
X59625500Y-79437500D01*
X72009000Y-80391000D02*
X71755000Y-80391000D01*
X76537500Y-71456250D02*
X76537500Y-75862500D01*
X76537500Y-75862500D02*
X72009000Y-80391000D01*
X80899000Y-80391000D02*
X80645000Y-80137000D01*
X81280000Y-80391000D02*
X80899000Y-80391000D01*
X90297000Y-80391000D02*
X81280000Y-80391000D01*
X77787500Y-98487500D02*
X74612500Y-98487500D01*
X59659250Y-91343750D02*
X58737500Y-91343750D01*
X59944000Y-91059000D02*
X59659250Y-91343750D01*
X65151000Y-91059000D02*
X59944000Y-91059000D01*
X69469000Y-95377000D02*
X65151000Y-91059000D01*
X74612500Y-98487500D02*
X73724500Y-98487500D01*
X73724500Y-98487500D02*
X73279000Y-98042000D01*
X73279000Y-98042000D02*
X73277000Y-98042000D01*
X73277000Y-98042000D02*
X73152000Y-97917000D01*
X73152000Y-97917000D02*
X73152000Y-96266000D01*
X73152000Y-96266000D02*
X72263000Y-95377000D01*
X58737500Y-91343750D02*
X55562500Y-91343750D01*
X77037500Y-71456250D02*
X77037500Y-72568500D01*
X77037500Y-72568500D02*
X77037500Y-76124500D01*
X77037500Y-76124500D02*
X75946000Y-77216000D01*
X75946000Y-77216000D02*
X71755000Y-81407000D01*
X71755000Y-81407000D02*
X71755000Y-81915000D01*
X71755000Y-94996000D02*
X71755000Y-95377000D01*
X72263000Y-95377000D02*
X71755000Y-95377000D01*
X71755000Y-95377000D02*
X69469000Y-95377000D01*
D27*
X52387500Y-21717000D02*
X52387500Y-26581250D01*
X52387500Y-21272500D02*
X52387500Y-21717000D01*
X53975000Y-19685000D02*
X52387500Y-21272500D01*
X53975000Y-17100000D02*
X53975000Y-19685000D01*
X56150000Y-14925000D02*
X53975000Y-17100000D01*
X58518295Y-10957801D02*
X58518295Y-13363705D01*
X57250000Y-9689506D02*
X58518295Y-10957801D01*
X57250000Y-7670000D02*
X57250000Y-9689506D01*
X56150000Y-14925000D02*
X56150000Y-13350984D01*
X56150000Y-13350984D02*
X56134002Y-13334986D01*
X52350000Y-9551000D02*
X56133986Y-13334986D01*
X52350000Y-7670000D02*
X52350000Y-9551000D01*
X56133986Y-13334986D02*
X56134002Y-13334986D01*
D26*
X43815000Y-113347500D02*
X53340000Y-113347500D01*
X74727750Y-70306250D02*
X75387500Y-70306250D01*
X73914000Y-71120000D02*
X74727750Y-70306250D01*
X73914000Y-72136000D02*
X73914000Y-71120000D01*
X73533000Y-72517000D02*
X73914000Y-72136000D01*
X71501000Y-72517000D02*
X73533000Y-72517000D01*
X69977000Y-70993000D02*
X71501000Y-72517000D01*
X45125000Y-73787500D02*
X47919500Y-70993000D01*
X47919500Y-70993000D02*
X50927000Y-70993000D01*
X51435000Y-71501000D02*
X67945000Y-71501000D01*
X50927000Y-70993000D02*
X51435000Y-71501000D01*
X67945000Y-71501000D02*
X68453000Y-70993000D01*
X68453000Y-70993000D02*
X69977000Y-70993000D01*
X74989750Y-70806250D02*
X75387500Y-70806250D01*
X69786500Y-75247500D02*
X72009000Y-73025000D01*
X62865000Y-75247500D02*
X69786500Y-75247500D01*
X72009000Y-73025000D02*
X73787000Y-73025000D01*
X73787000Y-73025000D02*
X74422000Y-72390000D01*
X74422000Y-72390000D02*
X74422000Y-71374000D01*
X74422000Y-71374000D02*
X74989750Y-70806250D01*
X79537500Y-71456250D02*
X79537500Y-71790500D01*
X81915000Y-74168000D02*
X81915000Y-75247500D01*
X79537500Y-71790500D02*
X81915000Y-74168000D01*
X102235000Y-112077500D02*
X100965000Y-113347500D01*
X102235000Y-110172500D02*
X102235000Y-112077500D01*
X80772000Y-70806250D02*
X80187500Y-70806250D01*
X80831750Y-70866000D02*
X80772000Y-70806250D01*
X95250000Y-70866000D02*
X80831750Y-70866000D01*
X76037500Y-71456250D02*
X76037500Y-73634500D01*
X88900000Y-88262500D02*
X89913500Y-88262500D01*
X90813500Y-89162500D02*
X92150000Y-89162500D01*
X89913500Y-88262500D02*
X90813500Y-89162500D01*
X88900000Y-88262500D02*
X87886500Y-88262500D01*
X87886500Y-88262500D02*
X87376000Y-88773000D01*
X82042000Y-88773000D02*
X82169000Y-88773000D01*
X81788000Y-88519000D02*
X82042000Y-88773000D01*
X87376000Y-88773000D02*
X82169000Y-88773000D01*
X76037500Y-73634500D02*
X76037500Y-75600500D01*
X76037500Y-75600500D02*
X72136000Y-79502000D01*
X72136000Y-79502000D02*
X71755000Y-79502000D01*
X82585750Y-69306250D02*
X82169000Y-69306250D01*
X80187500Y-69306250D02*
X82169000Y-69306250D01*
X83439000Y-68453000D02*
X83312000Y-68580000D01*
X84521000Y-68453000D02*
X83439000Y-68453000D01*
X83312000Y-68580000D02*
X82585750Y-69306250D01*
X78537500Y-71456250D02*
X78537500Y-72441500D01*
X78537500Y-72441500D02*
X78740000Y-72644000D01*
X64206750Y-45918750D02*
X60337500Y-45918750D01*
X65532000Y-47244000D02*
X64206750Y-45918750D01*
X60337500Y-45918750D02*
X59761750Y-45918750D01*
X59761750Y-45918750D02*
X59690000Y-45847000D01*
X61044250Y-26162000D02*
X61131250Y-26075000D01*
X59690000Y-26162000D02*
X61044250Y-26162000D01*
X48355500Y-36957000D02*
X50125000Y-35187500D01*
X46482000Y-36957000D02*
X48355500Y-36957000D01*
X44958000Y-38481000D02*
X46482000Y-36957000D01*
X44958000Y-39878000D02*
X44958000Y-38481000D01*
X42068750Y-42006250D02*
X42829750Y-42006250D01*
X42829750Y-42006250D02*
X44958000Y-39878000D01*
X71762500Y-35187500D02*
X74612500Y-38037500D01*
X69175000Y-35187500D02*
X71762500Y-35187500D01*
X88225000Y-35187500D02*
X88225000Y-34885000D01*
X88225000Y-34885000D02*
X87249000Y-33909000D01*
X81916000Y-33909000D02*
X77787500Y-38037500D01*
X87249000Y-33909000D02*
X81916000Y-33909000D01*
X107275000Y-35187500D02*
X107196500Y-35187500D01*
X107196500Y-35187500D02*
X105918000Y-33909000D01*
X97791000Y-33909000D02*
X93662500Y-38037500D01*
X105918000Y-33909000D02*
X97791000Y-33909000D01*
X50125000Y-54237500D02*
X48378500Y-54237500D01*
X48378500Y-54237500D02*
X44958000Y-57658000D01*
X44958000Y-57658000D02*
X44958000Y-58928000D01*
X42829750Y-61056250D02*
X42068750Y-61056250D01*
X44958000Y-58928000D02*
X42829750Y-61056250D01*
X58737500Y-57087500D02*
X59371500Y-57087500D01*
X59371500Y-57087500D02*
X63500000Y-52959000D01*
X67896500Y-52959000D02*
X69175000Y-54237500D01*
X63500000Y-52959000D02*
X67896500Y-52959000D01*
X88225000Y-55499000D02*
X88225000Y-54237500D01*
X88225000Y-55840000D02*
X88225000Y-55499000D01*
X89281000Y-56896000D02*
X88225000Y-55840000D01*
X89281000Y-59309000D02*
X89281000Y-56896000D01*
X91028250Y-61056250D02*
X89281000Y-59309000D01*
X92868750Y-61056250D02*
X91028250Y-61056250D01*
X107275000Y-54237500D02*
X105401500Y-54237500D01*
X105401500Y-54237500D02*
X101219000Y-58420000D01*
X101219000Y-58420000D02*
X101219000Y-59309000D01*
X99471750Y-61056250D02*
X96043750Y-61056250D01*
X101219000Y-59309000D02*
X99471750Y-61056250D01*
X52712500Y-73287500D02*
X55562500Y-76137500D01*
X50125000Y-73287500D02*
X52712500Y-73287500D01*
X69175000Y-73287500D02*
X69175000Y-73112000D01*
X69175000Y-73112000D02*
X68072000Y-72009000D01*
X62866000Y-72009000D02*
X58737500Y-76137500D01*
X68072000Y-72009000D02*
X62866000Y-72009000D01*
X89343750Y-72168750D02*
X88225000Y-73287500D01*
X92868750Y-72168750D02*
X89343750Y-72168750D01*
X107275000Y-73287500D02*
X107196500Y-73287500D01*
X107196500Y-73287500D02*
X105664000Y-71755000D01*
X105664000Y-71755000D02*
X104521000Y-71755000D01*
X96043750Y-72168750D02*
X96043750Y-71088250D01*
X96043750Y-71088250D02*
X98425000Y-68707000D01*
X98425000Y-66992500D02*
X99695000Y-65722500D01*
X98425000Y-68707000D02*
X98425000Y-66992500D01*
X102235000Y-67722500D02*
X100275000Y-65762500D01*
X102235000Y-69469000D02*
X102235000Y-67722500D01*
X104521000Y-71755000D02*
X102235000Y-69469000D01*
X54418750Y-88043750D02*
X50125000Y-92337500D01*
X55562500Y-88043750D02*
X54418750Y-88043750D01*
X65501250Y-88043750D02*
X69215000Y-91757500D01*
X58737500Y-88043750D02*
X65501250Y-88043750D01*
X77787500Y-95187500D02*
X77787500Y-93916500D01*
X77787500Y-93916500D02*
X81153000Y-90551000D01*
X87058500Y-90551000D02*
X88265000Y-91757500D01*
X81153000Y-90551000D02*
X87058500Y-90551000D01*
X93472000Y-91059000D02*
X106616500Y-91059000D01*
X93218000Y-91313000D02*
X93472000Y-91059000D01*
X92456000Y-91313000D02*
X93218000Y-91313000D01*
X74612500Y-95187500D02*
X75754500Y-95187500D01*
X75754500Y-95187500D02*
X80899000Y-90043000D01*
X80899000Y-90043000D02*
X89027000Y-90043000D01*
X89027000Y-90043000D02*
X90043000Y-91059000D01*
X90043000Y-91059000D02*
X92202000Y-91059000D01*
X106616500Y-91059000D02*
X107315000Y-91757500D01*
X92202000Y-91059000D02*
X92456000Y-91313000D01*
X94051750Y-99893750D02*
X95262500Y-99893750D01*
X93980000Y-99822000D02*
X94051750Y-99893750D01*
X92856250Y-32746750D02*
X92856250Y-31075000D01*
X92837000Y-32766000D02*
X92856250Y-32746750D01*
X50125000Y-106181250D02*
X53975000Y-102331250D01*
X50125000Y-111387500D02*
X50125000Y-106181250D01*
X59650000Y-111387500D02*
X59650000Y-110323000D01*
X59650000Y-110323000D02*
X58928000Y-109601000D01*
X51911500Y-109601000D02*
X50125000Y-111387500D01*
X58928000Y-109601000D02*
X51911500Y-109601000D01*
X73350000Y-111387500D02*
X74612500Y-112650000D01*
X69175000Y-111387500D02*
X73350000Y-111387500D01*
X88225000Y-111387500D02*
X88225000Y-110831000D01*
X88225000Y-110831000D02*
X87503000Y-110109000D01*
X80328500Y-110109000D02*
X77787500Y-112650000D01*
X87503000Y-110109000D02*
X80328500Y-110109000D01*
X107275000Y-111387500D02*
X106942500Y-111387500D01*
X106942500Y-111387500D02*
X105410000Y-109855000D01*
X105410000Y-109855000D02*
X104394000Y-109855000D01*
X96870250Y-107061000D02*
X94456250Y-109475000D01*
X100068750Y-103862500D02*
X96870250Y-107061000D01*
X100275000Y-103862500D02*
X100068750Y-103862500D01*
X102108000Y-105695500D02*
X100275000Y-103862500D01*
X102108000Y-107569000D02*
X102108000Y-105695500D01*
X104394000Y-109855000D02*
X102108000Y-107569000D01*
X88011000Y-104521000D02*
X91689750Y-104521000D01*
X60337500Y-100850500D02*
X63754000Y-104267000D01*
X60337500Y-99893750D02*
X60337500Y-100850500D01*
X91689750Y-104521000D02*
X92062500Y-104893750D01*
X63754000Y-104267000D02*
X75184000Y-104267000D01*
X75184000Y-104267000D02*
X75692000Y-104775000D01*
X75692000Y-104775000D02*
X87757000Y-104775000D01*
X87757000Y-104775000D02*
X88011000Y-104521000D01*
X63700000Y-68306250D02*
X62068750Y-66675000D01*
X75387500Y-68306250D02*
X63700000Y-68306250D01*
X59055000Y-66675000D02*
X60168750Y-66675000D01*
X56150000Y-18018000D02*
X55245000Y-18923000D01*
X56150000Y-16825000D02*
X56150000Y-18018000D01*
X55245000Y-18923000D02*
X55245000Y-19177000D01*
X56896000Y-16079000D02*
X56150000Y-16825000D01*
X56896000Y-12319000D02*
X56896000Y-16079000D01*
X54550000Y-9973000D02*
X56896000Y-12319000D01*
X54550000Y-9149000D02*
X54550000Y-9973000D01*
X55050000Y-8473172D02*
X55050000Y-7670000D01*
X54549999Y-8973172D02*
X55050000Y-8473172D01*
X54550000Y-9149000D02*
X54549999Y-8973172D01*
X54550000Y-8957000D02*
X54550000Y-9149000D01*
X54050000Y-8457000D02*
X54550000Y-8957000D01*
X54050000Y-7670000D02*
X54050000Y-8457000D01*
X63112500Y-68806250D02*
X62068750Y-69850000D01*
X75387500Y-68806250D02*
X63112500Y-68806250D01*
X56134000Y-18841000D02*
X58150000Y-16825000D01*
X56134000Y-19177000D02*
X56134000Y-18841000D01*
X60168750Y-69850000D02*
X59055000Y-69850000D01*
X54550000Y-6792078D02*
X54550000Y-7670000D01*
X54676479Y-6665599D02*
X54550000Y-6792078D01*
X55423521Y-6665599D02*
X54676479Y-6665599D01*
X55550000Y-6792078D02*
X55423521Y-6665599D01*
X55550000Y-7670000D02*
X55550000Y-6792078D01*
X57404000Y-16079000D02*
X58150000Y-16825000D01*
X57404000Y-12252250D02*
X57404000Y-16079000D01*
X54956410Y-9141512D02*
X54956410Y-9804660D01*
X55479401Y-8618521D02*
X54956410Y-9141512D01*
X55479401Y-7740599D02*
X55479401Y-8618521D01*
X55550000Y-7670000D02*
X55479401Y-7740599D01*
X54956410Y-9804660D02*
X57404000Y-12252250D01*
X61118750Y-18100000D02*
X61118750Y-17938750D01*
X61118750Y-17938750D02*
X60198000Y-17018000D01*
X56550000Y-7670000D02*
X56550000Y-9490000D01*
X56550000Y-9490000D02*
X56261000Y-9779000D01*
X51115000Y-14925000D02*
X50800000Y-14925000D01*
X51943000Y-14097000D02*
X51115000Y-14925000D01*
X52197000Y-14097000D02*
X51943000Y-14097000D01*
X53550000Y-7670000D02*
X53550000Y-9515609D01*
X53550000Y-9515609D02*
X53540609Y-9525000D01*
X96056250Y-26075000D02*
X96056250Y-25825250D01*
X96056250Y-25825250D02*
X94869000Y-24638000D01*
X94869000Y-24638000D02*
X91948000Y-24638000D01*
X91948000Y-24638000D02*
X86868000Y-29718000D01*
X59288250Y-29718000D02*
X57931250Y-31075000D01*
X86868000Y-29718000D02*
X59288250Y-29718000D01*
X53975000Y-105631250D02*
X54069250Y-105631250D01*
X54069250Y-105631250D02*
X57531000Y-109093000D01*
X57531000Y-109093000D02*
X64135000Y-109093000D01*
X64135000Y-109093000D02*
X69469000Y-114427000D01*
X74421000Y-115950000D02*
X72898000Y-114427000D01*
X74612500Y-115950000D02*
X74421000Y-115950000D01*
X69469000Y-114427000D02*
X72898000Y-114427000D01*
X78612000Y-115950000D02*
X77787500Y-115950000D01*
X94456250Y-112775000D02*
X91822000Y-112775000D01*
X91822000Y-112775000D02*
X88265000Y-116332000D01*
X88265000Y-116332000D02*
X88265000Y-116967000D01*
X88265000Y-116967000D02*
X86868000Y-118364000D01*
X86868000Y-118364000D02*
X81026000Y-118364000D01*
X81026000Y-118364000D02*
X78612000Y-115950000D01*
X74612500Y-115950000D02*
X76327000Y-115950000D01*
X76327000Y-115950000D02*
X77787500Y-115950000D01*
X78037500Y-72584500D02*
X78037500Y-71456250D01*
X78037500Y-76648500D02*
X78037500Y-72584500D01*
X76454000Y-78232000D02*
X78037500Y-76648500D01*
X76454000Y-84201000D02*
X76454000Y-78232000D01*
X76327000Y-84328000D02*
X76454000Y-84201000D01*
X76327000Y-115950000D02*
X76327000Y-115951000D01*
X48575000Y-45087500D02*
X48895000Y-44767500D01*
X48575000Y-49212500D02*
X48575000Y-45087500D01*
X69371250Y-46193750D02*
X67945000Y-44767500D01*
X74612500Y-46193750D02*
X69371250Y-46193750D01*
X86995000Y-44767500D02*
X86995000Y-44704000D01*
X86995000Y-44704000D02*
X85598000Y-43307000D01*
X85598000Y-43307000D02*
X81534000Y-43307000D01*
X78647250Y-46193750D02*
X77787500Y-46193750D01*
X81534000Y-43307000D02*
X78647250Y-46193750D01*
X96837500Y-40637500D02*
X97152500Y-40637500D01*
X97152500Y-40637500D02*
X99695000Y-43180000D01*
X104457500Y-43180000D02*
X106045000Y-44767500D01*
X99695000Y-43180000D02*
X104457500Y-43180000D01*
X50321250Y-65243750D02*
X48895000Y-63817500D01*
X53181250Y-65243750D02*
X50321250Y-65243750D01*
X69850000Y-61912500D02*
X67945000Y-63817500D01*
X69850000Y-59687500D02*
X69850000Y-61912500D01*
X92390000Y-69212500D02*
X86995000Y-63817500D01*
X92868750Y-69212500D02*
X92390000Y-69212500D01*
X106045000Y-63881000D02*
X106045000Y-63817500D01*
X104521000Y-65405000D02*
X106045000Y-63881000D01*
X102616000Y-65405000D02*
X104521000Y-65405000D01*
X96043750Y-69212500D02*
X97157500Y-69212500D01*
X97917000Y-68453000D02*
X97917000Y-65024000D01*
X97917000Y-65024000D02*
X98933000Y-64008000D01*
X98933000Y-64008000D02*
X101219000Y-64008000D01*
X97157500Y-69212500D02*
X97917000Y-68453000D01*
X101219000Y-64008000D02*
X102616000Y-65405000D01*
X50321250Y-84293750D02*
X48895000Y-82867500D01*
X55562500Y-84293750D02*
X50321250Y-84293750D01*
X66518750Y-84293750D02*
X67945000Y-82867500D01*
X58737500Y-84293750D02*
X66518750Y-84293750D01*
X85568750Y-84293750D02*
X86995000Y-82867500D01*
X80168750Y-84293750D02*
X85568750Y-84293750D01*
X55562500Y-96200000D02*
X55438000Y-96200000D01*
X49720500Y-101917500D02*
X48895000Y-101917500D01*
X55438000Y-96200000D02*
X49720500Y-101917500D01*
X58737500Y-96200000D02*
X58737500Y-96202500D01*
X58737500Y-96202500D02*
X60833000Y-98298000D01*
X60833000Y-98298000D02*
X64389000Y-98298000D01*
X67945000Y-101854000D02*
X67945000Y-101917500D01*
X64389000Y-98298000D02*
X67945000Y-101854000D01*
X86995000Y-101917500D02*
X86931500Y-101917500D01*
X86931500Y-101917500D02*
X85090000Y-103759000D01*
X78705750Y-103343750D02*
X79121000Y-103759000D01*
X77787500Y-103343750D02*
X78705750Y-103343750D01*
X85090000Y-103759000D02*
X79121000Y-103759000D01*
X106045000Y-101981000D02*
X106045000Y-101917500D01*
X104521000Y-103505000D02*
X106045000Y-101981000D01*
X102616000Y-103505000D02*
X104521000Y-103505000D01*
X97282000Y-98171000D02*
X102616000Y-103505000D01*
X87503000Y-104267000D02*
X90297000Y-101473000D01*
X90297000Y-101473000D02*
X90297000Y-99187000D01*
X90297000Y-99187000D02*
X91313000Y-98171000D01*
X91313000Y-98171000D02*
X97282000Y-98171000D01*
X75022750Y-103343750D02*
X75946000Y-104267000D01*
X74612500Y-103343750D02*
X75022750Y-103343750D01*
X75946000Y-104267000D02*
X87503000Y-104267000D01*
X61912500Y-120012500D02*
X62232500Y-120012500D01*
X62232500Y-120012500D02*
X63119000Y-119126000D01*
X66103500Y-119126000D02*
X67945000Y-120967500D01*
X63119000Y-119126000D02*
X66103500Y-119126000D01*
X85534500Y-119507000D02*
X86995000Y-120967500D01*
X79375000Y-119507000D02*
X85534500Y-119507000D01*
X77787500Y-120806250D02*
X78075750Y-120806250D01*
X78075750Y-120806250D02*
X79375000Y-119507000D01*
D27*
X74612500Y-44293750D02*
X77787500Y-44293750D01*
X77787500Y-118906250D02*
X76742250Y-118906250D01*
X76742250Y-118906250D02*
X76327000Y-118491000D01*
X76327000Y-118491000D02*
X63246000Y-118491000D01*
X62867500Y-118112500D02*
X61912500Y-118112500D01*
X63246000Y-118491000D02*
X62867500Y-118112500D01*
X61912500Y-118112500D02*
X60957500Y-118112500D01*
X60957500Y-118112500D02*
X60579000Y-118491000D01*
X53342500Y-118112500D02*
X52387500Y-118112500D01*
X53721000Y-118491000D02*
X53342500Y-118112500D01*
X77816750Y-118935500D02*
X77787500Y-118906250D01*
X91252000Y-118935500D02*
X77816750Y-118935500D01*
X91281250Y-118906250D02*
X91252000Y-118935500D01*
X77787500Y-101443750D02*
X74612500Y-101443750D01*
X55562500Y-94300000D02*
X58737500Y-94300000D01*
X58737500Y-82393750D02*
X55562500Y-82393750D01*
X73612500Y-86518750D02*
X73612500Y-88217500D01*
X73612500Y-88217500D02*
X73914000Y-88519000D01*
X76454000Y-88519000D02*
X77724000Y-87249000D01*
X77724000Y-87249000D02*
X77724000Y-83947000D01*
X79277250Y-82393750D02*
X80168750Y-82393750D01*
X77724000Y-83947000D02*
X79277250Y-82393750D01*
X55562500Y-82393750D02*
X55562500Y-81343500D01*
X55562500Y-81343500D02*
X55499000Y-81280000D01*
X55499000Y-94236500D02*
X55562500Y-94300000D01*
X55499000Y-93218000D02*
X55499000Y-94236500D01*
X54483000Y-118364000D02*
X54356000Y-118491000D01*
X54483000Y-118110000D02*
X54483000Y-118364000D01*
X60579000Y-118491000D02*
X54356000Y-118491000D01*
X54356000Y-118491000D02*
X53721000Y-118491000D01*
X92868750Y-67312500D02*
X96043750Y-67312500D01*
X69850000Y-57787500D02*
X69598500Y-57787500D01*
X69598500Y-57787500D02*
X67945000Y-56134000D01*
X67945000Y-56134000D02*
X65405000Y-56134000D01*
X65405000Y-56134000D02*
X64135000Y-57404000D01*
X64135000Y-57404000D02*
X64135000Y-58420000D01*
X59211250Y-63343750D02*
X53181250Y-63343750D01*
X64135000Y-58420000D02*
X59211250Y-63343750D01*
X52548750Y-63343750D02*
X50292000Y-61087000D01*
X53181250Y-63343750D02*
X52548750Y-63343750D01*
X74612500Y-101443750D02*
X74612500Y-100393500D01*
X74612500Y-100393500D02*
X74549000Y-100330000D01*
X74549000Y-88900000D02*
X74549000Y-88519000D01*
X73914000Y-88519000D02*
X74549000Y-88519000D01*
X74549000Y-88519000D02*
X76454000Y-88519000D01*
X103825000Y-87312500D02*
X103825000Y-87691000D01*
X103825000Y-87691000D02*
X101092000Y-90424000D01*
X92868750Y-67312500D02*
X92868750Y-66198750D01*
X92868750Y-66198750D02*
X92837000Y-66167000D01*
X46675000Y-49212500D02*
X46675000Y-47813000D01*
X46675000Y-47813000D02*
X46736000Y-47752000D01*
X92837000Y-90589090D02*
X92837000Y-90424000D01*
X101092000Y-90424000D02*
X92837000Y-90424000D01*
X90297000Y-90424000D02*
X89281000Y-89408000D01*
X92837000Y-90424000D02*
X90297000Y-90424000D01*
X77343000Y-89408000D02*
X76454000Y-88519000D01*
X89281000Y-89408000D02*
X77343000Y-89408000D01*
X78769250Y-44293750D02*
X77787500Y-44293750D01*
X96837500Y-38737500D02*
X95882500Y-38737500D01*
X95882500Y-38737500D02*
X95377000Y-39243000D01*
X95377000Y-39243000D02*
X95377000Y-42100500D01*
X95377000Y-42100500D02*
X94742000Y-42735500D01*
X94742000Y-42735500D02*
X80327500Y-42735500D01*
X80327500Y-42735500D02*
X78769250Y-44293750D01*
X94742000Y-42799000D02*
X94742000Y-42735500D01*
X94996000Y-43053000D02*
X94742000Y-42799000D01*
X72390000Y-85296250D02*
X73612500Y-86518750D01*
X72390000Y-84201000D02*
X72390000Y-85296250D01*
X69215000Y-81026000D02*
X72390000Y-84201000D01*
X61087000Y-81026000D02*
X69215000Y-81026000D01*
X59719250Y-82393750D02*
X61087000Y-81026000D01*
X58737500Y-82393750D02*
X59719250Y-82393750D01*
X42068750Y-24450000D02*
X42068750Y-23844250D01*
X42068750Y-23844250D02*
X43561000Y-22352000D01*
X43561000Y-22352000D02*
X43561000Y-21463000D01*
X43561000Y-21463000D02*
X43561000Y-21082000D01*
X43561000Y-21082000D02*
X45593000Y-19050000D01*
X45593000Y-19050000D02*
X52578000Y-19050000D01*
X52578000Y-19050000D02*
X52705000Y-19177000D01*
X74612500Y-20481250D02*
X75530750Y-20481250D01*
X75530750Y-20481250D02*
X76962000Y-19050000D01*
X76962000Y-19050000D02*
X91313000Y-19050000D01*
X92744250Y-20481250D02*
X93662500Y-20481250D01*
X91313000Y-19050000D02*
X92744250Y-20481250D01*
X74612500Y-20481250D02*
X73694250Y-20481250D01*
X73694250Y-20481250D02*
X72263000Y-19050000D01*
X72263000Y-19050000D02*
X63627000Y-19050000D01*
X63627000Y-19050000D02*
X63373000Y-19304000D01*
X96837500Y-20481250D02*
X93662500Y-20481250D01*
X96837500Y-20481250D02*
X98263750Y-20481250D01*
X98263750Y-20481250D02*
X98298000Y-20447000D01*
X96840000Y-38735000D02*
X96837500Y-38737500D01*
X98298000Y-38735000D02*
X96840000Y-38735000D01*
D26*
X105725000Y-83187500D02*
X106045000Y-82867500D01*
X105725000Y-87312500D02*
X105725000Y-83187500D01*
X91281250Y-120806250D02*
X101443750Y-120806250D01*
X101443750Y-120806250D02*
X102870000Y-119380000D01*
X104457500Y-119380000D02*
X106045000Y-120967500D01*
X102870000Y-119380000D02*
X104457500Y-119380000D01*
X49850000Y-120012500D02*
X48895000Y-120967500D01*
X52387500Y-120012500D02*
X49850000Y-120012500D01*
X52387500Y-120012500D02*
X53342500Y-120012500D01*
X53342500Y-120012500D02*
X54229000Y-119126000D01*
X56578500Y-119126000D02*
X58420000Y-120967500D01*
X54229000Y-119126000D02*
X56578500Y-119126000D01*
X75562500Y-85518750D02*
X75612500Y-85568750D01*
X75562500Y-82550000D02*
X75562500Y-85518750D01*
X73662500Y-82550000D02*
X73662500Y-80261500D01*
X77537500Y-76386500D02*
X77537500Y-75946000D01*
X73662500Y-80261500D02*
X77537500Y-76386500D01*
X77537500Y-71456250D02*
X77537500Y-75946000D01*
X42068750Y-21493750D02*
X42260250Y-21493750D01*
X42260250Y-21493750D02*
X45339000Y-18415000D01*
X45339000Y-18415000D02*
X52451000Y-18415000D01*
X52451000Y-18415000D02*
X52705000Y-18161000D01*
X96837500Y-17525000D02*
X93662500Y-17525000D01*
X93662500Y-17525000D02*
X92711000Y-17525000D01*
X92711000Y-17525000D02*
X91821000Y-18415000D01*
X91821000Y-18415000D02*
X76327000Y-18415000D01*
X75437000Y-17525000D02*
X74612500Y-17525000D01*
X76327000Y-18415000D02*
X75437000Y-17525000D01*
X74612500Y-17525000D02*
X73788000Y-17525000D01*
X73788000Y-17525000D02*
X72898000Y-18415000D01*
X72898000Y-18415000D02*
X64643000Y-18415000D01*
X64643000Y-18415000D02*
X63627000Y-18415000D01*
X63627000Y-18415000D02*
X63373000Y-18161000D01*
X80187500Y-67306250D02*
X89150250Y-67306250D01*
X89150250Y-67306250D02*
X89154000Y-67310000D01*
X91694000Y-18288000D02*
X91821000Y-18415000D01*
X91694000Y-18034000D02*
X91694000Y-18288000D01*
X50125000Y-11375000D02*
X48315000Y-11375000D01*
X48315000Y-11375000D02*
X44958000Y-14732000D01*
X44958000Y-14732000D02*
X44958000Y-16129000D01*
X42893250Y-18193750D02*
X42068750Y-18193750D01*
X44958000Y-16129000D02*
X42893250Y-18193750D01*
X71762500Y-11375000D02*
X74612500Y-14225000D01*
X69175000Y-11375000D02*
X71762500Y-11375000D01*
X90812500Y-11375000D02*
X93662500Y-14225000D01*
X88225000Y-11375000D02*
X90812500Y-11375000D01*
X107275000Y-11375000D02*
X107275000Y-10374000D01*
X107275000Y-10374000D02*
X106934000Y-10033000D01*
X101029500Y-10033000D02*
X96837500Y-14225000D01*
X106934000Y-10033000D02*
X101029500Y-10033000D01*
X43500000Y-26350000D02*
X42068750Y-26350000D01*
X48895000Y-20955000D02*
X43500000Y-26350000D01*
X69371250Y-22381250D02*
X67945000Y-20955000D01*
X74612500Y-22381250D02*
X69371250Y-22381250D01*
X88421250Y-22381250D02*
X86995000Y-20955000D01*
X93662500Y-22381250D02*
X88421250Y-22381250D01*
X104618750Y-22381250D02*
X106045000Y-20955000D01*
X96837500Y-22381250D02*
X104618750Y-22381250D01*
X80835500Y-54955402D02*
X80645973Y-55166630D01*
X80503343Y-55360971D01*
X80367269Y-55652446D01*
X80290674Y-55964867D01*
X80276500Y-56286226D01*
X80325293Y-56604176D01*
X80435177Y-56906499D01*
X80601930Y-57181575D01*
X80760247Y-57354500D01*
X80508786Y-57354500D01*
X80241594Y-57407648D01*
X79989904Y-57511901D01*
X79763389Y-57663254D01*
X79570754Y-57855889D01*
X79419401Y-58082404D01*
X79315148Y-58334094D01*
X79262000Y-58601286D01*
X79262000Y-58873714D01*
X79315148Y-59140906D01*
X79419401Y-59392596D01*
X79570754Y-59619111D01*
X79763389Y-59811746D01*
X79989904Y-59963099D01*
X80241594Y-60067352D01*
X80508786Y-60120500D01*
X80781214Y-60120500D01*
X80835500Y-60109702D01*
X80835500Y-60973250D01*
X80772000Y-61036750D01*
X80772000Y-61836000D01*
X80792000Y-61836000D01*
X80792000Y-62090000D01*
X80772000Y-62090000D01*
X80772000Y-62110000D01*
X80518000Y-62110000D01*
X80518000Y-62090000D01*
X79693750Y-62090000D01*
X79535000Y-62248750D01*
X79531928Y-62413000D01*
X79544188Y-62537482D01*
X79580498Y-62657180D01*
X79589756Y-62674500D01*
X79282298Y-62674500D01*
X79248000Y-62671122D01*
X79213702Y-62674500D01*
X79213691Y-62674500D01*
X79111070Y-62684607D01*
X78979403Y-62724548D01*
X78864208Y-62786121D01*
X78858057Y-62789409D01*
X78778346Y-62854826D01*
X78778343Y-62854829D01*
X78751697Y-62876697D01*
X78729829Y-62903343D01*
X77172500Y-64460673D01*
X77172500Y-63890024D01*
X77726955Y-63335570D01*
X77751185Y-63315685D01*
X77786621Y-63272506D01*
X77830538Y-63218994D01*
X77889502Y-63108680D01*
X77893208Y-63096463D01*
X77898443Y-63079207D01*
X78000000Y-63079207D01*
X78099585Y-63069399D01*
X78195343Y-63040351D01*
X78283595Y-62993179D01*
X78360948Y-62929698D01*
X78424429Y-62852345D01*
X78471601Y-62764093D01*
X78500649Y-62668335D01*
X78510457Y-62568750D01*
X78510457Y-62087568D01*
X78912961Y-61685065D01*
X78937185Y-61665185D01*
X78957065Y-61640961D01*
X78957069Y-61640957D01*
X79016538Y-61568494D01*
X79046200Y-61513000D01*
X79531928Y-61513000D01*
X79535000Y-61677250D01*
X79693750Y-61836000D01*
X80518000Y-61836000D01*
X80518000Y-61036750D01*
X80359250Y-60878000D01*
X80170000Y-60874928D01*
X80045518Y-60887188D01*
X79925820Y-60923498D01*
X79815506Y-60982463D01*
X79718815Y-61061815D01*
X79639463Y-61158506D01*
X79580498Y-61268820D01*
X79544188Y-61388518D01*
X79531928Y-61513000D01*
X79046200Y-61513000D01*
X79075502Y-61458180D01*
X79083726Y-61431068D01*
X79111812Y-61338482D01*
X79121000Y-61245192D01*
X79121000Y-61245189D01*
X79124072Y-61214000D01*
X79121000Y-61182811D01*
X79121000Y-59340181D01*
X79124071Y-59309000D01*
X79121000Y-59277819D01*
X79121000Y-59277808D01*
X79111812Y-59184518D01*
X79075502Y-59064820D01*
X79016537Y-58954506D01*
X78937185Y-58857815D01*
X78912955Y-58837930D01*
X78348269Y-58273244D01*
X78399474Y-58177447D01*
X78441325Y-58039481D01*
X78455457Y-57896000D01*
X78455457Y-57446000D01*
X78441325Y-57302519D01*
X78399474Y-57164553D01*
X78345576Y-57063718D01*
X78396185Y-57022185D01*
X78475537Y-56925494D01*
X78534502Y-56815180D01*
X78570812Y-56695482D01*
X78583072Y-56571000D01*
X78580000Y-56406750D01*
X78421250Y-56248000D01*
X77597000Y-56248000D01*
X77597000Y-56268000D01*
X77343000Y-56268000D01*
X77343000Y-56248000D01*
X76518750Y-56248000D01*
X76360000Y-56406750D01*
X76356928Y-56571000D01*
X76369188Y-56695482D01*
X76405498Y-56815180D01*
X76464463Y-56925494D01*
X76543815Y-57022185D01*
X76594424Y-57063718D01*
X76540526Y-57164553D01*
X76498675Y-57302519D01*
X76484543Y-57446000D01*
X76484543Y-57896000D01*
X76498675Y-58039481D01*
X76540526Y-58177447D01*
X76608490Y-58304598D01*
X76699953Y-58416047D01*
X76811402Y-58507510D01*
X76885934Y-58547348D01*
X76939463Y-58647493D01*
X77018815Y-58744185D01*
X77043050Y-58764074D01*
X77449238Y-59170262D01*
X77427000Y-59192500D01*
X77427000Y-60141750D01*
X77447000Y-60141750D01*
X77447000Y-60395750D01*
X77427000Y-60395750D01*
X77427000Y-60415750D01*
X77173000Y-60415750D01*
X77173000Y-60395750D01*
X77153000Y-60395750D01*
X77153000Y-60141750D01*
X77173000Y-60141750D01*
X77173000Y-59192500D01*
X77014250Y-59033750D01*
X76600000Y-59030678D01*
X76475518Y-59042938D01*
X76355820Y-59079248D01*
X76245506Y-59138213D01*
X76148815Y-59217565D01*
X76109446Y-59265536D01*
X76083595Y-59244321D01*
X75995343Y-59197149D01*
X75899585Y-59168101D01*
X75800000Y-59158293D01*
X75565000Y-59158293D01*
X75565000Y-58520123D01*
X75588598Y-58507510D01*
X75700047Y-58416047D01*
X75791510Y-58304598D01*
X75859474Y-58177447D01*
X75901325Y-58039481D01*
X75915457Y-57896000D01*
X75915457Y-57446000D01*
X75901325Y-57302519D01*
X75859474Y-57164553D01*
X75805576Y-57063718D01*
X75856185Y-57022185D01*
X75935537Y-56925494D01*
X75994502Y-56815180D01*
X76030812Y-56695482D01*
X76043072Y-56571000D01*
X76040000Y-56406750D01*
X75881250Y-56248000D01*
X75057000Y-56248000D01*
X75057000Y-56268000D01*
X74803000Y-56268000D01*
X74803000Y-56248000D01*
X73978750Y-56248000D01*
X73820000Y-56406750D01*
X73816928Y-56571000D01*
X73829188Y-56695482D01*
X73865498Y-56815180D01*
X73924463Y-56925494D01*
X74003815Y-57022185D01*
X74054424Y-57063718D01*
X74000526Y-57164553D01*
X73958675Y-57302519D01*
X73944543Y-57446000D01*
X73944543Y-57896000D01*
X73958675Y-58039481D01*
X74000526Y-58177447D01*
X74068490Y-58304598D01*
X74159953Y-58416047D01*
X74271402Y-58507510D01*
X74295000Y-58520124D01*
X74295001Y-59169743D01*
X74204657Y-59197149D01*
X74116405Y-59244321D01*
X74039052Y-59307802D01*
X73975571Y-59385155D01*
X73928399Y-59473407D01*
X73899351Y-59569165D01*
X73889543Y-59668750D01*
X73889543Y-59959432D01*
X73360046Y-60488930D01*
X73335816Y-60508815D01*
X73315932Y-60533044D01*
X73256463Y-60605507D01*
X73197498Y-60715821D01*
X73183243Y-60762815D01*
X73161189Y-60835518D01*
X73153108Y-60917565D01*
X73148929Y-60960000D01*
X73152001Y-60991191D01*
X73152000Y-62833819D01*
X73148929Y-62865000D01*
X73152000Y-62896181D01*
X73152000Y-62896191D01*
X73161188Y-62989481D01*
X73197498Y-63109179D01*
X73256463Y-63219493D01*
X73335815Y-63316185D01*
X73360050Y-63336074D01*
X75402501Y-65378527D01*
X75402501Y-65754250D01*
X74145275Y-65754250D01*
X73152000Y-64760976D01*
X73152000Y-63500000D01*
X73149560Y-63475224D01*
X73142333Y-63451399D01*
X73130597Y-63429443D01*
X73114803Y-63410197D01*
X72948928Y-63244322D01*
X72992000Y-63201250D01*
X72995072Y-63037000D01*
X72982812Y-62912518D01*
X72946502Y-62792820D01*
X72887537Y-62682506D01*
X72808185Y-62585815D01*
X72711494Y-62506463D01*
X72601180Y-62447498D01*
X72481482Y-62411188D01*
X72357000Y-62398928D01*
X72167750Y-62402000D01*
X72137178Y-62432572D01*
X71564500Y-61859894D01*
X71564500Y-60109702D01*
X71618786Y-60120500D01*
X71891214Y-60120500D01*
X72158406Y-60067352D01*
X72410096Y-59963099D01*
X72636611Y-59811746D01*
X72829246Y-59619111D01*
X72980599Y-59392596D01*
X73084852Y-59140906D01*
X73138000Y-58873714D01*
X73138000Y-58601286D01*
X73084852Y-58334094D01*
X72980599Y-58082404D01*
X72829246Y-57855889D01*
X72636611Y-57663254D01*
X72410096Y-57511901D01*
X72158406Y-57407648D01*
X71891214Y-57354500D01*
X71618786Y-57354500D01*
X71564500Y-57365298D01*
X71564500Y-55671000D01*
X73816928Y-55671000D01*
X73820000Y-55835250D01*
X73978750Y-55994000D01*
X74803000Y-55994000D01*
X74803000Y-55194750D01*
X75057000Y-55194750D01*
X75057000Y-55994000D01*
X75881250Y-55994000D01*
X76040000Y-55835250D01*
X76043072Y-55671000D01*
X76356928Y-55671000D01*
X76360000Y-55835250D01*
X76518750Y-55994000D01*
X77343000Y-55994000D01*
X77343000Y-55194750D01*
X77597000Y-55194750D01*
X77597000Y-55994000D01*
X78421250Y-55994000D01*
X78580000Y-55835250D01*
X78583072Y-55671000D01*
X78570812Y-55546518D01*
X78534502Y-55426820D01*
X78475537Y-55316506D01*
X78396185Y-55219815D01*
X78299494Y-55140463D01*
X78189180Y-55081498D01*
X78069482Y-55045188D01*
X77945000Y-55032928D01*
X77755750Y-55036000D01*
X77597000Y-55194750D01*
X77343000Y-55194750D01*
X77184250Y-55036000D01*
X76995000Y-55032928D01*
X76870518Y-55045188D01*
X76750820Y-55081498D01*
X76640506Y-55140463D01*
X76543815Y-55219815D01*
X76464463Y-55316506D01*
X76405498Y-55426820D01*
X76369188Y-55546518D01*
X76356928Y-55671000D01*
X76043072Y-55671000D01*
X76030812Y-55546518D01*
X75994502Y-55426820D01*
X75935537Y-55316506D01*
X75856185Y-55219815D01*
X75759494Y-55140463D01*
X75649180Y-55081498D01*
X75529482Y-55045188D01*
X75405000Y-55032928D01*
X75215750Y-55036000D01*
X75057000Y-55194750D01*
X74803000Y-55194750D01*
X74644250Y-55036000D01*
X74455000Y-55032928D01*
X74330518Y-55045188D01*
X74210820Y-55081498D01*
X74100506Y-55140463D01*
X74003815Y-55219815D01*
X73924463Y-55316506D01*
X73865498Y-55426820D01*
X73829188Y-55546518D01*
X73816928Y-55671000D01*
X71564500Y-55671000D01*
X71564500Y-53308250D01*
X80835500Y-53308250D01*
X80835500Y-54955402D01*
G04 #@! TA.AperFunction,Conductor*
D29*
G36*
X80835500Y-54955402D02*
G01*
X80645973Y-55166630D01*
X80503343Y-55360971D01*
X80367269Y-55652446D01*
X80290674Y-55964867D01*
X80276500Y-56286226D01*
X80325293Y-56604176D01*
X80435177Y-56906499D01*
X80601930Y-57181575D01*
X80760247Y-57354500D01*
X80508786Y-57354500D01*
X80241594Y-57407648D01*
X79989904Y-57511901D01*
X79763389Y-57663254D01*
X79570754Y-57855889D01*
X79419401Y-58082404D01*
X79315148Y-58334094D01*
X79262000Y-58601286D01*
X79262000Y-58873714D01*
X79315148Y-59140906D01*
X79419401Y-59392596D01*
X79570754Y-59619111D01*
X79763389Y-59811746D01*
X79989904Y-59963099D01*
X80241594Y-60067352D01*
X80508786Y-60120500D01*
X80781214Y-60120500D01*
X80835500Y-60109702D01*
X80835500Y-60973250D01*
X80772000Y-61036750D01*
X80772000Y-61836000D01*
X80792000Y-61836000D01*
X80792000Y-62090000D01*
X80772000Y-62090000D01*
X80772000Y-62110000D01*
X80518000Y-62110000D01*
X80518000Y-62090000D01*
X79693750Y-62090000D01*
X79535000Y-62248750D01*
X79531928Y-62413000D01*
X79544188Y-62537482D01*
X79580498Y-62657180D01*
X79589756Y-62674500D01*
X79282298Y-62674500D01*
X79248000Y-62671122D01*
X79213702Y-62674500D01*
X79213691Y-62674500D01*
X79111070Y-62684607D01*
X78979403Y-62724548D01*
X78864208Y-62786121D01*
X78858057Y-62789409D01*
X78778346Y-62854826D01*
X78778343Y-62854829D01*
X78751697Y-62876697D01*
X78729829Y-62903343D01*
X77172500Y-64460673D01*
X77172500Y-63890024D01*
X77726955Y-63335570D01*
X77751185Y-63315685D01*
X77786621Y-63272506D01*
X77830538Y-63218994D01*
X77889502Y-63108680D01*
X77893208Y-63096463D01*
X77898443Y-63079207D01*
X78000000Y-63079207D01*
X78099585Y-63069399D01*
X78195343Y-63040351D01*
X78283595Y-62993179D01*
X78360948Y-62929698D01*
X78424429Y-62852345D01*
X78471601Y-62764093D01*
X78500649Y-62668335D01*
X78510457Y-62568750D01*
X78510457Y-62087568D01*
X78912961Y-61685065D01*
X78937185Y-61665185D01*
X78957065Y-61640961D01*
X78957069Y-61640957D01*
X79016538Y-61568494D01*
X79046200Y-61513000D01*
X79531928Y-61513000D01*
X79535000Y-61677250D01*
X79693750Y-61836000D01*
X80518000Y-61836000D01*
X80518000Y-61036750D01*
X80359250Y-60878000D01*
X80170000Y-60874928D01*
X80045518Y-60887188D01*
X79925820Y-60923498D01*
X79815506Y-60982463D01*
X79718815Y-61061815D01*
X79639463Y-61158506D01*
X79580498Y-61268820D01*
X79544188Y-61388518D01*
X79531928Y-61513000D01*
X79046200Y-61513000D01*
X79075502Y-61458180D01*
X79083726Y-61431068D01*
X79111812Y-61338482D01*
X79121000Y-61245192D01*
X79121000Y-61245189D01*
X79124072Y-61214000D01*
X79121000Y-61182811D01*
X79121000Y-59340181D01*
X79124071Y-59309000D01*
X79121000Y-59277819D01*
X79121000Y-59277808D01*
X79111812Y-59184518D01*
X79075502Y-59064820D01*
X79016537Y-58954506D01*
X78937185Y-58857815D01*
X78912955Y-58837930D01*
X78348269Y-58273244D01*
X78399474Y-58177447D01*
X78441325Y-58039481D01*
X78455457Y-57896000D01*
X78455457Y-57446000D01*
X78441325Y-57302519D01*
X78399474Y-57164553D01*
X78345576Y-57063718D01*
X78396185Y-57022185D01*
X78475537Y-56925494D01*
X78534502Y-56815180D01*
X78570812Y-56695482D01*
X78583072Y-56571000D01*
X78580000Y-56406750D01*
X78421250Y-56248000D01*
X77597000Y-56248000D01*
X77597000Y-56268000D01*
X77343000Y-56268000D01*
X77343000Y-56248000D01*
X76518750Y-56248000D01*
X76360000Y-56406750D01*
X76356928Y-56571000D01*
X76369188Y-56695482D01*
X76405498Y-56815180D01*
X76464463Y-56925494D01*
X76543815Y-57022185D01*
X76594424Y-57063718D01*
X76540526Y-57164553D01*
X76498675Y-57302519D01*
X76484543Y-57446000D01*
X76484543Y-57896000D01*
X76498675Y-58039481D01*
X76540526Y-58177447D01*
X76608490Y-58304598D01*
X76699953Y-58416047D01*
X76811402Y-58507510D01*
X76885934Y-58547348D01*
X76939463Y-58647493D01*
X77018815Y-58744185D01*
X77043050Y-58764074D01*
X77449238Y-59170262D01*
X77427000Y-59192500D01*
X77427000Y-60141750D01*
X77447000Y-60141750D01*
X77447000Y-60395750D01*
X77427000Y-60395750D01*
X77427000Y-60415750D01*
X77173000Y-60415750D01*
X77173000Y-60395750D01*
X77153000Y-60395750D01*
X77153000Y-60141750D01*
X77173000Y-60141750D01*
X77173000Y-59192500D01*
X77014250Y-59033750D01*
X76600000Y-59030678D01*
X76475518Y-59042938D01*
X76355820Y-59079248D01*
X76245506Y-59138213D01*
X76148815Y-59217565D01*
X76109446Y-59265536D01*
X76083595Y-59244321D01*
X75995343Y-59197149D01*
X75899585Y-59168101D01*
X75800000Y-59158293D01*
X75565000Y-59158293D01*
X75565000Y-58520123D01*
X75588598Y-58507510D01*
X75700047Y-58416047D01*
X75791510Y-58304598D01*
X75859474Y-58177447D01*
X75901325Y-58039481D01*
X75915457Y-57896000D01*
X75915457Y-57446000D01*
X75901325Y-57302519D01*
X75859474Y-57164553D01*
X75805576Y-57063718D01*
X75856185Y-57022185D01*
X75935537Y-56925494D01*
X75994502Y-56815180D01*
X76030812Y-56695482D01*
X76043072Y-56571000D01*
X76040000Y-56406750D01*
X75881250Y-56248000D01*
X75057000Y-56248000D01*
X75057000Y-56268000D01*
X74803000Y-56268000D01*
X74803000Y-56248000D01*
X73978750Y-56248000D01*
X73820000Y-56406750D01*
X73816928Y-56571000D01*
X73829188Y-56695482D01*
X73865498Y-56815180D01*
X73924463Y-56925494D01*
X74003815Y-57022185D01*
X74054424Y-57063718D01*
X74000526Y-57164553D01*
X73958675Y-57302519D01*
X73944543Y-57446000D01*
X73944543Y-57896000D01*
X73958675Y-58039481D01*
X74000526Y-58177447D01*
X74068490Y-58304598D01*
X74159953Y-58416047D01*
X74271402Y-58507510D01*
X74295000Y-58520124D01*
X74295001Y-59169743D01*
X74204657Y-59197149D01*
X74116405Y-59244321D01*
X74039052Y-59307802D01*
X73975571Y-59385155D01*
X73928399Y-59473407D01*
X73899351Y-59569165D01*
X73889543Y-59668750D01*
X73889543Y-59959432D01*
X73360046Y-60488930D01*
X73335816Y-60508815D01*
X73315932Y-60533044D01*
X73256463Y-60605507D01*
X73197498Y-60715821D01*
X73183243Y-60762815D01*
X73161189Y-60835518D01*
X73153108Y-60917565D01*
X73148929Y-60960000D01*
X73152001Y-60991191D01*
X73152000Y-62833819D01*
X73148929Y-62865000D01*
X73152000Y-62896181D01*
X73152000Y-62896191D01*
X73161188Y-62989481D01*
X73197498Y-63109179D01*
X73256463Y-63219493D01*
X73335815Y-63316185D01*
X73360050Y-63336074D01*
X75402501Y-65378527D01*
X75402501Y-65754250D01*
X74145275Y-65754250D01*
X73152000Y-64760976D01*
X73152000Y-63500000D01*
X73149560Y-63475224D01*
X73142333Y-63451399D01*
X73130597Y-63429443D01*
X73114803Y-63410197D01*
X72948928Y-63244322D01*
X72992000Y-63201250D01*
X72995072Y-63037000D01*
X72982812Y-62912518D01*
X72946502Y-62792820D01*
X72887537Y-62682506D01*
X72808185Y-62585815D01*
X72711494Y-62506463D01*
X72601180Y-62447498D01*
X72481482Y-62411188D01*
X72357000Y-62398928D01*
X72167750Y-62402000D01*
X72137178Y-62432572D01*
X71564500Y-61859894D01*
X71564500Y-60109702D01*
X71618786Y-60120500D01*
X71891214Y-60120500D01*
X72158406Y-60067352D01*
X72410096Y-59963099D01*
X72636611Y-59811746D01*
X72829246Y-59619111D01*
X72980599Y-59392596D01*
X73084852Y-59140906D01*
X73138000Y-58873714D01*
X73138000Y-58601286D01*
X73084852Y-58334094D01*
X72980599Y-58082404D01*
X72829246Y-57855889D01*
X72636611Y-57663254D01*
X72410096Y-57511901D01*
X72158406Y-57407648D01*
X71891214Y-57354500D01*
X71618786Y-57354500D01*
X71564500Y-57365298D01*
X71564500Y-55671000D01*
X73816928Y-55671000D01*
X73820000Y-55835250D01*
X73978750Y-55994000D01*
X74803000Y-55994000D01*
X74803000Y-55194750D01*
X75057000Y-55194750D01*
X75057000Y-55994000D01*
X75881250Y-55994000D01*
X76040000Y-55835250D01*
X76043072Y-55671000D01*
X76356928Y-55671000D01*
X76360000Y-55835250D01*
X76518750Y-55994000D01*
X77343000Y-55994000D01*
X77343000Y-55194750D01*
X77597000Y-55194750D01*
X77597000Y-55994000D01*
X78421250Y-55994000D01*
X78580000Y-55835250D01*
X78583072Y-55671000D01*
X78570812Y-55546518D01*
X78534502Y-55426820D01*
X78475537Y-55316506D01*
X78396185Y-55219815D01*
X78299494Y-55140463D01*
X78189180Y-55081498D01*
X78069482Y-55045188D01*
X77945000Y-55032928D01*
X77755750Y-55036000D01*
X77597000Y-55194750D01*
X77343000Y-55194750D01*
X77184250Y-55036000D01*
X76995000Y-55032928D01*
X76870518Y-55045188D01*
X76750820Y-55081498D01*
X76640506Y-55140463D01*
X76543815Y-55219815D01*
X76464463Y-55316506D01*
X76405498Y-55426820D01*
X76369188Y-55546518D01*
X76356928Y-55671000D01*
X76043072Y-55671000D01*
X76030812Y-55546518D01*
X75994502Y-55426820D01*
X75935537Y-55316506D01*
X75856185Y-55219815D01*
X75759494Y-55140463D01*
X75649180Y-55081498D01*
X75529482Y-55045188D01*
X75405000Y-55032928D01*
X75215750Y-55036000D01*
X75057000Y-55194750D01*
X74803000Y-55194750D01*
X74644250Y-55036000D01*
X74455000Y-55032928D01*
X74330518Y-55045188D01*
X74210820Y-55081498D01*
X74100506Y-55140463D01*
X74003815Y-55219815D01*
X73924463Y-55316506D01*
X73865498Y-55426820D01*
X73829188Y-55546518D01*
X73816928Y-55671000D01*
X71564500Y-55671000D01*
X71564500Y-53308250D01*
X80835500Y-53308250D01*
X80835500Y-54955402D01*
G37*
G04 #@! TD.AperFunction*
D26*
X75227000Y-61841750D02*
X75247000Y-61841750D01*
X75247000Y-62095750D01*
X75227000Y-62095750D01*
X75227000Y-63045000D01*
X75385750Y-63203750D01*
X75800000Y-63206822D01*
X75924482Y-63194562D01*
X76044180Y-63158252D01*
X76154494Y-63099287D01*
X76225287Y-63041189D01*
X76110546Y-63155930D01*
X76086316Y-63175815D01*
X76060869Y-63206822D01*
X76006963Y-63272507D01*
X75947998Y-63382821D01*
X75926500Y-63453692D01*
X75911689Y-63502518D01*
X75910959Y-63509929D01*
X75899429Y-63627000D01*
X75902501Y-63658191D01*
X75902501Y-64082475D01*
X74919012Y-63098988D01*
X74973000Y-63045000D01*
X74973000Y-62095750D01*
X74953000Y-62095750D01*
X74953000Y-61841750D01*
X74973000Y-61841750D01*
X74973000Y-61821750D01*
X75227000Y-61821750D01*
X75227000Y-61841750D01*
G04 #@! TA.AperFunction,Conductor*
D29*
G36*
X75227000Y-61841750D02*
G01*
X75247000Y-61841750D01*
X75247000Y-62095750D01*
X75227000Y-62095750D01*
X75227000Y-63045000D01*
X75385750Y-63203750D01*
X75800000Y-63206822D01*
X75924482Y-63194562D01*
X76044180Y-63158252D01*
X76154494Y-63099287D01*
X76225287Y-63041189D01*
X76110546Y-63155930D01*
X76086316Y-63175815D01*
X76060869Y-63206822D01*
X76006963Y-63272507D01*
X75947998Y-63382821D01*
X75926500Y-63453692D01*
X75911689Y-63502518D01*
X75910959Y-63509929D01*
X75899429Y-63627000D01*
X75902501Y-63658191D01*
X75902501Y-64082475D01*
X74919012Y-63098988D01*
X74973000Y-63045000D01*
X74973000Y-62095750D01*
X74953000Y-62095750D01*
X74953000Y-61841750D01*
X74973000Y-61841750D01*
X74973000Y-61821750D01*
X75227000Y-61821750D01*
X75227000Y-61841750D01*
G37*
G04 #@! TD.AperFunction*
D26*
X50627000Y-6882000D02*
X50620500Y-6882000D01*
X50620500Y-6628000D01*
X50627000Y-6628000D01*
X50627000Y-6882000D01*
G04 #@! TA.AperFunction,Conductor*
D29*
G36*
X50627000Y-6882000D02*
G01*
X50620500Y-6882000D01*
X50620500Y-6628000D01*
X50627000Y-6628000D01*
X50627000Y-6882000D01*
G37*
G04 #@! TD.AperFunction*
D26*
X58979501Y-6882000D02*
X58973000Y-6882000D01*
X58973000Y-6628000D01*
X58979501Y-6628000D01*
X58979501Y-6882000D01*
G04 #@! TA.AperFunction,Conductor*
D29*
G36*
X58979501Y-6882000D02*
G01*
X58973000Y-6882000D01*
X58973000Y-6628000D01*
X58979501Y-6628000D01*
X58979501Y-6882000D01*
G37*
G04 #@! TD.AperFunction*
D26*
X57985000Y-2148000D02*
X57985000Y-2448000D01*
X58979500Y-2448000D01*
X58979500Y-2702000D01*
X57985000Y-2702000D01*
X57985000Y-3002000D01*
X58031585Y-3220987D01*
X58119997Y-3426678D01*
X58246839Y-3611169D01*
X58407236Y-3767369D01*
X58595024Y-3889276D01*
X58818126Y-3969119D01*
X58979500Y-3852694D01*
X58979501Y-5227307D01*
X58818126Y-5110881D01*
X58595024Y-5190724D01*
X58407236Y-5312631D01*
X58246839Y-5468831D01*
X58187294Y-5555440D01*
X58084574Y-5486805D01*
X57932977Y-5424011D01*
X57772043Y-5392000D01*
X57607957Y-5392000D01*
X57447023Y-5424011D01*
X57295426Y-5486805D01*
X57158993Y-5577966D01*
X57042966Y-5693993D01*
X56951805Y-5830426D01*
X56889011Y-5982023D01*
X56857000Y-6142957D01*
X56857000Y-6307043D01*
X56883660Y-6441077D01*
X56850415Y-6444351D01*
X56825000Y-6452061D01*
X56799585Y-6444351D01*
X56700000Y-6434543D01*
X56400000Y-6434543D01*
X56300415Y-6444351D01*
X56300000Y-6444477D01*
X56299585Y-6444351D01*
X56200000Y-6434543D01*
X56078041Y-6434543D01*
X56001185Y-6340893D01*
X55976950Y-6321004D01*
X55894595Y-6238649D01*
X55874706Y-6214414D01*
X55778015Y-6135062D01*
X55667701Y-6076097D01*
X55548003Y-6039787D01*
X55454713Y-6030599D01*
X55454702Y-6030599D01*
X55423521Y-6027528D01*
X55392340Y-6030599D01*
X54707659Y-6030599D01*
X54676478Y-6027528D01*
X54645297Y-6030599D01*
X54645287Y-6030599D01*
X54551997Y-6039787D01*
X54432299Y-6076097D01*
X54321985Y-6135062D01*
X54225294Y-6214414D01*
X54205405Y-6238649D01*
X54123050Y-6321004D01*
X54098815Y-6340893D01*
X54021959Y-6434543D01*
X53900000Y-6434543D01*
X53800415Y-6444351D01*
X53800000Y-6444477D01*
X53799585Y-6444351D01*
X53700000Y-6434543D01*
X53400000Y-6434543D01*
X53300415Y-6444351D01*
X53300000Y-6444477D01*
X53299585Y-6444351D01*
X53200000Y-6434543D01*
X52900000Y-6434543D01*
X52800415Y-6444351D01*
X52775000Y-6452061D01*
X52749585Y-6444351D01*
X52716340Y-6441077D01*
X52743000Y-6307043D01*
X52743000Y-6142957D01*
X52710989Y-5982023D01*
X52648195Y-5830426D01*
X52557034Y-5693993D01*
X52441007Y-5577966D01*
X52304574Y-5486805D01*
X52152977Y-5424011D01*
X51992043Y-5392000D01*
X51827957Y-5392000D01*
X51667023Y-5424011D01*
X51515426Y-5486805D01*
X51412706Y-5555440D01*
X51353161Y-5468831D01*
X51192764Y-5312631D01*
X51004976Y-5190724D01*
X50781874Y-5110881D01*
X50620500Y-5227306D01*
X50620500Y-3852694D01*
X50781874Y-3969119D01*
X51004976Y-3889276D01*
X51192764Y-3767369D01*
X51353161Y-3611169D01*
X51480003Y-3426678D01*
X51568415Y-3220987D01*
X51615000Y-3002000D01*
X51615000Y-2702000D01*
X50620500Y-2702000D01*
X50620500Y-2448000D01*
X51615000Y-2448000D01*
X51615000Y-2148000D01*
X51614468Y-2145500D01*
X57985532Y-2145500D01*
X57985000Y-2148000D01*
G04 #@! TA.AperFunction,Conductor*
D29*
G36*
X57985000Y-2148000D02*
G01*
X57985000Y-2448000D01*
X58979500Y-2448000D01*
X58979500Y-2702000D01*
X57985000Y-2702000D01*
X57985000Y-3002000D01*
X58031585Y-3220987D01*
X58119997Y-3426678D01*
X58246839Y-3611169D01*
X58407236Y-3767369D01*
X58595024Y-3889276D01*
X58818126Y-3969119D01*
X58979500Y-3852694D01*
X58979501Y-5227307D01*
X58818126Y-5110881D01*
X58595024Y-5190724D01*
X58407236Y-5312631D01*
X58246839Y-5468831D01*
X58187294Y-5555440D01*
X58084574Y-5486805D01*
X57932977Y-5424011D01*
X57772043Y-5392000D01*
X57607957Y-5392000D01*
X57447023Y-5424011D01*
X57295426Y-5486805D01*
X57158993Y-5577966D01*
X57042966Y-5693993D01*
X56951805Y-5830426D01*
X56889011Y-5982023D01*
X56857000Y-6142957D01*
X56857000Y-6307043D01*
X56883660Y-6441077D01*
X56850415Y-6444351D01*
X56825000Y-6452061D01*
X56799585Y-6444351D01*
X56700000Y-6434543D01*
X56400000Y-6434543D01*
X56300415Y-6444351D01*
X56300000Y-6444477D01*
X56299585Y-6444351D01*
X56200000Y-6434543D01*
X56078041Y-6434543D01*
X56001185Y-6340893D01*
X55976950Y-6321004D01*
X55894595Y-6238649D01*
X55874706Y-6214414D01*
X55778015Y-6135062D01*
X55667701Y-6076097D01*
X55548003Y-6039787D01*
X55454713Y-6030599D01*
X55454702Y-6030599D01*
X55423521Y-6027528D01*
X55392340Y-6030599D01*
X54707659Y-6030599D01*
X54676478Y-6027528D01*
X54645297Y-6030599D01*
X54645287Y-6030599D01*
X54551997Y-6039787D01*
X54432299Y-6076097D01*
X54321985Y-6135062D01*
X54225294Y-6214414D01*
X54205405Y-6238649D01*
X54123050Y-6321004D01*
X54098815Y-6340893D01*
X54021959Y-6434543D01*
X53900000Y-6434543D01*
X53800415Y-6444351D01*
X53800000Y-6444477D01*
X53799585Y-6444351D01*
X53700000Y-6434543D01*
X53400000Y-6434543D01*
X53300415Y-6444351D01*
X53300000Y-6444477D01*
X53299585Y-6444351D01*
X53200000Y-6434543D01*
X52900000Y-6434543D01*
X52800415Y-6444351D01*
X52775000Y-6452061D01*
X52749585Y-6444351D01*
X52716340Y-6441077D01*
X52743000Y-6307043D01*
X52743000Y-6142957D01*
X52710989Y-5982023D01*
X52648195Y-5830426D01*
X52557034Y-5693993D01*
X52441007Y-5577966D01*
X52304574Y-5486805D01*
X52152977Y-5424011D01*
X51992043Y-5392000D01*
X51827957Y-5392000D01*
X51667023Y-5424011D01*
X51515426Y-5486805D01*
X51412706Y-5555440D01*
X51353161Y-5468831D01*
X51192764Y-5312631D01*
X51004976Y-5190724D01*
X50781874Y-5110881D01*
X50620500Y-5227306D01*
X50620500Y-3852694D01*
X50781874Y-3969119D01*
X51004976Y-3889276D01*
X51192764Y-3767369D01*
X51353161Y-3611169D01*
X51480003Y-3426678D01*
X51568415Y-3220987D01*
X51615000Y-3002000D01*
X51615000Y-2702000D01*
X50620500Y-2702000D01*
X50620500Y-2448000D01*
X51615000Y-2448000D01*
X51615000Y-2148000D01*
X51614468Y-2145500D01*
X57985532Y-2145500D01*
X57985000Y-2148000D01*
G37*
G04 #@! TD.AperFunction*
M02*
