M48
; DRILL file {KiCad (5.1.10)-1} date 03/04/22 22:43:27
; FORMAT={-:-/ absolute / metric / decimal}
; #@! TF.CreationDate,2022-03-04T22:43:27+01:00
; #@! TF.GenerationSoftware,Kicad,Pcbnew,(5.1.10)-1
; #@! TF.FileFunction,NonPlated,1,2,NPTH
FMAT,2
METRIC
T1C0.650
T2C1.750
T3C3.048
T4C3.988
%
G90
G05
T1
X51.91Y-6.225
X57.69Y-6.225
T2
X42.545Y-15.875
X42.545Y-39.688
X42.545Y-58.737
X42.545Y-77.787
X42.545Y-96.837
X42.545Y-115.887
X52.07Y-115.887
X52.705Y-15.875
X52.705Y-39.688
X52.705Y-58.737
X52.705Y-77.787
X52.705Y-96.837
X52.705Y-115.887
X61.595Y-15.875
X61.595Y-39.688
X61.595Y-58.737
X61.595Y-77.787
X61.595Y-96.837
X61.595Y-115.887
X62.23Y-115.887
X71.755Y-15.875
X71.755Y-39.688
X71.755Y-58.737
X71.755Y-77.787
X71.755Y-96.837
X71.755Y-115.887
X80.645Y-15.875
X80.645Y-39.688
X80.645Y-58.737
X80.645Y-77.787
X80.645Y-96.837
X80.645Y-115.887
X90.805Y-15.875
X90.805Y-39.688
X90.805Y-58.737
X90.805Y-77.787
X90.805Y-96.837
X90.805Y-115.887
X99.695Y-15.875
X99.695Y-39.688
X99.695Y-58.737
X99.695Y-77.787
X99.695Y-96.837
X99.695Y-115.887
X104.775Y-63.182
X104.775Y-73.343
X104.775Y-101.282
X104.775Y-111.442
X109.855Y-15.875
X109.855Y-39.688
X109.855Y-58.737
X109.855Y-77.787
X109.855Y-96.837
X109.855Y-115.887
T3
X45.212Y-122.872
X69.088Y-122.872
X111.76Y-56.325
X111.76Y-80.2
X111.76Y-94.424
X111.76Y-118.3
T4
X45.212Y-107.632
X47.625Y-15.875
X47.625Y-39.688
X47.625Y-58.737
X47.625Y-77.787
X47.625Y-96.837
X47.625Y-115.887
X57.15Y-115.887
X66.675Y-15.875
X66.675Y-39.688
X66.675Y-58.737
X66.675Y-77.787
X66.675Y-96.837
X66.675Y-115.887
X69.088Y-107.632
X85.725Y-15.875
X85.725Y-39.688
X85.725Y-58.737
X85.725Y-77.787
X85.725Y-96.837
X85.725Y-115.887
X96.52Y-56.325
X96.52Y-80.2
X96.52Y-94.424
X96.52Y-118.3
X104.775Y-15.875
X104.775Y-39.688
X104.775Y-58.737
X104.775Y-68.263
X104.775Y-77.787
X104.775Y-96.837
X104.775Y-106.362
X104.775Y-115.887
T0
M30
